0
SECTION
2
HEADER
9
$INSUNITS
70
4
9
$ACADVER
1
AC1014
9
$HANDSEED
5
FFFF
0
ENDSEC
0
SECTION
2
TABLES
0
TABLE
2
VPORT
5
8
100
AcDbSymbolTable
0
ENDTAB
0
TABLE
2
LTYPE
5
5
100
AcDbSymbolTable
0
LTYPE
5
14
100
AcDbSymbolTableRecord
100
AcDbLinetypeTableRecord
2
BYBLOCK
70
0
0
LTYPE
5
15
100
AcDbSymbolTableRecord
100
AcDbLinetypeTableRecord
2
BYLAYER
70
0
0
ENDTAB
0
TABLE
2
LAYER
5
2
100
AcDbSymbolTable
70
2
0
LAYER
5
50
100
AcDbSymbolTableRecord
100
AcDbLayerTableRecord
2
0
70
0
6
CONTINUOUS
0
ENDTAB
0
TABLE
2
STYLE
5
3
100
AcDbSymbolTable
70
1
0
STYLE
5
11
100
AcDbSymbolTableRecord
100
AcDbTextStyleTableRecord
2
STANDARD
70
0
0
ENDTAB
0
TABLE
2
VIEW
5
6
100
AcDbSymbolTable
70
0
0
ENDTAB
0
TABLE
2
UCS
5
7
100
AcDbSymbolTable
70
0
0
ENDTAB
0
TABLE
2
APPID
5
9
100
AcDbSymbolTable
70
2
0
APPID
5
12
100
AcDbSymbolTableRecord
100
AcDbRegAppTableRecord
2
ACAD
70
0
0
ENDTAB
0
TABLE
2
DIMSTYLE
5
A
100
AcDbSymbolTable
70
1
0
ENDTAB
0
TABLE
2
BLOCK_RECORD
5
1
100
AcDbSymbolTable
70
1
0
BLOCK_RECORD
5
1F
100
AcDbSymbolTableRecord
100
AcDbBlockTableRecord
2
*MODEL_SPACE
0
BLOCK_RECORD
5
1B
100
AcDbSymbolTableRecord
100
AcDbBlockTableRecord
2
*PAPER_SPACE
0
ENDTAB
0
ENDSEC
0
SECTION
2
BLOCKS
0
BLOCK
5
20
100
AcDbEntity
100
AcDbBlockBegin
2
*MODEL_SPACE
0
ENDBLK
5
21
100
AcDbEntity
100
AcDbBlockEnd
0
BLOCK
5
1C
100
AcDbEntity
100
AcDbBlockBegin
2
*PAPER_SPACE
0
ENDBLK
5
1D
100
AcDbEntity
100
AcDbBlockEnd
0
ENDSEC
0
SECTION
2
ENTITIES
0
CIRCLE
5
100
100
AcDbEntity
8
0
100
AcDbCircle
10
136.65143626808563
20
248.23925972883114
30
-1.1102230246251565e-15
40
2.0499999999999856
0
LINE
5
101
100
AcDbEntity
8
0
100
AcDbLine
10
144.14657567468453
20
254.24533058174626
30
-1.1102230246251565e-15
11
129.14658059166976
21
254.23318523147896
31
-1.1102230246251556e-15
0
LINE
5
102
100
AcDbEntity
8
0
100
AcDbLine
10
129.14658059166976
20
254.23318523147896
30
-1.1102230246251556e-15
11
129.16977761441697
21
225.58393103216534
31
-1.1102230246251565e-15
0
ARC
5
103
100
AcDbEntity
8
0
100
AcDbCircle
10
125.16977892561283
20
225.58069227209413
30
-1.1102230246251565e-15
40
4.000000000000191
100
AcDbArc
50
-40.997161185084657
51
0.046391825800374528
0
SPLINE
5
104
100
AcDbEntity
8
0
100
AcDbSpline
70
1064
71
5
72
81
73
75
74
0
42
0.000000001
43
0.0000000001
44
0.0000000001
40
-1
40
-1
40
-1
40
-1
40
-1
40
-1
40
-0.9857142857142841
40
-0.97142857142856986
40
-0.95714285714285563
40
-0.94285714285714139
40
-0.92857142857142716
40
-0.91428571428571292
40
-0.89999999999999869
40
-0.88571428571428445
40
-0.87142857142857022
40
-0.85714285714285599
40
-0.84285714285714175
40
-0.82857142857142752
40
-0.81428571428571328
40
-0.79999999999999905
40
-0.78571428571428481
40
-0.77142857142857058
40
-0.75714285714285634
40
-0.74285714285714211
40
-0.72857142857142787
40
-0.71428571428571364
40
-0.6999999999999994
40
-0.68571428571428517
40
-0.67142857142857093
40
-0.6571428571428567
40
-0.64285714285714246
40
-0.62857142857142823
40
-0.61428571428571399
40
-0.59999999999999976
40
-0.58571428571428552
40
-0.57142857142857129
40
-0.55714285714285705
40
-0.54285714285714282
40
-0.52857142857142858
40
-0.51428571428571435
40
-0.50000000000000011
40
-0.48571428571428582
40
-0.47142857142857153
40
-0.45714285714285724
40
-0.44285714285714295
40
-0.42857142857142866
40
-0.41428571428571437
40
-0.40000000000000008
40
-0.38571428571428579
40
-0.3714285714285715
40
-0.35714285714285721
40
-0.34285714285714292
40
-0.32857142857142863
40
-0.31428571428571433
40
-0.30000000000000004
40
-0.28571428571428575
40
-0.27142857142857146
40
-0.25714285714285717
40
-0.24285714285714291
40
-0.22857142857142862
40
-0.21428571428571433
40
-0.20000000000000004
40
-0.18571428571428575
40
-0.17142857142857146
40
-0.15714285714285717
40
-0.14285714285714288
40
-0.12857142857142859
40
-0.1142857142857143
40
-0.10000000000000001
40
-0.085714285714285715
40
-0.071428571428571425
40
-0.057142857142857141
40
-0.042857142857142858
40
-0.028571428571428571
40
-0.014285714285714285
40
0
40
0
40
0
40
0
40
0
40
0
10
128.1887472649519
20
222.9566057327304
30
-1.1102230246251565e-15
10
128.17832172375782
20
222.9433594088982
30
-1.1102230246251565e-15
10
128.1575277762195
20
222.91684650444665
30
-1.1102230246251565e-15
10
128.12650825946892
20
222.87701637743933
30
-1.1102230246251565e-15
10
128.08549182674363
20
222.82378796011469
30
-1.1102230246251565e-15
10
128.03479369491686
20
222.75704974070354
30
-1.1102230246251565e-15
10
127.98466944165183
20
222.69010903682923
30
-1.1102230246251565e-15
10
127.93512114958661
20
222.62296658912413
30
-1.1102230246251565e-15
10
127.88615151648355
20
222.55562388689248
30
-1.1102230246251565e-15
10
127.83776388044471
20
222.48808347208652
30
-1.1102230246251565e-15
10
127.78996208657856
20
222.42034874803934
30
-1.1102230246251565e-15
10
127.74275031108363
20
222.35242365483404
30
-1.1102230246251565e-15
10
127.69613288827622
20
222.28431238046625
30
-1.1102230246251565e-15
10
127.65011414983707
20
222.21601908409116
30
-1.1102230246251565e-15
10
127.60469821099313
20
222.14754755300945
30
-1.1102230246251565e-15
10
127.55988896461344
20
222.07890116236734
30
-1.1102230246251565e-15
10
127.51569022624302
20
222.01008305931077
30
-1.1102230246251565e-15
10
127.47210583512521
20
221.9410962870752
30
-1.1102230246251565e-15
10
127.42913975936142
20
221.87194392428518
30
-1.1102230246251565e-15
10
127.38679621788611
20
221.80262924469346
30
-1.1102230246251565e-15
10
127.34507970914231
20
221.73315577788529
30
-1.1102230246251565e-15
10
127.30399490178118
20
221.66352721636179
30
-1.1102230246251565e-15
10
127.26354655010674
20
221.5937473594505
30
-1.1102230246251565e-15
10
127.22373940561278
20
221.52382004746474
30
-1.1102230246251565e-15
10
127.1845781003522
20
221.45374909210568
30
-1.1102230246251565e-15
10
127.14606711786855
20
221.38353823886806
30
-1.1102230246251565e-15
10
127.10821100273645
20
221.31319122037496
30
-1.1102230246251565e-15
10
127.07101452733289
20
221.2427117943142
30
-1.1102230246251565e-15
10
127.03448285818035
20
221.17210378625555
30
-1.1102230246251565e-15
10
126.99862174842613
20
221.10137113676913
30
-1.1102230246251565e-15
10
126.96343762361022
20
221.03051793178275
30
-1.1102230246251565e-15
10
126.92893719601807
20
220.9595483502348
30
-1.1102230246251565e-15
10
126.89512713069958
20
220.88846662308401
30
-1.1102230246251565e-15
10
126.86201370842392
20
220.81727699115046
30
-1.1102230246251565e-15
10
126.82960243310156
20
220.74598365889173
30
-1.1102230246251565e-15
10
126.79789780665845
20
220.67459076657005
30
-1.1102230246251565e-15
10
126.76690427695185
20
220.60310248807039
30
-1.1102230246251565e-15
10
126.73662707933499
20
220.53152311817809
30
-1.1102230246251565e-15
10
126.70707307201891
20
220.4598571604763
30
-1.1102230246251565e-15
10
126.67825167041555
20
220.38810942587503
30
-1.1102230246251565e-15
10
126.6501754496386
20
220.31628509895117
30
-1.1102230246251565e-15
10
126.62285804448688
20
220.24438953497511
30
-1.1102230246251565e-15
10
126.59631223449304
20
220.17242807648299
30
-1.1102230246251565e-15
10
126.5705480711683
20
220.10040587445786
30
-1.1102230246251565e-15
10
126.54557070132718
20
220.02832768101342
30
-1.1102230246251565e-15
10
126.52137911217274
20
219.95619773206948
30
-1.1102230246251565e-15
10
126.4979712966887
20
219.88402025271185
30
-1.1102230246251565e-15
10
126.47534895414238
20
219.8117999181668
30
-1.1102230246251565e-15
10
126.45352197056114
20
219.73954229443126
30
-1.1102230246251565e-15
10
126.43251392388873
20
219.66725437831963
30
-1.1102230246251565e-15
10
126.41236440368894
20
219.59494483126403
30
-1.1102230246251565e-15
10
126.39311684683656
20
219.52262281857946
30
-1.1102230246251565e-15
10
126.37480763846249
20
219.45029697084846
30
-1.1102230246251565e-15
10
126.35745611452799
20
219.37797443389604
30
-1.1102230246251565e-15
10
126.34105083634581
20
219.30565955769126
30
-1.1102230246251565e-15
10
126.32554784083545
20
219.23335374742658
30
-1.1102230246251565e-15
10
126.31090078092727
20
219.16105840945886
30
-1.1102230246251565e-15
10
126.2970874127177
20
219.0887775419103
30
-1.1102230246251565e-15
10
126.28413299022169
20
219.01652002966068
30
-1.1102230246251565e-15
10
126.27214594511356
20
218.94430312249224
30
-1.1102230246251565e-15
10
126.26131042891606
20
218.87215176270581
30
-1.1102230246251565e-15
10
126.25181597212746
20
218.80009189022275
30
-1.1102230246251565e-15
10
126.24379597500734
20
218.72814455557958
30
-1.1102230246251565e-15
10
126.23727557333565
20
218.65632103065988
30
-1.1102230246251565e-15
10
126.23208338713161
20
218.58461421366491
30
-1.1102230246251565e-15
10
126.22791445703535
20
218.51300547938041
30
-1.1102230246251565e-15
10
126.22450562338651
20
218.44148294999431
30
-1.1102230246251565e-15
10
126.22178800514064
20
218.37005753904003
30
-1.1102230246251565e-15
10
126.22002786123116
20
218.29877756778413
30
-1.1102230246251565e-15
10
126.22002735206406
20
218.22775011713972
30
-1.1102230246251565e-15
10
126.22293184099304
20
218.15711848597664
30
-1.1102230246251565e-15
10
126.22852053122749
20
218.10104476539959
30
-1.1102230246251565e-15
10
126.2349697765992
20
218.05928294980282
30
-1.1102230246251565e-15
10
126.24032677796799
20
218.03157861961353
30
-1.1102230246251565e-15
10
126.24326966125116
20
218.01776067529431
30
-1.1102230246251565e-15
0
LINE
5
105
100
AcDbEntity
8
0
100
AcDbLine
10
126.24326966125118
20
218.01776067529431
30
-1.1102230246251565e-15
11
126.62012642825268
21
216.24827635612337
31
-1.1102230246251565e-15
0
ARC
5
106
100
AcDbEntity
8
0
100
AcDbCircle
10
124.66399803452502
20
215.83166897830526
30
-1.1102230246251565e-15
40
2.000000000000008
100
AcDbArc
50
-68.695653705752463
51
12.022962580979589
0
ARC
5
107
100
AcDbEntity
8
0
100
AcDbCircle
10
129.18706509256066
20
204.23320162142949
30
-1.1102230246251565e-15
40
10.449199999999992
100
AcDbArc
50
111.30434629424781
51
113.78843735736059
0
ARC
5
108
100
AcDbEntity
8
0
100
AcDbCircle
10
124.16554776804443
20
215.62473112363347
30
-1.1102230246251565e-15
40
2.0000000000000036
100
AcDbArc
50
213.06982107062902
51
293.78843735736081
0
LINE
5
109
100
AcDbEntity
8
0
100
AcDbLine
10
122.48953527975607
20
214.53340984229533
30
-1.1102230246251567e-15
11
121.50234246526735
21
216.04950552715448
31
-1.1102230246251565e-15
0
SPLINE
5
110
100
AcDbEntity
8
0
100
AcDbSpline
70
1064
71
5
72
81
73
75
74
0
42
0.000000001
43
0.0000000001
44
0.0000000001
40
0
40
0
40
0
40
0
40
0
40
0
40
0.014285714285714285
40
0.028571428571428571
40
0.042857142857142858
40
0.057142857142857141
40
0.071428571428571425
40
0.085714285714285715
40
0.10000000000000001
40
0.1142857142857143
40
0.12857142857142859
40
0.14285714285714288
40
0.15714285714285717
40
0.17142857142857146
40
0.18571428571428575
40
0.20000000000000004
40
0.21428571428571433
40
0.22857142857142862
40
0.24285714285714291
40
0.25714285714285717
40
0.27142857142857146
40
0.28571428571428575
40
0.30000000000000004
40
0.31428571428571433
40
0.32857142857142863
40
0.34285714285714292
40
0.35714285714285721
40
0.3714285714285715
40
0.38571428571428579
40
0.40000000000000008
40
0.41428571428571437
40
0.42857142857142866
40
0.44285714285714295
40
0.45714285714285724
40
0.47142857142857153
40
0.48571428571428582
40
0.50000000000000011
40
0.51428571428571435
40
0.52857142857142858
40
0.54285714285714282
40
0.55714285714285705
40
0.57142857142857129
40
0.58571428571428552
40
0.59999999999999976
40
0.61428571428571399
40
0.62857142857142823
40
0.64285714285714246
40
0.6571428571428567
40
0.67142857142857093
40
0.68571428571428517
40
0.6999999999999994
40
0.71428571428571364
40
0.72857142857142787
40
0.74285714285714211
40
0.75714285714285634
40
0.77142857142857058
40
0.78571428571428481
40
0.79999999999999905
40
0.81428571428571328
40
0.82857142857142752
40
0.84285714285714175
40
0.85714285714285599
40
0.87142857142857022
40
0.88571428571428445
40
0.89999999999999869
40
0.91428571428571292
40
0.92857142857142716
40
0.94285714285714139
40
0.95714285714285563
40
0.97142857142856986
40
0.9857142857142841
40
1
40
1
40
1
40
1
40
1
40
1
10
121.50234246526733
20
216.04950552715445
30
-1.1102230246251565e-15
10
121.49463345355407
20
216.0613447537184
30
-1.1102230246251565e-15
10
121.47879366884436
20
216.08469702545483
30
-1.1102230246251565e-15
10
121.45376873847388
20
216.11874691338059
30
-1.1102230246251565e-15
10
121.41799986994013
20
216.16229095593187
30
-1.1102230246251565e-15
10
121.37002540687359
20
216.2142112243265
30
-1.1102230246251565e-15
10
121.31971978957074
20
216.26435345815267
30
-1.1102230246251565e-15
10
121.26799309119546
20
216.31342769868698
30
-1.1102230246251565e-15
10
121.21548744568967
20
216.36192648185667
30
-1.1102230246251565e-15
10
121.16242504499951
20
216.41000427287938
30
-1.1102230246251565e-15
10
121.10876499132928
20
216.457604582165
30
-1.1102230246251565e-15
10
121.05431309180852
20
216.50454941190915
30
-1.1102230246251565e-15
10
120.99884086576445
20
216.55063592303298
30
-1.1102230246251565e-15
10
120.94222229579664
20
216.59574774909737
30
-1.1102230246251565e-15
10
120.88448311010194
20
216.63989473503409
30
-1.1102230246251565e-15
10
120.8257323930936
20
216.68315650084764
30
-1.1102230246251565e-15
10
120.7661223178434
20
216.7256489691222
30
-1.1102230246251565e-15
10
120.70580055351169
20
216.76748495705863
30
-1.1102230246251565e-15
10
120.64485586578203
20
216.80872908382113
30
-1.1102230246251565e-15
10
120.58331237572293
20
216.84939296321258
30
-1.1102230246251565e-15
10
120.52115721168462
20
216.8894580184502
30
-1.1102230246251565e-15
10
120.45835865050719
20
216.92889043134616
30
-1.1102230246251565e-15
10
120.39488665120899
20
216.96765807299698
30
-1.1102230246251565e-15
10
120.33073621939495
20
217.00574977103435
30
-1.1102230246251565e-15
10
120.26592606653269
20
217.04317417549856
30
-1.1102230246251565e-15
10
120.2004879917156
20
217.07995096333957
30
-1.1102230246251565e-15
10
120.13445915101656
20
217.11610442841132
30
-1.1102230246251565e-15
10
120.06787362758226
20
217.15165649542774
30
-1.1102230246251565e-15
10
120.0007530220165
20
217.18661892401289
30
-1.1102230246251565e-15
10
119.93310825558942
20
217.22099478657921
30
-1.1102230246251565e-15
10
119.86494383915038
20
217.25478198610801
30
-1.1102230246251565e-15
10
119.79626134824559
20
217.28797611838331
30
-1.1102230246251565e-15
10
119.72706306797429
20
217.32057347569739
30
-1.1102230246251565e-15
10
119.65735599747454
20
217.35257434848063
30
-1.1102230246251565e-15
10
119.58715088090763
20
217.38398221933312
30
-1.1102230246251565e-15
10
119.51646052397857
20
217.41480236774973
30
-1.1102230246251565e-15
10
119.44529834519574
20
217.44504066997851
30
-1.1102230246251565e-15
10
119.37367689407765
20
217.47470237224749
30
-1.1102230246251565e-15
10
119.30160622486737
20
217.50379074671713
30
-1.1102230246251565e-15
10
119.22909436885973
20
217.53230747136868
30
-1.1102230246251565e-15
10
119.15614806379465
20
217.56025322219588
30
-1.1102230246251565e-15
10
119.0827734058427
20
217.58762820279881
30
-1.1102230246251565e-15
10
119.00897650553159
20
217.61443267880787
30
-1.1102230246251565e-15
10
118.9347642262173
20
217.6406675801905
30
-1.1102230246251565e-15
10
118.86014400544133
20
217.6663343614548
30
-1.1102230246251565e-15
10
118.78512354504778
20
217.69143475623753
30
-1.1102230246251565e-15
10
118.70971054338406
20
217.71597056835452
30
-1.1102230246251565e-15
10
118.63391243049152
20
217.7399434641957
30
-1.1102230246251565e-15
10
118.55773605877899
20
217.76335473654498
30
-1.1102230246251565e-15
10
118.48118778507194
20
217.78620534389449
30
-1.1102230246251565e-15
10
118.40427363986736
20
217.8084960135044
30
-1.1102230246251565e-15
10
118.32699947509042
20
217.83022732898846
30
-1.1102230246251565e-15
10
118.24937110869712
20
217.85139982164816
30
-1.1102230246251565e-15
10
118.17139451037602
20
217.87201408122769
30
-1.1102230246251565e-15
10
118.0930757544009
20
217.89207076186639
30
-1.1102230246251565e-15
10
118.01442088800118
20
217.91157054862825
30
-1.1102230246251565e-15
10
117.93543582227883
20
217.93051414132879
30
-1.1102230246251565e-15
10
117.85612623279016
20
217.94890223424576
30
-1.1102230246251565e-15
10
117.77649741657592
20
217.96673550430242
30
-1.1102230246251565e-15
10
117.69655435539876
20
217.98401458852192
30
-1.1102230246251565e-15
10
117.61630191498824
20
218.00074005764714
30
-1.1102230246251565e-15
10
117.53574501793848
20
218.01691239227978
30
-1.1102230246251565e-15
10
117.45488880291288
20
218.03253196682709
30
-1.1102230246251565e-15
10
117.37373885745941
20
218.04759902221664
30
-1.1102230246251565e-15
10
117.29230118530037
20
218.06211369016492
30
-1.1102230246251565e-15
10
117.21058181244486
20
218.07607608389469
30
-1.1102230246251565e-15
10
117.12858647769268
20
218.08948637965844
30
-1.1102230246251565e-15
10
117.04632030595351
20
218.10234489813806
30
-1.1102230246251565e-15
10
116.96378745413651
20
218.11465220902886
30
-1.1102230246251565e-15
10
116.88099088155717
20
218.12640917163316
30
-1.1102230246251565e-15
10
116.79793258302985
20
218.1376167381238
30
-1.1102230246251565e-15
10
116.73127751421842
20
218.14614398657432
30
-1.1102230246251565e-15
10
116.68116922755843
20
218.15229289256325
30
-1.1102230246251565e-15
10
116.64771172695042
20
218.15628263061848
30
-1.1102230246251565e-15
10
116.630969982609
20
218.15825011649224
30
-1.1102230246251565e-15
0
ARC
5
111
100
AcDbEntity
8
0
100
AcDbCircle
10
129.18706509256066
20
204.23320162142949
30
-1.1102230246251565e-15
40
18.750000000000014
100
AcDbArc
50
132.04070587732787
51
138.05207777428049
0
SPLINE
5
112
100
AcDbEntity
8
0
100
AcDbSpline
70
1064
71
5
72
81
73
75
74
0
42
0.000000001
43
0.0000000001
44
0.0000000001
40
-1
40
-1
40
-1
40
-1
40
-1
40
-1
40
-0.9857142857142841
40
-0.97142857142856986
40
-0.95714285714285563
40
-0.94285714285714139
40
-0.92857142857142716
40
-0.91428571428571292
40
-0.89999999999999869
40
-0.88571428571428445
40
-0.87142857142857022
40
-0.85714285714285599
40
-0.84285714285714175
40
-0.82857142857142752
40
-0.81428571428571328
40
-0.79999999999999905
40
-0.78571428571428481
40
-0.77142857142857058
40
-0.75714285714285634
40
-0.74285714285714211
40
-0.72857142857142787
40
-0.71428571428571364
40
-0.6999999999999994
40
-0.68571428571428517
40
-0.67142857142857093
40
-0.6571428571428567
40
-0.64285714285714246
40
-0.62857142857142823
40
-0.61428571428571399
40
-0.59999999999999976
40
-0.58571428571428552
40
-0.57142857142857129
40
-0.55714285714285705
40
-0.54285714285714282
40
-0.52857142857142858
40
-0.51428571428571435
40
-0.50000000000000011
40
-0.48571428571428582
40
-0.47142857142857153
40
-0.45714285714285724
40
-0.44285714285714295
40
-0.42857142857142866
40
-0.41428571428571437
40
-0.40000000000000008
40
-0.38571428571428579
40
-0.3714285714285715
40
-0.35714285714285721
40
-0.34285714285714292
40
-0.32857142857142863
40
-0.31428571428571433
40
-0.30000000000000004
40
-0.28571428571428575
40
-0.27142857142857146
40
-0.25714285714285717
40
-0.24285714285714291
40
-0.22857142857142862
40
-0.21428571428571433
40
-0.20000000000000004
40
-0.18571428571428575
40
-0.17142857142857146
40
-0.15714285714285717
40
-0.14285714285714288
40
-0.12857142857142859
40
-0.1142857142857143
40
-0.10000000000000001
40
-0.085714285714285715
40
-0.071428571428571425
40
-0.057142857142857141
40
-0.042857142857142858
40
-0.028571428571428571
40
-0.014285714285714285
40
0
40
0
40
0
40
0
40
0
40
0
10
115.24170177288214
20
216.76673032974486
30
-1.1102230246251565e-15
10
115.24369636741382
20
216.74999179346145
30
-1.1102230246251565e-15
10
115.24774028062848
20
216.71654079762283
30
-1.1102230246251565e-15
10
115.2539703228874
20
216.66644253407696
30
-1.1102230246251565e-15
10
115.26260550000936
20
216.59980136151475
30
-1.1102230246251565e-15
10
115.27394755471106
20
216.51676132119661
30
-1.1102230246251565e-15
10
115.28583858097238
20
216.43398389616408
30
-1.1102230246251565e-15
10
115.29827952773461
20
216.35147108277081
30
-1.1102230246251565e-15
10
115.31127124950663
20
216.26922584172002
30
-1.1102230246251565e-15
10
115.32481430925145
20
216.18725233083791
30
-1.1102230246251565e-15
10
115.33890901935135
20
216.10555567554673
30
-1.1102230246251565e-15
10
115.35355554676522
20
216.02414161492422
30
-1.1102230246251565e-15
10
115.36875399495742
20
215.94301617515492
30
-1.1102230246251565e-15
10
115.38450448592184
20
215.86218536016651
30
-1.1102230246251565e-15
10
115.40080725153743
20
215.7816547578899
30
-1.1102230246251565e-15
10
115.41766265788951
20
215.70142950758796
30
-1.1102230246251565e-15
10
115.4350711776076
20
215.62151453262661
30
-1.1102230246251565e-15
10
115.45303337355426
20
215.54191469965338
30
-1.1102230246251565e-15
10
115.47154987468461
20
215.46263499145593
30
-1.1102230246251565e-15
10
115.49062134934302
20
215.38368070616423
30
-1.1102230246251565e-15
10
115.51024848261545
20
215.30505752045147
30
-1.1102230246251565e-15
10
115.53043196474418
20
215.22677134654518
30
-1.1102230246251565e-15
10
115.55117247099957
20
215.14882823277614
30
-1.1102230246251565e-15
10
115.5724706456835
20
215.07123425446949
30
-1.1102230246251565e-15
10
115.59432706887222
20
214.99399538226103
30
-1.1102230246251565e-15
10
115.61674226244507
20
214.91711743495949
30
-1.1102230246251565e-15
10
115.63971680053854
20
214.84060626542743
30
-1.1102230246251565e-15
10
115.66325140064617
20
214.76446790533163
30
-1.1102230246251565e-15
10
115.68734701096469
20
214.68870871304148
30
-1.1102230246251565e-15
10
115.7120049131797
20
214.61333554305025
30
-1.1102230246251565e-15
10
115.73722676164695
20
214.5383558280881
30
-1.1102230246251565e-15
10
115.76301434771324
20
214.46377726941338
30
-1.1102230246251565e-15
10
115.78936939254092
20
214.38960757166754
30
-1.1102230246251565e-15
10
115.81629333859192
20
214.31585417473769
30
-1.1102230246251565e-15
10
115.84378710471812
20
214.24252394347687
30
-1.1102230246251565e-15
10
115.87185094665438
20
214.16962298883476
30
-1.1102230246251565e-15
10
115.90048505812838
20
214.09715740730383
30
-1.1102230246251565e-15
10
115.92969010422209
20
214.02513393770974
30
-1.1102230246251565e-15
10
115.95946774990881
20
213.95356061405411
30
-1.1102230246251565e-15
10
115.98982125106312
20
213.88244749586576
30
-1.1102230246251565e-15
10
116.02075583358364
20
213.81180714114231
30
-1.1102230246251565e-15
10
116.05227735198115
20
213.74165297789037
30
-1.1102230246251565e-15
10
116.08439106500629
20
213.67199782034777
30
-1.1102230246251565e-15
10
116.11710043785571
20
213.60285241830132
30
-1.1102230246251565e-15
10
116.15040574962509
20
213.53422377135021
30
-1.1102230246251565e-15
10
116.18430328891122
20
213.46611415858655
30
-1.1102230246251565e-15
10
116.21878864895243
20
213.39852514842227
30
-1.1102230246251565e-15
10
116.25385972542796
20
213.33146124830506
30
-1.1102230246251565e-15
10
116.28951957306066
20
213.2649333844661
30
-1.1102230246251565e-15
10
116.32577991647948
20
213.19896317652416
30
-1.1102230246251565e-15
10
116.36266262517609
20
213.13358474308569
30
-1.1102230246251565e-15
10
116.40019193280281
20
213.06883527951581
30
-1.1102230246251565e-15
10
116.43838746478905
20
213.00474661673064
30
-1.1102230246251565e-15
10
116.47725784086269
20
212.94133748018101
30
-1.1102230246251565e-15
10
116.51679189675789
20
212.87860285738606
30
-1.1102230246251565e-15
10
116.55695755226112
20
212.81651265537465
30
-1.1102230246251565e-15
10
116.59772104060076
20
212.75503509626395
30
-1.1102230246251565e-15
10
116.63906380586238
20
212.69415727833834
30
-1.1102230246251565e-15
10
116.68099742277246
20
212.63390334144168
30
-1.1102230246251565e-15
10
116.72358636666523
20
212.5743621557842
30
-1.1102230246251565e-15
10
116.76694321546115
20
212.51568157302646
30
-1.1102230246251565e-15
10
116.81118364516647
20
212.45801395376338
30
-1.1102230246251565e-15
10
116.85638709903219
20
212.40146851120016
30
-1.1102230246251565e-15
10
116.90256338031355
20
212.34607098944258
30
-1.1102230246251565e-15
10
116.94959632679391
20
212.2916951828141
30
-1.1102230246251565e-15
10
116.9972834696573
20
212.23811228246799
30
-1.1102230246251565e-15
10
117.0454471258048
20
212.18512780754241
30
-1.1102230246251565e-15
10
117.09403087194929
20
212.1327007688173
30
-1.1102230246251565e-15
10
117.14318881329288
20
212.08105360808517
30
-1.1102230246251565e-15
10
117.19341244525842
20
212.03082925604863
30
-1.1102230246251565e-15
10
117.24541033443764
20
211.98293893450452
30
-1.1102230246251565e-15
10
117.28901224326678
20
211.94724062720084
30
-1.1102230246251565e-15
10
117.32310261140577
20
211.9222708693336
30
-1.1102230246251565e-15
10
117.34648050314559
20
211.90646892158315
30
-1.1102230246251565e-15
10
117.35833219800151
20
211.89877909217881
30
-1.1102230246251565e-15
0
LINE
5
113
100
AcDbEntity
8
0
100
AcDbLine
10
117.35833219800151
20
211.89877909217881
30
-1.1102230246251565e-15
11
118.87602453477335
21
210.91404270637258
31
-1.1102230246251567e-15
0
ARC
5
114
100
AcDbEntity
8
0
100
AcDbCircle
10
117.7874187846445
20
209.23626515234869
30
-1.1102230246251565e-15
40
2.0000000000000062
100
AcDbArc
50
-23.695653705752555
51
57.022962580979183
0
ARC
5
115
100
AcDbEntity
8
0
100
AcDbCircle
10
129.18706509256066
20
204.23320162142949
30
-1.1102230246251565e-15
40
10.449200000000008
100
AcDbArc
50
156.30434629424772
51
158.78843735736072
0
ARC
5
116
100
AcDbEntity
8
0
100
AcDbCircle
10
117.58128838145446
20
208.73748042851338
30
-1.1102230246251565e-15
40
1.9999999999999905
100
AcDbArc
50
258.06982107062885
51
338.78843735736018
0
LINE
5
117
100
AcDbEntity
8
0
100
AcDbLine
10
117.16784926411981
20
206.780679954204
30
-1.1102230246251563e-15
11
115.39775699096464
21
207.15467076043188
31
-1.1102230246251565e-15
0
SPLINE
5
118
100
AcDbEntity
8
0
100
AcDbSpline
70
1064
71
5
72
81
73
75
74
0
42
0.000000001
43
0.0000000001
44
0.0000000001
40
0
40
0
40
0
40
0
40
0
40
0
40
0.014285714285714285
40
0.028571428571428571
40
0.042857142857142858
40
0.057142857142857141
40
0.071428571428571425
40
0.085714285714285715
40
0.10000000000000001
40
0.1142857142857143
40
0.12857142857142859
40
0.14285714285714288
40
0.15714285714285717
40
0.17142857142857146
40
0.18571428571428575
40
0.20000000000000004
40
0.21428571428571433
40
0.22857142857142862
40
0.24285714285714291
40
0.25714285714285717
40
0.27142857142857146
40
0.28571428571428575
40
0.30000000000000004
40
0.31428571428571433
40
0.32857142857142863
40
0.34285714285714292
40
0.35714285714285721
40
0.3714285714285715
40
0.38571428571428579
40
0.40000000000000008
40
0.41428571428571437
40
0.42857142857142866
40
0.44285714285714295
40
0.45714285714285724
40
0.47142857142857153
40
0.48571428571428582
40
0.50000000000000011
40
0.51428571428571435
40
0.52857142857142858
40
0.54285714285714282
40
0.55714285714285705
40
0.57142857142857129
40
0.58571428571428552
40
0.59999999999999976
40
0.61428571428571399
40
0.62857142857142823
40
0.64285714285714246
40
0.6571428571428567
40
0.67142857142857093
40
0.68571428571428517
40
0.6999999999999994
40
0.71428571428571364
40
0.72857142857142787
40
0.74285714285714211
40
0.75714285714285634
40
0.77142857142857058
40
0.78571428571428481
40
0.79999999999999905
40
0.81428571428571328
40
0.82857142857142752
40
0.84285714285714175
40
0.85714285714285599
40
0.87142857142857022
40
0.88571428571428445
40
0.89999999999999869
40
0.91428571428571292
40
0.92857142857142716
40
0.94285714285714139
40
0.95714285714285563
40
0.97142857142856986
40
0.9857142857142841
40
1
40
1
40
1
40
1
40
1
40
1
10
115.39775699096464
20
207.15467076043188
30
-1.1102230246251565e-15
10
115.38393429911862
20
207.15759126336056
30
-1.1102230246251565e-15
10
115.35622133023686
20
207.16290339388075
30
-1.1102230246251565e-15
10
115.31444912562225
20
207.16928500256799
30
-1.1102230246251565e-15
10
115.25836642835839
20
207.17478288084067
30
-1.1102230246251565e-15
10
115.18773018633738
20
207.17757298654544
30
-1.1102230246251565e-15
10
115.11670282964842
20
207.17745745698113
30
-1.1102230246251565e-15
10
115.04542580219548
20
207.17558188605497
30
-1.1102230246251565e-15
10
114.97400488574917
20
207.17274860652583
30
-1.1102230246251565e-15
10
114.90248797033846
20
207.16922395522843
30
-1.1102230246251565e-15
10
114.83088608102699
20
207.16493906888178
30
-1.1102230246251565e-15
10
114.75918776617364
20
207.1596307689359
30
-1.1102230246251565e-15
10
114.68737489443347
20
207.15299406626954
30
-1.1102230246251565e-15
10
114.61544064154631
20
207.14485756962605
30
-1.1102230246251565e-15
10
114.54339623867661
20
207.13524643300593
30
-1.1102230246251565e-15
10
114.47126252030759
20
207.12429409058262
30
-1.1102230246251565e-15
10
114.39906511940481
20
207.11219011461247
30
-1.1102230246251565e-15
10
114.32682868002524
20
207.09911869676785
30
-1.1102230246251565e-15
10
114.25457027633642
20
207.08518829651484
30
-1.1102230246251565e-15
10
114.1822987523107
20
207.07042418222323
30
-1.1102230246251565e-15
10
114.1100181420863
20
207.05480411649307
30
-1.1102230246251565e-15
10
114.03772992707172
20
207.03828175459302
30
-1.1102230246251565e-15
10
113.96543558365059
20
207.02081313577568
30
-1.1102230246251565e-15
10
113.89313948030969
20
207.00238682841305
30
-1.1102230246251565e-15
10
113.82084873155253
20
206.98302218001294
30
-1.1102230246251565e-15
10
113.74857190902895
20
206.96275558963464
30
-1.1102230246251565e-15
10
113.67631810770115
20
206.94163050893806
30
-1.1102230246251565e-15
10
113.60409592487939
20
206.91968654146135
30
-1.1102230246251565e-15
10
113.53191231918717
20
206.89694727644775
30
-1.1102230246251565e-15
10
113.45977284060503
20
206.87342260892513
30
-1.1102230246251565e-15
10
113.38768216160125
20
206.84911424572962
30
-1.1102230246251565e-15
10
113.31564451050623
20
206.82402018668952
30
-1.1102230246251565e-15
10
113.24366412487437
20
206.79813942586878
30
-1.1102230246251565e-15
10
113.17174574847846
20
206.7714771177707
30
-1.1102230246251565e-15
10
113.09989451601754
20
206.74404332223469
30
-1.1102230246251565e-15
10
113.02811574932599
20
206.7158508274282
30
-1.1102230246251565e-15
10
112.95641478158707
20
206.68691327680438
30
-1.1102230246251565e-15
10
112.88479677700715
20
206.65724325385628
30
-1.1102230246251565e-15
10
112.8132665312427
20
206.62685018177422
30
-1.1102230246251565e-15
10
112.74182853676494
20
206.59574092605311
30
-1.1102230246251565e-15
10
112.67048707987564
20
206.56392072899439
30
-1.1102230246251565e-15
10
112.59924632725139
20
206.53139404520851
30
-1.1102230246251565e-15
10
112.52811041185876
20
206.4981653833201
30
-1.1102230246251565e-15
10
112.45708352923685
20
206.46424025404104
30
-1.1102230246251565e-15
10
112.38616991002931
20
206.42962494499997
30
-1.1102230246251565e-15
10
112.31537377439595
20
206.39432612808929
30
-1.1102230246251565e-15
10
112.24469929040009
20
206.35835052235311
30
-1.1102230246251565e-15
10
112.17415053355865
20
206.3217045599396
30
-1.1102230246251565e-15
10
112.10373143512014
20
206.2843940003699
30
-1.1102230246251565e-15
10
112.03344581228268
20
206.24642401635455
30
-1.1102230246251565e-15
10
111.96329741500101
20
206.20779938634962
30
-1.1102230246251565e-15
10
111.89328996853382
20
206.16852466096819
30
-1.1102230246251565e-15
10
111.82342721111041
20
206.12860432981333
30
-1.1102230246251565e-15
10
111.75371294692587
20
206.08804303110446
30
-1.1102230246251565e-15
10
111.68415100859406
20
206.04684552254807
30
-1.1102230246251565e-15
10
111.61474518773846
20
206.00501656459454
30
-1.1102230246251565e-15
10
111.54549916929513
20
205.96256083186836
30
-1.1102230246251565e-15
10
111.47641647555987
20
205.91948282852252
30
-1.1102230246251565e-15
10
111.40750037344921
20
205.8757867787873
30
-1.1102230246251565e-15
10
111.33875393515768
20
205.83147665574444
30
-1.1102230246251565e-15
10
111.27018019769966
20
205.78655630356036
30
-1.1102230246251565e-15
10
111.20178230203807
20
205.74102954287153
30
-1.1102230246251565e-15
10
111.13356361701076
20
205.69490027200746
30
-1.1102230246251565e-15
10
111.06552792324921
20
205.64817261232287
30
-1.1102230246251565e-15
10
110.99767937288861
20
205.60085090222805
30
-1.1102230246251565e-15
10
110.93002214690026
20
205.55293948281548
30
-1.1102230246251565e-15
10
110.86256017859908
20
205.50444253665887
30
-1.1102230246251565e-15
10
110.79529686508712
20
205.45536391437278
30
-1.1102230246251565e-15
10
110.72823474290757
20
205.40570695817135
30
-1.1102230246251565e-15
10
110.66137529699405
20
205.35547436822515
30
-1.1102230246251565e-15
10
110.59471926460543
20
205.30466822836885
30
-1.1102230246251565e-15
10
110.54155733824417
20
205.26356565241602
30
-1.1102230246251565e-15
10
110.50177749583162
20
205.23248167624678
30
-1.1102230246251565e-15
10
110.47529829943615
20
205.21164482151931
30
-1.1102230246251565e-15
10
110.46206887588021
20
205.20119784316984
30
-1.1102230246251565e-15
0
ARC
5
119
100
AcDbEntity
8
0
100
AcDbCircle
10
129.18706509256066
20
204.23320162142949
30
-1.1102230246251565e-15
40
18.750000000000032
100
AcDbArc
50
177.04070587732795
51
183.05207777428046
0
SPLINE
5
120
100
AcDbEntity
8
0
100
AcDbSpline
70
1064
71
5
72
81
73
75
74
0
42
0.000000001
43
0.0000000001
44
0.0000000001
40
-1
40
-1
40
-1
40
-1
40
-1
40
-1
40
-0.9857142857142841
40
-0.97142857142856986
40
-0.95714285714285563
40
-0.94285714285714139
40
-0.92857142857142716
40
-0.91428571428571292
40
-0.89999999999999869
40
-0.88571428571428445
40
-0.87142857142857022
40
-0.85714285714285599
40
-0.84285714285714175
40
-0.82857142857142752
40
-0.81428571428571328
40
-0.79999999999999905
40
-0.78571428571428481
40
-0.77142857142857058
40
-0.75714285714285634
40
-0.74285714285714211
40
-0.72857142857142787
40
-0.71428571428571364
40
-0.6999999999999994
40
-0.68571428571428517
40
-0.67142857142857093
40
-0.6571428571428567
40
-0.64285714285714246
40
-0.62857142857142823
40
-0.61428571428571399
40
-0.59999999999999976
40
-0.58571428571428552
40
-0.57142857142857129
40
-0.55714285714285705
40
-0.54285714285714282
40
-0.52857142857142858
40
-0.51428571428571435
40
-0.50000000000000011
40
-0.48571428571428582
40
-0.47142857142857153
40
-0.45714285714285724
40
-0.44285714285714295
40
-0.42857142857142866
40
-0.41428571428571437
40
-0.40000000000000008
40
-0.38571428571428579
40
-0.3714285714285715
40
-0.35714285714285721
40
-0.34285714285714292
40
-0.32857142857142863
40
-0.31428571428571433
40
-0.30000000000000004
40
-0.28571428571428575
40
-0.27142857142857146
40
-0.25714285714285717
40
-0.24285714285714291
40
-0.22857142857142862
40
-0.21428571428571433
40
-0.20000000000000004
40
-0.18571428571428575
40
-0.17142857142857146
40
-0.15714285714285717
40
-0.14285714285714288
40
-0.12857142857142859
40
-0.1142857142857143
40
-0.10000000000000001
40
-0.085714285714285715
40
-0.071428571428571425
40
-0.057142857142857141
40
-0.042857142857142858
40
-0.028571428571428571
40
-0.014285714285714285
40
0
40
0
40
0
40
0
40
0
40
0
10
110.46366098125978
20
203.23488379382073
30
-1.1102230246251565e-15
10
110.47690730509196
20
203.22445825262665
30
-1.1102230246251565e-15
10
110.50342020954353
20
203.20366430508835
30
-1.1102230246251565e-15
10
110.54325033655084
20
203.17264478833778
30
-1.1102230246251565e-15
10
110.59647875387549
20
203.13162835561246
30
-1.1102230246251565e-15
10
110.66321697328661
20
203.08093022378563
30
-1.1102230246251565e-15
10
110.73015767716093
20
203.03080597052065
30
-1.1102230246251565e-15
10
110.79730012486606
20
202.98125767845545
30
-1.1102230246251565e-15
10
110.86464282709767
20
202.93228804535235
30
-1.1102230246251565e-15
10
110.93218324190367
20
202.88390040931353
30
-1.1102230246251565e-15
10
110.9999179659508
20
202.83609861544738
30
-1.1102230246251565e-15
10
111.0678430591561
20
202.78888683995245
30
-1.1102230246251565e-15
10
111.13595433352393
20
202.74226941714505
30
-1.1102230246251565e-15
10
111.204247629899
20
202.69625067870589
30
-1.1102230246251565e-15
10
111.27271916098074
20
202.65083473986195
30
-1.1102230246251565e-15
10
111.34136555162286
20
202.60602549348226
30
-1.1102230246251565e-15
10
111.41018365467941
20
202.56182675511184
30
-1.1102230246251565e-15
10
111.47917042691498
20
202.51824236399409
30
-1.1102230246251565e-15
10
111.54832278970501
20
202.47527628823025
30
-1.1102230246251565e-15
10
111.61763746929668
20
202.43293274675494
30
-1.1102230246251565e-15
10
111.68711093610486
20
202.39121623801114
30
-1.1102230246251565e-15
10
111.75673949762837
20
202.35013143065004
30
-1.1102230246251565e-15
10
111.82651935453967
20
202.30968307897558
30
-1.1102230246251565e-15
10
111.89644666652542
20
202.2698759344816
30
-1.1102230246251565e-15
10
111.96651762188449
20
202.23071462922104
30
-1.1102230246251565e-15
10
112.03672847512208
20
202.19220364673737
30
-1.1102230246251565e-15
10
112.10707549361521
20
202.15434753160525
30
-1.1102230246251565e-15
10
112.17755491967597
20
202.11715105620172
30
-1.1102230246251565e-15
10
112.24816292773465
20
202.08061938704924
30
-1.1102230246251565e-15
10
112.31889557722104
20
202.04475827729496
30
-1.1102230246251565e-15
10
112.38974878220745
20
202.00957415247902
30
-1.1102230246251565e-15
10
112.46071836375536
20
201.97507372488695
30
-1.1102230246251565e-15
10
112.53180009090613
20
201.94126365956839
30
-1.1102230246251565e-15
10
112.60298972283974
20
201.90815023729272
30
-1.1102230246251565e-15
10
112.67428305509846
20
201.8757389619704
30
-1.1102230246251565e-15
10
112.7456759474201
20
201.84403433552731
30
-1.1102230246251565e-15
10
112.81716422591978
20
201.81304080582066
30
-1.1102230246251565e-15
10
112.88874359581209
20
201.78276360820382
30
-1.1102230246251565e-15
10
112.96040955351386
20
201.75320960088777
30
-1.1102230246251565e-15
10
113.03215728811514
20
201.72438819928436
30
-1.1102230246251565e-15
10
113.10398161503898
20
201.69631197850742
30
-1.1102230246251565e-15
10
113.17587717901506
20
201.66899457335572
30
-1.1102230246251565e-15
10
113.24783863750721
20
201.64244876336187
30
-1.1102230246251565e-15
10
113.31986083953231
20
201.61668460003713
30
-1.1102230246251565e-15
10
113.39193903297675
20
201.59170723019602
30
-1.1102230246251565e-15
10
113.4640689819207
20
201.56751564104158
30
-1.1102230246251565e-15
10
113.53624646127832
20
201.54410782555757
30
-1.1102230246251565e-15
10
113.60846679582338
20
201.52148548301119
30
-1.1102230246251565e-15
10
113.68072441955891
20
201.49965849942998
30
-1.1102230246251565e-15
10
113.75301233567055
20
201.47865045275753
30
-1.1102230246251565e-15
10
113.82532188272614
20
201.45850093255777
30
-1.1102230246251565e-15
10
113.89764389541071
20
201.43925337570545
30
-1.1102230246251565e-15
10
113.96996974314176
20
201.4209441673313
30
-1.1102230246251565e-15
10
114.04229228009413
20
201.40359264339682
30
-1.1102230246251565e-15
10
114.11460715629893
20
201.38718736521466
30
-1.1102230246251565e-15
10
114.18691296656361
20
201.3716843697043
30
-1.1102230246251565e-15
10
114.2592083045313
20
201.35703730979611
30
-1.1102230246251565e-15
10
114.33148917207986
20
201.34322394158653
30
-1.1102230246251565e-15
10
114.40374668432946
20
201.33026951909051
30
-1.1102230246251565e-15
10
114.47596359149792
20
201.31828247398238
30
-1.1102230246251565e-15
10
114.54811495128438
20
201.30744695778489
30
-1.1102230246251565e-15
10
114.62017482376743
20
201.2979525009963
30
-1.1102230246251565e-15
10
114.69212215841057
20
201.2899325038762
30
-1.1102230246251565e-15
10
114.76394568333029
20
201.28341210220452
30
-1.1102230246251565e-15
10
114.83565250032524
20
201.27821991600044
30
-1.1102230246251565e-15
10
114.90726123460975
20
201.27405098590418
30
-1.1102230246251565e-15
10
114.97878376399584
20
201.27064215225533
30
-1.1102230246251565e-15
10
115.05020917495014
20
201.2679245340095
30
-1.1102230246251565e-15
10
115.12148914620605
20
201.26616439009996
30
-1.1102230246251565e-15
10
115.19251659685042
20
201.26616388093294
30
-1.1102230246251565e-15
10
115.26314822801352
20
201.26906836986188
30
-1.1102230246251565e-15
10
115.31922194859061
20
201.27465706009633
30
-1.1102230246251565e-15
10
115.36098376418734
20
201.28110630546803
30
-1.1102230246251565e-15
10
115.38868809437666
20
201.28646330683682
30
-1.1102230246251565e-15
10
115.40250603869583
20
201.28940619011999
30
-1.1102230246251565e-15
0
LINE
5
121
100
AcDbEntity
8
0
100
AcDbLine
10
115.40250603869586
20
201.28940619011999
30
-1.1102230246251565e-15
11
117.17199035786678
21
201.66626295712149
31
-1.1102230246251565e-15
0
ARC
5
122
100
AcDbEntity
8
0
100
AcDbCircle
10
117.5885977356849
20
199.71013456339386
30
-1.1102230246251565e-15
40
2.0000000000000147
100
AcDbArc
50
21.304346294247743
51
102.02296258098016
0
ARC
5
123
100
AcDbEntity
8
0
100
AcDbCircle
10
129.18706509256066
20
204.23320162142949
30
-1.1102230246251565e-15
40
10.449199999999985
100
AcDbArc
50
201.30434629424767
51
203.78843735736072
0
ARC
5
124
100
AcDbEntity
8
0
100
AcDbCircle
10
117.79553559035669
20
199.21168429691329
30
-1.1102230246251565e-15
40
2.000000000000008
100
AcDbArc
50
-56.930178929370612
51
23.788437357359477
0
LINE
5
125
100
AcDbEntity
8
0
100
AcDbLine
10
118.88685687169485
20
197.53567180862493
30
-1.1102230246251565e-15
11
117.37076118683568
21
196.54847899413619
31
-1.1102230246251565e-15
0
SPLINE
5
126
100
AcDbEntity
8
0
100
AcDbSpline
70
1064
71
5
72
81
73
75
74
0
42
0.000000001
43
0.0000000001
44
0.0000000001
40
0
40
0
40
0
40
0
40
0
40
0
40
0.014285714285714285
40
0.028571428571428571
40
0.042857142857142858
40
0.057142857142857141
40
0.071428571428571425
40
0.085714285714285715
40
0.10000000000000001
40
0.1142857142857143
40
0.12857142857142859
40
0.14285714285714288
40
0.15714285714285717
40
0.17142857142857146
40
0.18571428571428575
40
0.20000000000000004
40
0.21428571428571433
40
0.22857142857142862
40
0.24285714285714291
40
0.25714285714285717
40
0.27142857142857146
40
0.28571428571428575
40
0.30000000000000004
40
0.31428571428571433
40
0.32857142857142863
40
0.34285714285714292
40
0.35714285714285721
40
0.3714285714285715
40
0.38571428571428579
40
0.40000000000000008
40
0.41428571428571437
40
0.42857142857142866
40
0.44285714285714295
40
0.45714285714285724
40
0.47142857142857153
40
0.48571428571428582
40
0.50000000000000011
40
0.51428571428571435
40
0.52857142857142858
40
0.54285714285714282
40
0.55714285714285705
40
0.57142857142857129
40
0.58571428571428552
40
0.59999999999999976
40
0.61428571428571399
40
0.62857142857142823
40
0.64285714285714246
40
0.6571428571428567
40
0.67142857142857093
40
0.68571428571428517
40
0.6999999999999994
40
0.71428571428571364
40
0.72857142857142787
40
0.74285714285714211
40
0.75714285714285634
40
0.77142857142857058
40
0.78571428571428481
40
0.79999999999999905
40
0.81428571428571328
40
0.82857142857142752
40
0.84285714285714175
40
0.85714285714285599
40
0.87142857142857022
40
0.88571428571428445
40
0.89999999999999869
40
0.91428571428571292
40
0.92857142857142716
40
0.94285714285714139
40
0.95714285714285563
40
0.97142857142856986
40
0.9857142857142841
40
1
40
1
40
1
40
1
40
1
40
1
10
117.37076118683569
20
196.54847899413619
30
-1.1102230246251565e-15
10
117.3589219602718
20
196.54076998242292
30
-1.1102230246251565e-15
10
117.33556968853532
20
196.52493019771322
30
-1.1102230246251565e-15
10
117.3015198006096
20
196.49990526734271
30
-1.1102230246251565e-15
10
117.25797575805829
20
196.46413639880899
30
-1.1102230246251565e-15
10
117.20605548966368
20
196.41616193574242
30
-1.1102230246251565e-15
10
117.1559132558375
20
196.3658563184396
30
-1.1102230246251565e-15
10
117.10683901530317
20
196.31412962006431
30
-1.1102230246251565e-15
10
117.05834023213349
20
196.26162397455855
30
-1.1102230246251565e-15
10
117.01026244111077
20
196.20856157386837
30
-1.1102230246251565e-15
10
116.96266213182517
20
196.15490152019811
30
-1.1102230246251565e-15
10
116.91571730208102
20
196.10044962067735
30
-1.1102230246251565e-15
10
116.86963079095717
20
196.04497739463326
30
-1.1102230246251565e-15
10
116.8245189648928
20
195.98835882466548
30
-1.1102230246251565e-15
10
116.78037197895608
20
195.93061963897077
30
-1.1102230246251565e-15
10
116.73711021314254
20
195.87186892196246
30
-1.1102230246251565e-15
10
116.69461774486797
20
195.81225884671224
30
-1.1102230246251565e-15
10
116.65278175693153
20
195.75193708238049
30
-1.1102230246251565e-15
10
116.61153763016904
20
195.69099239465089
30
-1.1102230246251565e-15
10
116.57087375077757
20
195.62944890459178
30
-1.1102230246251565e-15
10
116.53080869553995
20
195.56729374055345
30
-1.1102230246251565e-15
10
116.49137628264404
20
195.50449517937602
30
-1.1102230246251565e-15
10
116.4526086409932
20
195.44102318007785
30
-1.1102230246251565e-15
10
116.41451694295581
20
195.37687274826374
30
-1.1102230246251565e-15
10
116.37709253849161
20
195.31206259540153
30
-1.1102230246251565e-15
10
116.3403157506506
20
195.24662452058439
30
-1.1102230246251565e-15
10
116.30416228557888
20
195.18059567988541
30
-1.1102230246251565e-15
10
116.26861021856243
20
195.11401015645109
30
-1.1102230246251565e-15
10
116.23364778997728
20
195.04688955088534
30
-1.1102230246251565e-15
10
116.19927192741096
20
194.97924478445825
30
-1.1102230246251565e-15
10
116.16548472788216
20
194.91108036801919
30
-1.1102230246251565e-15
10
116.13229059560688
20
194.84239787711442
30
-1.1102230246251565e-15
10
116.09969323829277
20
194.77319959684311
30
-1.1102230246251565e-15
10
116.06769236550954
20
194.70349252634338
30
-1.1102230246251565e-15
10
116.03628449465704
20
194.63328740977644
30
-1.1102230246251565e-15
10
116.00546434624047
20
194.56259705284739
30
-1.1102230246251565e-15
10
115.97522604401165
20
194.49143487406459
30
-1.1102230246251565e-15
10
115.94556434174271
20
194.4198134229465
30
-1.1102230246251565e-15
10
115.91647596727304
20
194.34774275373616
30
-1.1102230246251565e-15
10
115.88795924262151
20
194.27523089772853
30
-1.1102230246251565e-15
10
115.86001349179426
20
194.20228459266349
30
-1.1102230246251565e-15
10
115.83263851119136
20
194.12890993471152
30
-1.1102230246251565e-15
10
115.80583403518233
20
194.05511303440045
30
-1.1102230246251565e-15
10
115.77959913379969
20
193.98090075508617
30
-1.1102230246251565e-15
10
115.7539323525354
20
193.90628053431016
30
-1.1102230246251565e-15
10
115.72883195775262
20
193.83126007391664
30
-1.1102230246251565e-15
10
115.70429614563564
20
193.75584707225289
30
-1.1102230246251565e-15
10
115.68032324979447
20
193.68004895936036
30
-1.1102230246251565e-15
10
115.65691197744519
20
193.6038725876478
30
-1.1102230246251565e-15
10
115.63406137009567
20
193.52732431394077
30
-1.1102230246251565e-15
10
115.61177070048575
20
193.45041016873623
30
-1.1102230246251565e-15
10
115.59003938500169
20
193.37313600395927
30
-1.1102230246251565e-15
10
115.56886689234202
20
193.29550763756598
30
-1.1102230246251565e-15
10
115.54825263276248
20
193.21753103924488
30
-1.1102230246251565e-15
10
115.52819595212378
20
193.13921228326976
30
-1.1102230246251565e-15
10
115.5086961653619
20
193.06055741687004
30
-1.1102230246251565e-15
10
115.48975257266136
20
192.98157235114769
30
-1.1102230246251565e-15
10
115.47136447974438
20
192.90226276165899
30
-1.1102230246251565e-15
10
115.45353120968778
20
192.82263394544481
30
-1.1102230246251565e-15
10
115.43625212546827
20
192.7426908842676
30
-1.1102230246251565e-15
10
115.41952665634304
20
192.6624384438571
30
-1.1102230246251565e-15
10
115.40335432171035
20
192.58188154680735
30
-1.1102230246251565e-15
10
115.38773474716308
20
192.5010253317817
30
-1.1102230246251565e-15
10
115.3726676917735
20
192.41987538632827
30
-1.1102230246251565e-15
10
115.35815302382525
20
192.33843771416923
30
-1.1102230246251565e-15
10
115.34419063009551
20
192.25671834131367
30
-1.1102230246251565e-15
10
115.33078033433172
20
192.17472300656152
30
-1.1102230246251565e-15
10
115.31792181585216
20
192.09245683482234
30
-1.1102230246251565e-15
10
115.30561450496134
20
192.00992398300536
30
-1.1102230246251565e-15
10
115.29385754235702
20
191.92712741042598
30
-1.1102230246251565e-15
10
115.28264997586635
20
191.84406911189868
30
-1.1102230246251565e-15
10
115.27412272741583
20
191.77741404308728
30
-1.1102230246251565e-15
10
115.26797382142692
20
191.72730575642728
30
-1.1102230246251565e-15
10
115.26398408337171
20
191.69384825581926
30
-1.1102230246251565e-15
10
115.26201659749793
20
191.67710651147786
30
-1.1102230246251565e-15
0
ARC
5
127
100
AcDbEntity
8
0
100
AcDbCircle
10
129.18706509256066
20
204.23320162142949
30
-1.1102230246251565e-15
40
18.750000000000043
100
AcDbArc
50
222.04070587732781
51
228.05207777428043
0
SPLINE
5
128
100
AcDbEntity
8
0
100
AcDbSpline
70
1064
71
5
72
81
73
75
74
0
42
0.000000001
43
0.0000000001
44
0.0000000001
40
-1
40
-1
40
-1
40
-1
40
-1
40
-1
40
-0.9857142857142841
40
-0.97142857142856986
40
-0.95714285714285563
40
-0.94285714285714139
40
-0.92857142857142716
40
-0.91428571428571292
40
-0.89999999999999869
40
-0.88571428571428445
40
-0.87142857142857022
40
-0.85714285714285599
40
-0.84285714285714175
40
-0.82857142857142752
40
-0.81428571428571328
40
-0.79999999999999905
40
-0.78571428571428481
40
-0.77142857142857058
40
-0.75714285714285634
40
-0.74285714285714211
40
-0.72857142857142787
40
-0.71428571428571364
40
-0.6999999999999994
40
-0.68571428571428517
40
-0.67142857142857093
40
-0.6571428571428567
40
-0.64285714285714246
40
-0.62857142857142823
40
-0.61428571428571399
40
-0.59999999999999976
40
-0.58571428571428552
40
-0.57142857142857129
40
-0.55714285714285705
40
-0.54285714285714282
40
-0.52857142857142858
40
-0.51428571428571435
40
-0.50000000000000011
40
-0.48571428571428582
40
-0.47142857142857153
40
-0.45714285714285724
40
-0.44285714285714295
40
-0.42857142857142866
40
-0.41428571428571437
40
-0.40000000000000008
40
-0.38571428571428579
40
-0.3714285714285715
40
-0.35714285714285721
40
-0.34285714285714292
40
-0.32857142857142863
40
-0.31428571428571433
40
-0.30000000000000004
40
-0.28571428571428575
40
-0.27142857142857146
40
-0.25714285714285717
40
-0.24285714285714291
40
-0.22857142857142862
40
-0.21428571428571433
40
-0.20000000000000004
40
-0.18571428571428575
40
-0.17142857142857146
40
-0.15714285714285717
40
-0.14285714285714288
40
-0.12857142857142859
40
-0.1142857142857143
40
-0.10000000000000001
40
-0.085714285714285715
40
-0.071428571428571425
40
-0.057142857142857141
40
-0.042857142857142858
40
-0.028571428571428571
40
-0.014285714285714285
40
0
40
0
40
0
40
0
40
0
40
0
10
116.65353638424531
20
190.28783830175101
30
-1.1102230246251565e-15
10
116.6702749205287
20
190.28983289628269
30
-1.1102230246251565e-15
10
116.70372591636733
20
190.29387680949731
30
-1.1102230246251565e-15
10
116.75382417991321
20
190.30010685175625
30
-1.1102230246251565e-15
10
116.82046535247544
20
190.30874202887819
30
-1.1102230246251565e-15
10
116.90350539279356
20
190.3200840835799
30
-1.1102230246251565e-15
10
116.98628281782611
20
190.33197510984124
30
-1.1102230246251565e-15
10
117.06879563121936
20
190.34441605660345
30
-1.1102230246251565e-15
10
117.15104087227017
20
190.35740777837546
30
-1.1102230246251565e-15
10
117.23301438315229
20
190.37095083812031
30
-1.1102230246251565e-15
10
117.31471103844345
20
190.38504554822015
30
-1.1102230246251565e-15
10
117.39612509906598
20
190.39969207563402
30
-1.1102230246251565e-15
10
117.47725053883526
20
190.41489052382627
30
-1.1102230246251565e-15
10
117.55808135382365
20
190.43064101479069
30
-1.1102230246251565e-15
10
117.63861195610028
20
190.44694378040629
30
-1.1102230246251565e-15
10
117.71883720640221
20
190.46379918675837
30
-1.1102230246251565e-15
10
117.79875218136354
20
190.48120770647643
30
-1.1102230246251565e-15
10
117.87835201433678
20
190.49916990242309
30
-1.1102230246251565e-15
10
117.95763172253423
20
190.51768640355345
30
-1.1102230246251565e-15
10
118.03658600782592
20
190.53675787821186
30
-1.1102230246251565e-15
10
118.11520919353867
20
190.55638501148428
30
-1.1102230246251565e-15
10
118.193495367445
20
190.57656849361302
30
-1.1102230246251565e-15
10
118.27143848121403
20
190.59730899986843
30
-1.1102230246251565e-15
10
118.34903245952066
20
190.61860717455232
30
-1.1102230246251565e-15
10
118.42627133172917
20
190.64046359774107
30
-1.1102230246251565e-15
10
118.50314927903069
20
190.66287879131391
30
-1.1102230246251565e-15
10
118.57966044856275
20
190.68585332940739
30
-1.1102230246251565e-15
10
118.65579880865852
20
190.70938792951497
30
-1.1102230246251565e-15
10
118.7315580009487
20
190.73348353983357
30
-1.1102230246251565e-15
10
118.80693117093992
20
190.75814144204853
30
-1.1102230246251565e-15
10
118.88191088590206
20
190.78336329051581
30
-1.1102230246251565e-15
10
118.95648944457679
20
190.80915087658209
30
-1.1102230246251565e-15
10
119.03065914232265
20
190.83550592140978
30
-1.1102230246251565e-15
10
119.10441253925245
20
190.86242986746075
30
-1.1102230246251565e-15
10
119.17774277051333
20
190.88992363358696
30
-1.1102230246251565e-15
10
119.25064372515538
20
190.9179874755232
30
-1.1102230246251565e-15
10
119.32310930668633
20
190.94662158699722
30
-1.1102230246251565e-15
10
119.39513277628043
20
190.97582663309095
30
-1.1102230246251565e-15
10
119.46670609993603
20
191.00560427877767
30
-1.1102230246251565e-15
10
119.53781921812441
20
191.03595777993195
30
-1.1102230246251565e-15
10
119.60845957284788
20
191.06689236245245
30
-1.1102230246251565e-15
10
119.67861373609979
20
191.09841388084999
30
-1.1102230246251565e-15
10
119.74826889364239
20
191.13052759387514
30
-1.1102230246251565e-15
10
119.81741429568885
20
191.16323696672455
30
-1.1102230246251565e-15
10
119.88604294263996
20
191.19654227849395
30
-1.1102230246251565e-15
10
119.95415255540365
20
191.23043981778008
30
-1.1102230246251565e-15
10
120.02174156556789
20
191.26492517782125
30
-1.1102230246251565e-15
10
120.08880546568513
20
191.29999625429679
30
-1.1102230246251565e-15
10
120.15533332952404
20
191.33565610192949
30
-1.1102230246251565e-15
10
120.22130353746601
20
191.37191644534835
30
-1.1102230246251565e-15
10
120.28668197090448
20
191.40879915404494
30
-1.1102230246251565e-15
10
120.35143143447436
20
191.44632846167167
30
-1.1102230246251565e-15
10
120.41552009725953
20
191.48452399365789
30
-1.1102230246251565e-15
10
120.47892923380915
20
191.52339436973153
30
-1.1102230246251565e-15
10
120.54166385660409
20
191.56292842562675
30
-1.1102230246251565e-15
10
120.60375405861552
20
191.60309408112997
30
-1.1102230246251565e-15
10
120.66523161772621
20
191.64385756946959
30
-1.1102230246251565e-15
10
120.72610943565181
20
191.68520033473123
30
-1.1102230246251565e-15
10
120.78636337254848
20
191.72713395164129
30
-1.1102230246251565e-15
10
120.84590455820596
20
191.76972289553407
30
-1.1102230246251565e-15
10
120.90458514096369
20
191.81307974433
30
-1.1102230246251565e-15
10
120.96225276022679
20
191.85732017403529
30
-1.1102230246251565e-15
10
121.01879820279001
20
191.90252362790102
30
-1.1102230246251565e-15
10
121.07419572454759
20
191.94869990918238
30
-1.1102230246251565e-15
10
121.12857153117608
20
191.99573285566277
30
-1.1102230246251565e-15
10
121.18215443152221
20
192.04341999852616
30
-1.1102230246251565e-15
10
121.23513890644774
20
192.09158365467363
30
-1.1102230246251565e-15
10
121.28756594517286
20
192.14016740081814
30
-1.1102230246251565e-15
10
121.33921310590497
20
192.18932534216174
30
-1.1102230246251565e-15
10
121.38943745794151
20
192.23954897412727
30
-1.1102230246251565e-15
10
121.43732777948564
20
192.29154686330648
30
-1.1102230246251565e-15
10
121.4730260867893
20
192.33514877213562
30
-1.1102230246251565e-15
10
121.49799584465657
20
192.3692391402746
30
-1.1102230246251565e-15
10
121.51379779240698
20
192.39261703201441
30
-1.1102230246251565e-15
10
121.52148762181136
20
192.40446872687033
30
-1.1102230246251565e-15
0
LINE
5
129
100
AcDbEntity
8
0
100
AcDbLine
10
121.52148762181136
20
192.40446872687033
30
-1.1102230246251565e-15
11
122.50622400761758
21
193.92216106364216
31
-1.1102230246251565e-15
0
ARC
5
130
100
AcDbEntity
8
0
100
AcDbCircle
10
124.18400156164148
20
192.83355531351333
30
-1.1102230246251565e-15
40
2.0000000000000222
100
AcDbArc
50
66.30434629424758
51
147.02296258097977
0
ARC
5
131
100
AcDbEntity
8
0
100
AcDbCircle
10
129.18706509256066
20
204.23320162142949
30
-1.1102230246251565e-15
40
10.449199999999992
100
AcDbArc
50
246.30434629424781
51
248.78843735736064
0
ARC
5
132
100
AcDbEntity
8
0
100
AcDbCircle
10
124.68278628547678
20
192.6274249103233
30
-1.1102230246251565e-15
40
2.0000000000000115
100
AcDbArc
50
-11.930178929371321
51
68.788437357360706
0
LINE
5
133
100
AcDbEntity
8
0
100
AcDbLine
10
126.6395867597862
20
192.21398579298864
30
-1.1102230246251565e-15
11
126.26559595355828
21
190.44389351983347
31
-1.1102230246251565e-15
0
SPLINE
5
134
100
AcDbEntity
8
0
100
AcDbSpline
70
1064
71
5
72
81
73
75
74
0
42
0.000000001
43
0.0000000001
44
0.0000000001
40
0
40
0
40
0
40
0
40
0
40
0
40
0.014285714285714285
40
0.028571428571428571
40
0.042857142857142858
40
0.057142857142857141
40
0.071428571428571425
40
0.085714285714285715
40
0.10000000000000001
40
0.1142857142857143
40
0.12857142857142859
40
0.14285714285714288
40
0.15714285714285717
40
0.17142857142857146
40
0.18571428571428575
40
0.20000000000000004
40
0.21428571428571433
40
0.22857142857142862
40
0.24285714285714291
40
0.25714285714285717
40
0.27142857142857146
40
0.28571428571428575
40
0.30000000000000004
40
0.31428571428571433
40
0.32857142857142863
40
0.34285714285714292
40
0.35714285714285721
40
0.3714285714285715
40
0.38571428571428579
40
0.40000000000000008
40
0.41428571428571437
40
0.42857142857142866
40
0.44285714285714295
40
0.45714285714285724
40
0.47142857142857153
40
0.48571428571428582
40
0.50000000000000011
40
0.51428571428571435
40
0.52857142857142858
40
0.54285714285714282
40
0.55714285714285705
40
0.57142857142857129
40
0.58571428571428552
40
0.59999999999999976
40
0.61428571428571399
40
0.62857142857142823
40
0.64285714285714246
40
0.6571428571428567
40
0.67142857142857093
40
0.68571428571428517
40
0.6999999999999994
40
0.71428571428571364
40
0.72857142857142787
40
0.74285714285714211
40
0.75714285714285634
40
0.77142857142857058
40
0.78571428571428481
40
0.79999999999999905
40
0.81428571428571328
40
0.82857142857142752
40
0.84285714285714175
40
0.85714285714285599
40
0.87142857142857022
40
0.88571428571428445
40
0.89999999999999869
40
0.91428571428571292
40
0.92857142857142716
40
0.94285714285714139
40
0.95714285714285563
40
0.97142857142856986
40
0.9857142857142841
40
1
40
1
40
1
40
1
40
1
40
1
10
126.26559595355829
20
190.44389351983347
30
-1.1102230246251565e-15
10
126.26267545062962
20
190.43007082798744
30
-1.1102230246251565e-15
10
126.25736332010943
20
190.40235785910571
30
-1.1102230246251565e-15
10
126.2509817114222
20
190.3605856544911
30
-1.1102230246251565e-15
10
126.24548383314948
20
190.30450295722721
30
-1.1102230246251565e-15
10
126.24269372744477
20
190.23386671520623
30
-1.1102230246251565e-15
10
126.24280925700903
20
190.16283935851729
30
-1.1102230246251565e-15
10
126.24468482793517
20
190.09156233106432
30
-1.1102230246251565e-15
10
126.24751810746433
20
190.02014141461802
30
-1.1102230246251565e-15
10
126.25104275876176
20
189.94862449920731
30
-1.1102230246251565e-15
10
126.25532764510838
20
189.87702260989582
30
-1.1102230246251565e-15
10
126.26063594505426
20
189.80532429504248
30
-1.1102230246251565e-15
10
126.26727264772065
20
189.7335114233023
30
-1.1102230246251565e-15
10
126.27540914436412
20
189.66157717041514
30
-1.1102230246251565e-15
10
126.28502028098424
20
189.58953276754545
30
-1.1102230246251565e-15
10
126.29597262340755
20
189.51739904917642
30
-1.1102230246251565e-15
10
126.3080765993777
20
189.44520164827364
30
-1.1102230246251565e-15
10
126.32114801722231
20
189.37296520889407
30
-1.1102230246251565e-15
10
126.33507841747536
20
189.30070680520527
30
-1.1102230246251565e-15
10
126.34984253176697
20
189.22843528117954
30
-1.1102230246251565e-15
10
126.3654625974971
20
189.15615467095512
30
-1.1102230246251565e-15
10
126.38198495939716
20
189.08386645594055
30
-1.1102230246251565e-15
10
126.39945357821448
20
189.01157211251942
30
-1.1102230246251565e-15
10
126.41787988557709
20
188.93927600917857
30
-1.1102230246251565e-15
10
126.43724453397722
20
188.86698526042136
30
-1.1102230246251565e-15
10
126.45751112435555
20
188.79470843789778
30
-1.1102230246251565e-15
10
126.47863620505213
20
188.72245463656998
30
-1.1102230246251565e-15
10
126.50058017252881
20
188.65023245374823
30
-1.1102230246251565e-15
10
126.52331943754243
20
188.57804884805603
30
-1.1102230246251565e-15
10
126.54684410506502
20
188.50590936947387
30
-1.1102230246251565e-15
10
126.57115246826055
20
188.4338186904701
30
-1.1102230246251565e-15
10
126.59624652730065
20
188.36178103937505
30
-1.1102230246251565e-15
10
126.62212728812138
20
188.28980065374321
30
-1.1102230246251565e-15
10
126.64878959621947
20
188.21788227734729
30
-1.1102230246251565e-15
10
126.67622339175551
20
188.1460310448864
30
-1.1102230246251565e-15
10
126.704415886562
20
188.07425227819482
30
-1.1102230246251565e-15
10
126.7333534371858
20
188.00255131045591
30
-1.1102230246251565e-15
10
126.76302346013388
20
187.93093330587598
30
-1.1102230246251565e-15
10
126.79341653221597
20
187.85940306011156
30
-1.1102230246251565e-15
10
126.82452578793703
20
187.78796506563381
30
-1.1102230246251565e-15
10
126.85634598499577
20
187.71662360874447
30
-1.1102230246251565e-15
10
126.88887266878169
20
187.64538285612025
30
-1.1102230246251565e-15
10
126.92210133067009
20
187.57424694072762
30
-1.1102230246251565e-15
10
126.9560264599491
20
187.50322005810571
30
-1.1102230246251565e-15
10
126.99064176899022
20
187.43230643889814
30
-1.1102230246251565e-15
10
127.02594058590087
20
187.36151030326482
30
-1.1102230246251565e-15
10
127.06191619163707
20
187.29083581926892
30
-1.1102230246251565e-15
10
127.09856215405055
20
187.2202870624275
30
-1.1102230246251565e-15
10
127.1358727136203
20
187.14986796398901
30
-1.1102230246251565e-15
10
127.17384269763559
20
187.07958234115154
30
-1.1102230246251565e-15
10
127.21246732764057
20
187.00943394386985
30
-1.1102230246251565e-15
10
127.25174205302199
20
186.93942649740265
30
-1.1102230246251565e-15
10
127.29166238417685
20
186.86956373997927
30
-1.1102230246251565e-15
10
127.33222368288573
20
186.79984947579473
30
-1.1102230246251565e-15
10
127.37342119144211
20
186.73028753746286
30
-1.1102230246251565e-15
10
127.41525014939566
20
186.66088171660732
30
-1.1102230246251565e-15
10
127.4577058821218
20
186.59163569816397
30
-1.1102230246251565e-15
10
127.50078388546767
20
186.52255300442874
30
-1.1102230246251565e-15
10
127.54447993520286
20
186.45363690231804
30
-1.1102230246251565e-15
10
127.58879005824573
20
186.38489046402651
30
-1.1102230246251565e-15
10
127.63371041042981
20
186.31631672656852
30
-1.1102230246251565e-15
10
127.67923717111867
20
186.24791883090694
30
-1.1102230246251565e-15
10
127.72536644198271
20
186.17970014587956
30
-1.1102230246251565e-15
10
127.77209410166731
20
186.11166445211805
30
-1.1102230246251565e-15
10
127.81941581176213
20
186.04381590175745
30
-1.1102230246251565e-15
10
127.86732723117468
20
185.97615867576908
30
-1.1102230246251565e-15
10
127.9158241773313
20
185.90869670746793
30
-1.1102230246251565e-15
10
127.96490279961739
20
185.84143339395595
30
-1.1102230246251565e-15
10
128.01455975581882
20
185.77437127177643
30
-1.1102230246251565e-15
10
128.064792345765
20
185.70751182586292
30
-1.1102230246251565e-15
10
128.11559848562132
20
185.64085579347423
30
-1.1102230246251565e-15
10
128.15670106157413
20
185.58769386711302
30
-1.1102230246251565e-15
10
128.1877850377434
20
185.54791402470045
30
-1.1102230246251565e-15
10
128.20862189247089
20
185.52143482830502
30
-1.1102230246251565e-15
10
128.21906887082034
20
185.50820540474905
30
-1.1102230246251565e-15
0
ARC
5
135
100
AcDbEntity
8
0
100
AcDbCircle
10
129.18706509256066
20
204.23320162142949
30
-1.1102230246251565e-15
40
18.750000000000014
100
AcDbArc
50
267.04070587732798
51
273.05207777428063
0
SPLINE
5
136
100
AcDbEntity
8
0
100
AcDbSpline
70
1064
71
5
72
81
73
75
74
0
42
0.000000001
43
0.0000000001
44
0.0000000001
40
-1
40
-1
40
-1
40
-1
40
-1
40
-1
40
-0.9857142857142841
40
-0.97142857142856986
40
-0.95714285714285563
40
-0.94285714285714139
40
-0.92857142857142716
40
-0.91428571428571292
40
-0.89999999999999869
40
-0.88571428571428445
40
-0.87142857142857022
40
-0.85714285714285599
40
-0.84285714285714175
40
-0.82857142857142752
40
-0.81428571428571328
40
-0.79999999999999905
40
-0.78571428571428481
40
-0.77142857142857058
40
-0.75714285714285634
40
-0.74285714285714211
40
-0.72857142857142787
40
-0.71428571428571364
40
-0.6999999999999994
40
-0.68571428571428517
40
-0.67142857142857093
40
-0.6571428571428567
40
-0.64285714285714246
40
-0.62857142857142823
40
-0.61428571428571399
40
-0.59999999999999976
40
-0.58571428571428552
40
-0.57142857142857129
40
-0.55714285714285705
40
-0.54285714285714282
40
-0.52857142857142858
40
-0.51428571428571435
40
-0.50000000000000011
40
-0.48571428571428582
40
-0.47142857142857153
40
-0.45714285714285724
40
-0.44285714285714295
40
-0.42857142857142866
40
-0.41428571428571437
40
-0.40000000000000008
40
-0.38571428571428579
40
-0.3714285714285715
40
-0.35714285714285721
40
-0.34285714285714292
40
-0.32857142857142863
40
-0.31428571428571433
40
-0.30000000000000004
40
-0.28571428571428575
40
-0.27142857142857146
40
-0.25714285714285717
40
-0.24285714285714291
40
-0.22857142857142862
40
-0.21428571428571433
40
-0.20000000000000004
40
-0.18571428571428575
40
-0.17142857142857146
40
-0.15714285714285717
40
-0.14285714285714288
40
-0.12857142857142859
40
-0.1142857142857143
40
-0.10000000000000001
40
-0.085714285714285715
40
-0.071428571428571425
40
-0.057142857142857141
40
-0.042857142857142858
40
-0.028571428571428571
40
-0.014285714285714285
40
0
40
0
40
0
40
0
40
0
40
0
10
130.18538292016945
20
185.50979751012861
30
-1.1102230246251565e-15
10
130.1958084613635
20
185.5230438339608
30
-1.1102230246251565e-15
10
130.21660240890182
20
185.54955673841238
30
-1.1102230246251565e-15
10
130.24762192565242
20
185.58938686541967
30
-1.1102230246251565e-15
10
130.28863835837771
20
185.64261528274432
30
-1.1102230246251565e-15
10
130.33933649020452
20
185.70935350215547
30
-1.1102230246251565e-15
10
130.38946074346953
20
185.77629420602977
30
-1.1102230246251565e-15
10
130.43900903553472
20
185.8434366537349
30
-1.1102230246251565e-15
10
130.48797866863779
20
185.9107793559665
30
-1.1102230246251565e-15
10
130.53636630467662
20
185.97831977077249
30
-1.1102230246251565e-15
10
130.58416809854279
20
186.04605449481963
30
-1.1102230246251565e-15
10
130.63137987403769
20
186.11397958802496
30
-1.1102230246251565e-15
10
130.67799729684512
20
186.18209086239276
30
-1.1102230246251565e-15
10
130.72401603528425
20
186.25038415876784
30
-1.1102230246251565e-15
10
130.76943197412822
20
186.31885568984958
30
-1.1102230246251565e-15
10
130.81424122050788
20
186.38750208049169
30
-1.1102230246251565e-15
10
130.85843995887834
20
186.45632018354826
30
-1.1102230246251565e-15
10
130.90202434999611
20
186.52530695578383
30
-1.1102230246251565e-15
10
130.94499042575993
20
186.59445931857388
30
-1.1102230246251565e-15
10
130.98733396723526
20
186.66377399816554
30
-1.1102230246251565e-15
10
131.02905047597903
20
186.73324746497372
30
-1.1102230246251565e-15
10
131.07013528334016
20
186.80287602649724
30
-1.1102230246251565e-15
10
131.11058363501459
20
186.87265588340853
30
-1.1102230246251565e-15
10
131.15039077950857
20
186.94258319539426
30
-1.1102230246251565e-15
10
131.18955208476913
20
187.01265415075335
30
-1.1102230246251565e-15
10
131.22806306725278
20
187.08286500399095
30
-1.1102230246251565e-15
10
131.26591918238492
20
187.15321202248407
30
-1.1102230246251565e-15
10
131.30311565778845
20
187.22369144854483
30
-1.1102230246251565e-15
10
131.33964732694099
20
187.29429945660348
30
-1.1102230246251565e-15
10
131.37550843669521
20
187.36503210608987
30
-1.1102230246251565e-15
10
131.41069256151115
20
187.43588531107631
30
-1.1102230246251565e-15
10
131.44519298910325
20
187.5068548926242
30
-1.1102230246251565e-15
10
131.47900305442178
20
187.57793661977499
30
-1.1102230246251565e-15
10
131.51211647669743
20
187.64912625170859
30
-1.1102230246251565e-15
10
131.54452775201977
20
187.72041958396727
30
-1.1102230246251565e-15
10
131.57623237846286
20
187.79181247628895
30
-1.1102230246251565e-15
10
131.60722590816951
20
187.86330075478861
30
-1.1102230246251565e-15
10
131.63750310578635
20
187.93488012468094
30
-1.1102230246251565e-15
10
131.66705711310243
20
188.00654608238267
30
-1.1102230246251565e-15
10
131.69587851470581
20
188.07829381698397
30
-1.1102230246251565e-15
10
131.72395473548275
20
188.15011814390778
30
-1.1102230246251565e-15
10
131.75127214063448
20
188.22201370788392
30
-1.1102230246251565e-15
10
131.7778179506283
20
188.29397516637607
30
-1.1102230246251565e-15
10
131.80358211395304
20
188.36599736840114
30
-1.1102230246251565e-15
10
131.82855948379415
20
188.43807556184561
30
-1.1102230246251565e-15
10
131.85275107294859
20
188.51020551078958
30
-1.1102230246251565e-15
10
131.87615888843263
20
188.58238299014715
30
-1.1102230246251565e-15
10
131.89878123097898
20
188.65460332469223
30
-1.1102230246251565e-15
10
131.92060821456016
20
188.72686094842777
30
-1.1102230246251565e-15
10
131.94161626123264
20
188.7991488645394
30
-1.1102230246251565e-15
10
131.9617657814324
20
188.87145841159497
30
-1.1102230246251565e-15
10
131.98101333828478
20
188.94378042427957
30
-1.1102230246251565e-15
10
131.99932254665885
20
189.01610627201057
30
-1.1102230246251565e-15
10
132.01667407059333
20
189.08842880896299
30
-1.1102230246251565e-15
10
132.03307934877552
20
189.16074368516774
30
-1.1102230246251565e-15
10
132.04858234428588
20
189.23304949543245
30
-1.1102230246251565e-15
10
132.06322940419406
20
189.30534483340014
30
-1.1102230246251565e-15
10
132.07704277240364
20
189.37762570094867
30
-1.1102230246251565e-15
10
132.08999719489964
20
189.44988321319835
30
-1.1102230246251565e-15
10
132.10198424000777
20
189.52210012036676
30
-1.1102230246251565e-15
10
132.11281975620528
20
189.59425148015322
30
-1.1102230246251565e-15
10
132.12231421299387
20
189.66631135263626
30
-1.1102230246251565e-15
10
132.130334210114
20
189.73825868727943
30
-1.1102230246251565e-15
10
132.13685461178568
20
189.81008221219912
30
-1.1102230246251565e-15
10
132.14204679798974
20
189.88178902919407
30
-1.1102230246251565e-15
10
132.14621572808599
20
189.95339776347859
30
-1.1102230246251565e-15
10
132.14962456173484
20
190.02492029286469
30
-1.1102230246251565e-15
10
132.15234217998068
20
190.096345703819
30
-1.1102230246251565e-15
10
132.15410232389019
20
190.16762567507493
30
-1.1102230246251565e-15
10
132.15410283305727
20
190.23865312571928
30
-1.1102230246251565e-15
10
132.15119834412829
20
190.30928475688233
30
-1.1102230246251565e-15
10
132.14560965389384
20
190.36535847745941
30
-1.1102230246251565e-15
10
132.13916040852214
20
190.40712029305615
30
-1.1102230246251565e-15
10
132.13380340715335
20
190.4348246232455
30
-1.1102230246251565e-15
10
132.13086052387018
20
190.44864256756469
30
-1.1102230246251565e-15
0
LINE
5
137
100
AcDbEntity
8
0
100
AcDbLine
10
132.13086052387015
20
190.44864256756469
30
-1.1102230246251565e-15
11
131.75400375686866
21
192.21812688673563
31
-1.1102230246251565e-15
0
ARC
5
138
100
AcDbEntity
8
0
100
AcDbCircle
10
133.71013215059631
20
192.63473426455374
30
-1.1102230246251565e-15
40
2.000000000000008
100
AcDbArc
50
111.30434629424713
51
192.02296258097959
0
ARC
5
139
100
AcDbEntity
8
0
100
AcDbCircle
10
129.18706509256066
20
204.23320162142949
30
-1.1102230246251565e-15
40
10.449199999999992
100
AcDbArc
50
291.30434629424798
51
293.78843735736092
0
ARC
5
140
100
AcDbEntity
8
0
100
AcDbCircle
10
134.20858241707691
20
192.84167211922554
30
-1.1102230246251565e-15
40
2.0000000000000036
100
AcDbArc
50
33.069821070628343
51
113.78843735736007
0
LINE
5
141
100
AcDbEntity
8
0
100
AcDbLine
10
135.88459490536528
20
193.93299340056365
30
-1.1102230246251565e-15
11
136.87178771985401
21
192.41689771570452
31
-1.1102230246251565e-15
0
SPLINE
5
142
100
AcDbEntity
8
0
100
AcDbSpline
70
1064
71
5
72
81
73
75
74
0
42
0.000000001
43
0.0000000001
44
0.0000000001
40
0
40
0
40
0
40
0
40
0
40
0
40
0.014285714285714285
40
0.028571428571428571
40
0.042857142857142858
40
0.057142857142857141
40
0.071428571428571425
40
0.085714285714285715
40
0.10000000000000001
40
0.1142857142857143
40
0.12857142857142859
40
0.14285714285714288
40
0.15714285714285717
40
0.17142857142857146
40
0.18571428571428575
40
0.20000000000000004
40
0.21428571428571433
40
0.22857142857142862
40
0.24285714285714291
40
0.25714285714285717
40
0.27142857142857146
40
0.28571428571428575
40
0.30000000000000004
40
0.31428571428571433
40
0.32857142857142863
40
0.34285714285714292
40
0.35714285714285721
40
0.3714285714285715
40
0.38571428571428579
40
0.40000000000000008
40
0.41428571428571437
40
0.42857142857142866
40
0.44285714285714295
40
0.45714285714285724
40
0.47142857142857153
40
0.48571428571428582
40
0.50000000000000011
40
0.51428571428571435
40
0.52857142857142858
40
0.54285714285714282
40
0.55714285714285705
40
0.57142857142857129
40
0.58571428571428552
40
0.59999999999999976
40
0.61428571428571399
40
0.62857142857142823
40
0.64285714285714246
40
0.6571428571428567
40
0.67142857142857093
40
0.68571428571428517
40
0.6999999999999994
40
0.71428571428571364
40
0.72857142857142787
40
0.74285714285714211
40
0.75714285714285634
40
0.77142857142857058
40
0.78571428571428481
40
0.79999999999999905
40
0.81428571428571328
40
0.82857142857142752
40
0.84285714285714175
40
0.85714285714285599
40
0.87142857142857022
40
0.88571428571428445
40
0.89999999999999869
40
0.91428571428571292
40
0.92857142857142716
40
0.94285714285714139
40
0.95714285714285563
40
0.97142857142856986
40
0.9857142857142841
40
1
40
1
40
1
40
1
40
1
40
1
10
136.87178771985401
20
192.41689771570452
30
-1.1102230246251565e-15
10
136.87949673156726
20
192.40505848914066
30
-1.1102230246251565e-15
10
136.89533651627698
20
192.38170621740414
30
-1.1102230246251565e-15
10
136.92036144664746
20
192.34765632947844
30
-1.1102230246251565e-15
10
136.95613031518118
20
192.30411228692714
30
-1.1102230246251565e-15
10
137.00410477824775
20
192.25219201853253
30
-1.1102230246251565e-15
10
137.05441039555058
20
192.20204978470633
30
-1.1102230246251565e-15
10
137.10613709392587
20
192.15297554417202
30
-1.1102230246251565e-15
10
137.15864273943166
20
192.10447676100233
30
-1.1102230246251565e-15
10
137.21170514012184
20
192.05639896997957
30
-1.1102230246251565e-15
10
137.26536519379206
20
192.008798660694
30
-1.1102230246251565e-15
10
137.31981709331282
20
191.96185383094985
30
-1.1102230246251565e-15
10
137.37528931935691
20
191.91576731982599
30
-1.1102230246251565e-15
10
137.43190788932469
20
191.87065549376166
30
-1.1102230246251565e-15
10
137.48964707501938
20
191.82650850782491
30
-1.1102230246251565e-15
10
137.54839779202771
20
191.78324674201139
30
-1.1102230246251565e-15
10
137.60800786727793
20
191.7407542737368
30
-1.1102230246251565e-15
10
137.66832963160968
20
191.69891828580037
30
-1.1102230246251565e-15
10
137.72927431933928
20
191.65767415903787
30
-1.1102230246251565e-15
10
137.79081780939839
20
191.61701027964642
30
-1.1102230246251565e-15
10
137.85297297343672
20
191.5769452244088
30
-1.1102230246251565e-15
10
137.91577153461415
20
191.53751281151287
30
-1.1102230246251565e-15
10
137.97924353391235
20
191.49874516986205
30
-1.1102230246251565e-15
10
138.04339396572641
20
191.46065347182463
30
-1.1102230246251565e-15
10
138.10820411858867
20
191.42322906736044
30
-1.1102230246251565e-15
10
138.17364219340575
20
191.38645227951946
30
-1.1102230246251565e-15
10
138.23967103410479
20
191.35029881444774
30
-1.1102230246251565e-15
10
138.30625655753909
20
191.31474674743123
30
-1.1102230246251565e-15
10
138.37337716310486
20
191.27978431884614
30
-1.1102230246251565e-15
10
138.44102192953193
20
191.24540845627979
30
-1.1102230246251565e-15
10
138.50918634597096
20
191.21162125675102
30
-1.1102230246251565e-15
10
138.57786883687575
20
191.17842712447572
30
-1.1102230246251565e-15
10
138.64706711714706
20
191.14582976716162
30
-1.1102230246251565e-15
10
138.71677418764679
20
191.11382889437837
30
-1.1102230246251565e-15
10
138.78697930421373
20
191.08242102352591
30
-1.1102230246251565e-15
10
138.85766966114278
20
191.05160087510933
30
-1.1102230246251565e-15
10
138.92883183992561
20
191.02136257288049
30
-1.1102230246251565e-15
10
139.00045329104367
20
190.99170087061154
30
-1.1102230246251565e-15
10
139.07252396025399
20
190.96261249614187
30
-1.1102230246251565e-15
10
139.14503581626161
20
190.93409577149035
30
-1.1102230246251565e-15
10
139.21798212132671
20
190.90615002066312
30
-1.1102230246251565e-15
10
139.29135677927866
20
190.87877504006019
30
-1.1102230246251565e-15
10
139.36515367958972
20
190.85197056405119
30
-1.1102230246251565e-15
10
139.43936595890403
20
190.82573566266854
30
-1.1102230246251565e-15
10
139.51398617968005
20
190.80006888140423
30
-1.1102230246251565e-15
10
139.58900664007356
20
190.77496848662147
30
-1.1102230246251565e-15
10
139.66441964173728
20
190.75043267450445
30
-1.1102230246251565e-15
10
139.74021775462981
20
190.7264597786633
30
-1.1102230246251565e-15
10
139.81639412634235
20
190.70304850631405
30
-1.1102230246251565e-15
10
139.89294240004941
20
190.68019789896451
30
-1.1102230246251565e-15
10
139.96985654525395
20
190.65790722935461
30
-1.1102230246251565e-15
10
140.04713071003093
20
190.63617591387055
30
-1.1102230246251565e-15
10
140.12475907642423
20
190.61500342121087
30
-1.1102230246251565e-15
10
140.2027356747453
20
190.59438916163131
30
-1.1102230246251565e-15
10
140.28105443072042
20
190.57433248099267
30
-1.1102230246251565e-15
10
140.35970929712016
20
190.55483269423075
30
-1.1102230246251565e-15
10
140.43869436284251
20
190.53588910153022
30
-1.1102230246251565e-15
10
140.51800395233118
20
190.51750100861324
30
-1.1102230246251565e-15
10
140.59763276854542
20
190.49966773855661
30
-1.1102230246251565e-15
10
140.67757582972257
20
190.48238865433711
30
-1.1102230246251565e-15
10
140.7578282701331
20
190.46566318521187
30
-1.1102230246251565e-15
10
140.83838516718285
20
190.44949085057922
30
-1.1102230246251565e-15
10
140.91924138220847
20
190.43387127603194
30
-1.1102230246251565e-15
10
141.00039132766193
20
190.41880422064236
30
-1.1102230246251565e-15
10
141.08182899982097
20
190.40428955269408
30
-1.1102230246251565e-15
10
141.1635483726765
20
190.39032715896437
30
-1.1102230246251565e-15
10
141.24554370742865
20
190.37691686320059
30
-1.1102230246251565e-15
10
141.32780987916783
20
190.364058344721
30
-1.1102230246251565e-15
10
141.41034273098484
20
190.35175103383017
30
-1.1102230246251565e-15
10
141.49313930356416
20
190.33999407122587
30
-1.1102230246251565e-15
10
141.57619760209147
20
190.32878650473521
30
-1.1102230246251565e-15
10
141.6428526709029
20
190.32025925628466
30
-1.1102230246251565e-15
10
141.69296095756289
20
190.31411035029578
30
-1.1102230246251565e-15
10
141.72641845817091
20
190.31012061224055
30
-1.1102230246251565e-15
10
141.74316020251231
20
190.30815312636676
30
-1.1102230246251565e-15
0
ARC
5
143
100
AcDbEntity
8
0
100
AcDbCircle
10
129.18706509256066
20
204.23320162142949
30
-1.1102230246251565e-15
40
18.750000000000004
100
AcDbArc
50
312.04070587732792
51
318.05207777428075
0
SPLINE
5
144
100
AcDbEntity
8
0
100
AcDbSpline
70
1064
71
5
72
81
73
75
74
0
42
0.000000001
43
0.0000000001
44
0.0000000001
40
-1
40
-1
40
-1
40
-1
40
-1
40
-1
40
-0.9857142857142841
40
-0.97142857142856986
40
-0.95714285714285563
40
-0.94285714285714139
40
-0.92857142857142716
40
-0.91428571428571292
40
-0.89999999999999869
40
-0.88571428571428445
40
-0.87142857142857022
40
-0.85714285714285599
40
-0.84285714285714175
40
-0.82857142857142752
40
-0.81428571428571328
40
-0.79999999999999905
40
-0.78571428571428481
40
-0.77142857142857058
40
-0.75714285714285634
40
-0.74285714285714211
40
-0.72857142857142787
40
-0.71428571428571364
40
-0.6999999999999994
40
-0.68571428571428517
40
-0.67142857142857093
40
-0.6571428571428567
40
-0.64285714285714246
40
-0.62857142857142823
40
-0.61428571428571399
40
-0.59999999999999976
40
-0.58571428571428552
40
-0.57142857142857129
40
-0.55714285714285705
40
-0.54285714285714282
40
-0.52857142857142858
40
-0.51428571428571435
40
-0.50000000000000011
40
-0.48571428571428582
40
-0.47142857142857153
40
-0.45714285714285724
40
-0.44285714285714295
40
-0.42857142857142866
40
-0.41428571428571437
40
-0.40000000000000008
40
-0.38571428571428579
40
-0.3714285714285715
40
-0.35714285714285721
40
-0.34285714285714292
40
-0.32857142857142863
40
-0.31428571428571433
40
-0.30000000000000004
40
-0.28571428571428575
40
-0.27142857142857146
40
-0.25714285714285717
40
-0.24285714285714291
40
-0.22857142857142862
40
-0.21428571428571433
40
-0.20000000000000004
40
-0.18571428571428575
40
-0.17142857142857146
40
-0.15714285714285717
40
-0.14285714285714288
40
-0.12857142857142859
40
-0.1142857142857143
40
-0.10000000000000001
40
-0.085714285714285715
40
-0.071428571428571425
40
-0.057142857142857141
40
-0.042857142857142858
40
-0.028571428571428571
40
-0.014285714285714285
40
0
40
0
40
0
40
0
40
0
40
0
10
143.13242841223919
20
191.69967291311417
30
-1.1102230246251565e-15
10
143.13043381770751
20
191.71641144939755
30
-1.1102230246251565e-15
10
143.12638990449287
20
191.74986244523615
30
-1.1102230246251565e-15
10
143.12015986223395
20
191.79996070878207
30
-1.1102230246251565e-15
10
143.11152468511199
20
191.86660188134425
30
-1.1102230246251565e-15
10
143.10018263041027
20
191.94964192166239
30
-1.1102230246251565e-15
10
143.08829160414894
20
192.03241934669492
30
-1.1102230246251565e-15
10
143.07585065738672
20
192.11493216008819
30
-1.1102230246251565e-15
10
143.06285893561471
20
192.19717740113904
30
-1.1102230246251565e-15
10
143.04931587586989
20
192.27915091202109
30
-1.1102230246251565e-15
10
143.03522116577003
20
192.36084756731231
30
-1.1102230246251565e-15
10
143.02057463835612
20
192.44226162793481
30
-1.1102230246251565e-15
10
143.00537619016393
20
192.52338706770414
30
-1.1102230246251565e-15
10
142.98962569919951
20
192.60421788269247
30
-1.1102230246251565e-15
10
142.97332293358389
20
192.68474848496911
30
-1.1102230246251565e-15
10
142.95646752723181
20
192.76497373527107
30
-1.1102230246251565e-15
10
142.93905900751375
20
192.84488871023234
30
-1.1102230246251565e-15
10
142.92109681156711
20
192.9244885432056
30
-1.1102230246251565e-15
10
142.90258031043675
20
193.00376825140307
30
-1.1102230246251565e-15
10
142.88350883577834
20
193.0827225366948
30
-1.1102230246251565e-15
10
142.86388170250589
20
193.16134572240753
30
-1.1102230246251565e-15
10
142.84369822037715
20
193.23963189631385
30
-1.1102230246251565e-15
10
142.82295771412177
20
193.31757501008286
30
-1.1102230246251565e-15
10
142.80165953943788
20
193.39516898838951
30
-1.1102230246251565e-15
10
142.77980311624913
20
193.472407860598
30
-1.1102230246251565e-15
10
142.75738792267626
20
193.54928580789954
30
-1.1102230246251565e-15
10
142.73441338458281
20
193.62579697743158
30
-1.1102230246251565e-15
10
142.7108787844752
20
193.70193533752737
30
-1.1102230246251565e-15
10
142.68678317415666
20
193.77769452981755
30
-1.1102230246251565e-15
10
142.66212527194165
20
193.85306769980875
30
-1.1102230246251565e-15
10
142.63690342347439
20
193.92804741477093
30
-1.1102230246251565e-15
10
142.61111583740811
20
194.00262597344562
30
-1.1102230246251565e-15
10
142.58476079258043
20
194.07679567119146
30
-1.1102230246251565e-15
10
142.55783684652943
20
194.15054906812131
30
-1.1102230246251565e-15
10
142.53034308040324
20
194.22387929938219
30
-1.1102230246251565e-15
10
142.50227923846697
20
194.29678025402424
30
-1.1102230246251565e-15
10
142.47364512699295
20
194.36924583555515
30
-1.1102230246251565e-15
10
142.44444008089926
20
194.44126930514926
30
-1.1102230246251565e-15
10
142.41466243521251
20
194.51284262880483
30
-1.1102230246251565e-15
10
142.38430893405823
20
194.58395574699324
30
-1.1102230246251565e-15
10
142.3533743515377
20
194.65459610171672
30
-1.1102230246251565e-15
10
142.32185283314016
20
194.72475026496863
30
-1.1102230246251565e-15
10
142.28973912011503
20
194.79440542251126
30
-1.1102230246251565e-15
10
142.25702974726562
20
194.86355082455771
30
-1.1102230246251565e-15
10
142.22372443549625
20
194.93217947150879
30
-1.1102230246251565e-15
10
142.18982689621012
20
195.00028908427248
30
-1.1102230246251565e-15
10
142.15534153616892
20
195.06787809443671
30
-1.1102230246251565e-15
10
142.12027045969339
20
195.13494199455394
30
-1.1102230246251565e-15
10
142.08461061206069
20
195.2014698583929
30
-1.1102230246251565e-15
10
142.04835026864188
20
195.26744006633481
30
-1.1102230246251565e-15
10
142.01146755994523
20
195.33281849977331
30
-1.1102230246251565e-15
10
141.9739382523185
20
195.39756796334319
30
-1.1102230246251565e-15
10
141.93574272033231
20
195.46165662612836
30
-1.1102230246251565e-15
10
141.89687234425867
20
195.525065762678
30
-1.1102230246251565e-15
10
141.85733828836345
20
195.58780038547295
30
-1.1102230246251565e-15
10
141.81717263286021
20
195.64989058748438
30
-1.1102230246251565e-15
10
141.77640914452058
20
195.71136814659502
30
-1.1102230246251565e-15
10
141.73506637925897
20
195.77224596452066
30
-1.1102230246251565e-15
10
141.69313276234888
20
195.83249990141729
30
-1.1102230246251565e-15
10
141.6505438184561
20
195.8920410870748
30
-1.1102230246251565e-15
10
141.60718696966018
20
195.95072166983255
30
-1.1102230246251565e-15
10
141.56294653995488
20
196.00838928909565
30
-1.1102230246251565e-15
10
141.51774308608913
20
196.06493473165884
30
-1.1102230246251565e-15
10
141.47156680480779
20
196.12033225341639
30
-1.1102230246251565e-15
10
141.42453385832744
20
196.17470806004491
30
-1.1102230246251565e-15
10
141.37684671546401
20
196.22829096039101
30
-1.1102230246251565e-15
10
141.32868305931655
20
196.28127543531659
30
-1.1102230246251565e-15
10
141.28009931317206
20
196.3337024740417
30
-1.1102230246251565e-15
10
141.23094137182846
20
196.38534963477383
30
-1.1102230246251565e-15
10
141.18071773986293
20
196.43557398681037
30
-1.1102230246251565e-15
10
141.12871985068369
20
196.48346430835448
30
-1.1102230246251565e-15
10
141.08511794185455
20
196.51916261565816
30
-1.1102230246251565e-15
10
141.05102757371557
20
196.5441323735254
30
-1.1102230246251565e-15
10
141.02764968197576
20
196.55993432127585
30
-1.1102230246251565e-15
10
141.01579798711984
20
196.56762415068019
30
-1.1102230246251565e-15
0
LINE
5
145
100
AcDbEntity
8
0
100
AcDbLine
10
141.01579798711984
20
196.56762415068019
30
-1.1102230246251565e-15
11
139.49810565034801
21
197.55236053648642
31
-1.1102230246251563e-15
0
ARC
5
146
100
AcDbEntity
8
0
100
AcDbCircle
10
140.58671140047684
20
199.23013809051031
30
-1.1102230246251565e-15
40
2.0000000000000062
100
AcDbArc
50
156.30434629424758
51
237.02296258097954
0
ARC
5
147
100
AcDbEntity
8
0
100
AcDbCircle
10
129.18706509256066
20
204.23320162142949
30
-1.1102230246251565e-15
40
10.449200000000008
100
AcDbArc
50
336.30434629424792
51
338.78843735736075
0
ARC
5
148
100
AcDbEntity
8
0
100
AcDbCircle
10
140.79284180366687
20
199.72892281434565
30
-1.1102230246251565e-15
40
1.9999999999999905
100
AcDbArc
50
78.069821070628578
51
158.78843735736186
0
LINE
5
149
100
AcDbEntity
8
0
100
AcDbLine
10
141.20628092100154
20
201.68572328865505
30
-1.1102230246251567e-15
11
142.97637319415671
21
201.31173248242715
31
-1.1102230246251565e-15
0
SPLINE
5
150
100
AcDbEntity
8
0
100
AcDbSpline
70
1064
71
5
72
81
73
75
74
0
42
0.000000001
43
0.0000000001
44
0.0000000001
40
0
40
0
40
0
40
0
40
0
40
0
40
0.014285714285714285
40
0.028571428571428571
40
0.042857142857142858
40
0.057142857142857141
40
0.071428571428571425
40
0.085714285714285715
40
0.10000000000000001
40
0.1142857142857143
40
0.12857142857142859
40
0.14285714285714288
40
0.15714285714285717
40
0.17142857142857146
40
0.18571428571428575
40
0.20000000000000004
40
0.21428571428571433
40
0.22857142857142862
40
0.24285714285714291
40
0.25714285714285717
40
0.27142857142857146
40
0.28571428571428575
40
0.30000000000000004
40
0.31428571428571433
40
0.32857142857142863
40
0.34285714285714292
40
0.35714285714285721
40
0.3714285714285715
40
0.38571428571428579
40
0.40000000000000008
40
0.41428571428571437
40
0.42857142857142866
40
0.44285714285714295
40
0.45714285714285724
40
0.47142857142857153
40
0.48571428571428582
40
0.50000000000000011
40
0.51428571428571435
40
0.52857142857142858
40
0.54285714285714282
40
0.55714285714285705
40
0.57142857142857129
40
0.58571428571428552
40
0.59999999999999976
40
0.61428571428571399
40
0.62857142857142823
40
0.64285714285714246
40
0.6571428571428567
40
0.67142857142857093
40
0.68571428571428517
40
0.6999999999999994
40
0.71428571428571364
40
0.72857142857142787
40
0.74285714285714211
40
0.75714285714285634
40
0.77142857142857058
40
0.78571428571428481
40
0.79999999999999905
40
0.81428571428571328
40
0.82857142857142752
40
0.84285714285714175
40
0.85714285714285599
40
0.87142857142857022
40
0.88571428571428445
40
0.89999999999999869
40
0.91428571428571292
40
0.92857142857142716
40
0.94285714285714139
40
0.95714285714285563
40
0.97142857142856986
40
0.9857142857142841
40
1
40
1
40
1
40
1
40
1
40
1
10
142.97637319415671
20
201.31173248242715
30
-1.1102230246251565e-15
10
142.99019588600274
20
201.30881197949847
30
-1.1102230246251565e-15
10
143.0179088548845
20
201.3034998489783
30
-1.1102230246251565e-15
10
143.0596810594991
20
201.29711824029104
30
-1.1102230246251565e-15
10
143.11576375676296
20
201.29162036201834
30
-1.1102230246251565e-15
10
143.18639999878397
20
201.28883025631359
30
-1.1102230246251565e-15
10
143.25742735547291
20
201.28894578587787
30
-1.1102230246251565e-15
10
143.32870438292588
20
201.29082135680403
30
-1.1102230246251565e-15
10
143.40012529937218
20
201.29365463633317
30
-1.1102230246251565e-15
10
143.47164221478286
20
201.2971792876306
30
-1.1102230246251565e-15
10
143.54324410409436
20
201.30146417397722
30
-1.1102230246251565e-15
10
143.61494241894769
20
201.3067724739231
30
-1.1102230246251565e-15
10
143.68675529068787
20
201.31340917658949
30
-1.1102230246251565e-15
10
143.75868954357503
20
201.32154567323298
30
-1.1102230246251565e-15
10
143.83073394644475
20
201.3311568098531
30
-1.1102230246251565e-15
10
143.90286766481375
20
201.34210915227641
30
-1.1102230246251565e-15
10
143.97506506571654
20
201.35421312824656
30
-1.1102230246251565e-15
10
144.0473015050961
20
201.36728454609116
30
-1.1102230246251565e-15
10
144.11955990878491
20
201.38121494634419
30
-1.1102230246251565e-15
10
144.19183143281066
20
201.39597906063582
30
-1.1102230246251565e-15
10
144.26411204303506
20
201.41159912636593
30
-1.1102230246251565e-15
10
144.33640025804962
20
201.42812148826602
30
-1.1102230246251565e-15
10
144.40869460147073
20
201.44559010708332
30
-1.1102230246251565e-15
10
144.48099070481166
20
201.46401641444589
30
-1.1102230246251565e-15
10
144.55328145356879
20
201.48338106284604
30
-1.1102230246251565e-15
10
144.62555827609239
20
201.50364765322439
30
-1.1102230246251565e-15
10
144.69781207742017
20
201.52477273392097
30
-1.1102230246251565e-15
10
144.77003426024197
20
201.54671670139766
30
-1.1102230246251565e-15
10
144.84221786593417
20
201.56945596641128
30
-1.1102230246251565e-15
10
144.9143573445163
20
201.59298063393382
30
-1.1102230246251565e-15
10
144.9864480235201
20
201.61728899712938
30
-1.1102230246251565e-15
10
145.05848567461513
20
201.64238305616948
30
-1.1102230246251565e-15
10
145.13046606024693
20
201.66826381699022
30
-1.1102230246251565e-15
10
145.20238443664289
20
201.6949261250883
30
-1.1102230246251565e-15
10
145.27423566910377
20
201.72235992062437
30
-1.1102230246251565e-15
10
145.34601443579535
20
201.75055241543083
30
-1.1102230246251565e-15
10
145.41771540353426
20
201.77948996605465
30
-1.1102230246251565e-15
10
145.48933340811419
20
201.80915998900272
30
-1.1102230246251565e-15
10
145.56086365387864
20
201.83955306108481
30
-1.1102230246251565e-15
10
145.63230164835636
20
201.87066231680589
30
-1.1102230246251565e-15
10
145.7036431052457
20
201.90248251386464
30
-1.1102230246251565e-15
10
145.77488385786995
20
201.93500919765054
30
-1.1102230246251565e-15
10
145.84601977326261
20
201.96823785953893
30
-1.1102230246251565e-15
10
145.91704665588446
20
202.00216298881796
30
-1.1102230246251565e-15
10
145.98796027509201
20
202.03677829785906
30
-1.1102230246251565e-15
10
146.05875641072541
20
202.07207711476968
30
-1.1102230246251565e-15
10
146.12943089472128
20
202.10805272050592
30
-1.1102230246251565e-15
10
146.1999796515627
20
202.14469868291943
30
-1.1102230246251565e-15
10
146.27039875000119
20
202.18200924248916
30
-1.1102230246251565e-15
10
146.34068437283867
20
202.21997922650445
30
-1.1102230246251565e-15
10
146.41083277012032
20
202.25860385650941
30
-1.1102230246251565e-15
10
146.48084021658752
20
202.29787858189084
30
-1.1102230246251565e-15
10
146.55070297401093
20
202.33779891304567
30
-1.1102230246251565e-15
10
146.62041723819547
20
202.37836021175457
30
-1.1102230246251565e-15
10
146.68997917652729
20
202.41955772031093
30
-1.1102230246251565e-15
10
146.75938499738288
20
202.46138667826449
30
-1.1102230246251565e-15
10
146.8286310158262
20
202.50384241099061
30
-1.1102230246251565e-15
10
146.89771370956146
20
202.54692041433651
30
-1.1102230246251565e-15
10
146.96662981167214
20
202.59061646407167
30
-1.1102230246251565e-15
10
147.03537624996363
20
202.63492658711459
30
-1.1102230246251565e-15
10
147.10394998742169
20
202.67984693929864
30
-1.1102230246251565e-15
10
147.17234788308326
20
202.72537369998747
30
-1.1102230246251565e-15
10
147.24056656811061
20
202.77150297085157
30
-1.1102230246251565e-15
10
147.30860226187212
20
202.81823063053611
30
-1.1102230246251565e-15
10
147.37645081223269
20
202.86555234063098
30
-1.1102230246251565e-15
10
147.44410803822106
20
202.91346376004353
30
-1.1102230246251565e-15
10
147.51157000652228
20
202.96196070620016
30
-1.1102230246251565e-15
10
147.57883332003422
20
203.01103932848628
30
-1.1102230246251565e-15
10
147.64589544221374
20
203.06069628468765
30
-1.1102230246251565e-15
10
147.71275488812728
20
203.11092887463386
30
-1.1102230246251565e-15
10
147.77941092051591
20
203.16173501449018
30
-1.1102230246251565e-15
10
147.83257284687716
20
203.20283759044298
30
-1.1102230246251565e-15
10
147.8723526892897
20
203.23392156661225
30
-1.1102230246251565e-15
10
147.89883188568518
20
203.25475842133972
30
-1.1102230246251565e-15
10
147.91206130924112
20
203.26520539968914
30
-1.1102230246251565e-15
0
ARC
5
151
100
AcDbEntity
8
0
100
AcDbCircle
10
129.18706509256066
20
204.23320162142949
30
-1.1102230246251565e-15
40
18.750000000000014
100
AcDbArc
50
-2.959294122672087
51
3.0520777742806029
0
SPLINE
5
152
100
AcDbEntity
8
0
100
AcDbSpline
70
1064
71
5
72
35
73
29
74
0
42
0.000000001
43
0.0000000001
44
0.0000000001
40
-1
40
-1
40
-1
40
-1
40
-1
40
-1
40
-0.9857142857142841
40
-0.97142857142856986
40
-0.95714285714285563
40
-0.94285714285714139
40
-0.92857142857142716
40
-0.91428571428571292
40
-0.89999999999999869
40
-0.88571428571428445
40
-0.87142857142857022
40
-0.85714285714285599
40
-0.84285714285714175
40
-0.82857142857142752
40
-0.81428571428571328
40
-0.79999999999999905
40
-0.78571428571428481
40
-0.77142857142857058
40
-0.75714285714285634
40
-0.74285714285714211
40
-0.72857142857142787
40
-0.71428571428571364
40
-0.6999999999999994
40
-0.68571428571428517
40
-0.67142857142857093
40
-0.66209333335318932
40
-0.66209333335318932
40
-0.66209333335318932
40
-0.66209333335318932
40
-0.66209333335318932
40
-0.66209333335318932
10
147.91046920386157
20
205.23151944903827
30
-1.1102230246251565e-15
10
147.89722288002937
20
205.24194499023235
30
-1.1102230246251565e-15
10
147.87070997557782
20
205.26273893777068
30
-1.1102230246251565e-15
10
147.8308798485705
20
205.29375845452122
30
-1.1102230246251565e-15
10
147.77765143124586
20
205.33477488724657
30
-1.1102230246251565e-15
10
147.71091321183471
20
205.38547301907332
30
-1.1102230246251565e-15
10
147.6439725079604
20
205.43559727233833
30
-1.1102230246251565e-15
10
147.5768300602553
20
205.48514556440355
30
-1.1102230246251565e-15
10
147.50948735802365
20
205.53411519750665
30
-1.1102230246251565e-15
10
147.44194694321766
20
205.58250283354545
30
-1.1102230246251565e-15
10
147.37421221917054
20
205.63030462741165
30
-1.1102230246251565e-15
10
147.30628712596524
20
205.67751640290652
30
-1.1102230246251565e-15
10
147.23817585159742
20
205.72413382571395
30
-1.1102230246251565e-15
10
147.16988255522233
20
205.77015256415308
30
-1.1102230246251565e-15
10
147.10141102414062
20
205.81556850299705
30
-1.1102230246251565e-15
10
147.03276463349849
20
205.86037774937677
30
-1.1102230246251565e-15
10
146.96394653044192
20
205.90457648774714
30
-1.1102230246251565e-15
10
146.89495975820637
20
205.94816087886497
30
-1.1102230246251565e-15
10
146.82580739541632
20
205.99112695462875
30
-1.1102230246251565e-15
10
146.75649271582466
20
206.03347049610406
30
-1.1102230246251565e-15
10
146.68701924901646
20
206.07518700484786
30
-1.1102230246251565e-15
10
146.61739068749299
20
206.11627181220896
30
-1.1102230246251565e-15
10
146.54761083058168
20
206.15672016388342
30
-1.1102230246251565e-15
10
146.47768351859591
20
206.19652730837743
30
-1.1102230246251565e-15
10
146.41246894760241
20
206.2329744740972
30
-1.1102230246251565e-15
10
146.36117520110497
20
206.26115535923952
30
-1.1102230246251565e-15
10
146.32387311330629
20
206.28139242246746
30
-1.1102230246251565e-15
10
146.30061050527388
20
206.29391303143888
30
-1.1102230246251565e-15
10
146.29141403372674
20
206.29884725306215
30
-1.1102230246251565e-15
0
SPLINE
5
153
100
AcDbEntity
8
0
100
AcDbSpline
70
1064
71
3
72
12
73
8
74
0
42
0.000000001
43
0.0000000001
44
0.0000000001
40
0
40
0
40
0
40
0
40
0.15625778935476253
40
0.15625778935476253
40
0.29422075722815189
40
0.29422075722815189
40
0.43218372510154868
40
0.43218372510154868
40
0.43218372510154868
40
0.43218372510154868
10
144.18254617029558
20
209.82032468033486
30
-1.1102230246251565e-15
10
144.18296790486974
20
209.29946555322283
30
-1.1102230246251565e-15
10
144.2851209771411
20
208.78366849739643
30
-1.1102230246251565e-15
10
144.6581922249955
20
207.87666206629035
30
-1.1102230246251565e-15
10
144.90517113207795
20
207.48469450361671
30
-1.1102230246251565e-15
10
145.5214605945184
20
206.8019550960226
30
-1.1102230246251565e-15
10
145.88618044529562
20
206.51626893748326
30
-1.1102230246251565e-15
10
146.29141403372677
20
206.29884725306212
30
-1.1102230246251565e-15
0
LINE
5
154
100
AcDbEntity
8
0
100
AcDbLine
10
144.18254617029558
20
209.82032468033486
30
-1.1102230246251565e-15
11
144.14657567468453
21
254.24533058174626
31
-1.1102230246251565e-15
0
CIRCLE
5
155
100
AcDbEntity
8
0
100
AcDbCircle
10
129.18706509256066
20
204.23320162142949
30
-1.1102230246251565e-15
40
2.0500000000000016
0
ENDSEC
0
SECTION
2
OBJECTS
0
DICTIONARY
5
C
100
AcDbDictionary
3
ACAD_GROUP
350
D
3
ACAD_MLINESTYLE
350
17
0
DICTIONARY
5
D
100
AcDbDictionary
0
DICTIONARY
5
1A
330
C
100
AcDbDictionary
0
DICTIONARY
5
17
100
AcDbDictionary
0
ENDSEC
0
EOF
