0
SECTION
2
HEADER
9
$INSUNITS
70
4
9
$ACADVER
1
AC1014
9
$HANDSEED
5
FFFF
0
ENDSEC
0
SECTION
2
TABLES
0
TABLE
2
VPORT
5
8
100
AcDbSymbolTable
0
ENDTAB
0
TABLE
2
LTYPE
5
5
100
AcDbSymbolTable
0
LTYPE
5
14
100
AcDbSymbolTableRecord
100
AcDbLinetypeTableRecord
2
BYBLOCK
70
0
0
LTYPE
5
15
100
AcDbSymbolTableRecord
100
AcDbLinetypeTableRecord
2
BYLAYER
70
0
0
ENDTAB
0
TABLE
2
LAYER
5
2
100
AcDbSymbolTable
70
2
0
LAYER
5
50
100
AcDbSymbolTableRecord
100
AcDbLayerTableRecord
2
0
70
0
6
CONTINUOUS
0
ENDTAB
0
TABLE
2
STYLE
5
3
100
AcDbSymbolTable
70
1
0
STYLE
5
11
100
AcDbSymbolTableRecord
100
AcDbTextStyleTableRecord
2
STANDARD
70
0
0
ENDTAB
0
TABLE
2
VIEW
5
6
100
AcDbSymbolTable
70
0
0
ENDTAB
0
TABLE
2
UCS
5
7
100
AcDbSymbolTable
70
0
0
ENDTAB
0
TABLE
2
APPID
5
9
100
AcDbSymbolTable
70
2
0
APPID
5
12
100
AcDbSymbolTableRecord
100
AcDbRegAppTableRecord
2
ACAD
70
0
0
ENDTAB
0
TABLE
2
DIMSTYLE
5
A
100
AcDbSymbolTable
70
1
0
ENDTAB
0
TABLE
2
BLOCK_RECORD
5
1
100
AcDbSymbolTable
70
1
0
BLOCK_RECORD
5
1F
100
AcDbSymbolTableRecord
100
AcDbBlockTableRecord
2
*MODEL_SPACE
0
BLOCK_RECORD
5
1B
100
AcDbSymbolTableRecord
100
AcDbBlockTableRecord
2
*PAPER_SPACE
0
ENDTAB
0
ENDSEC
0
SECTION
2
BLOCKS
0
BLOCK
5
20
100
AcDbEntity
100
AcDbBlockBegin
2
*MODEL_SPACE
0
ENDBLK
5
21
100
AcDbEntity
100
AcDbBlockEnd
0
BLOCK
5
1C
100
AcDbEntity
100
AcDbBlockBegin
2
*PAPER_SPACE
0
ENDBLK
5
1D
100
AcDbEntity
100
AcDbBlockEnd
0
ENDSEC
0
SECTION
2
ENTITIES
0
SPLINE
5
100
100
AcDbEntity
8
0
100
AcDbSpline
70
1064
71
3
72
8
73
4
74
0
42
0.000000001
43
0.0000000001
44
0.0000000001
40
-0.1185202335688281
40
-0.1185202335688281
40
-0.1185202335688281
40
-0.1185202335688281
40
-0.10915842003604359
40
-0.10915842003604359
40
-0.10915842003604359
40
-0.10915842003604359
10
-77.448491337105366
20
335.33274778195187
30
1.1102230246251565e-15
10
-77.690204117026866
20
335.20857620502534
30
1.1102230246251565e-15
10
-77.936391733599109
20
335.08995906258008
30
1.1102230246251565e-15
10
-78.186144983968816
20
334.97809150433392
30
1.1102230246251565e-15
0
ARC
5
101
100
AcDbEntity
8
0
100
AcDbCircle
10
-103.93477660623503
20
339.60228687577421
30
1.1102230246251565e-15
40
26.828199183534341
100
AcDbArc
50
350.84280252885122
51
355.80034458870523
0
SPLINE
5
102
100
AcDbEntity
8
0
100
AcDbSpline
70
1064
71
3
72
12
73
8
74
0
42
0.000000001
43
0.0000000001
44
0.0000000001
40
-0.67625375604904803
40
-0.67625375604904803
40
-0.67625375604904803
40
-0.67625375604904803
40
-0.50043993554144861
40
-0.50043993554144861
40
-0.30066764248495031
40
-0.30066764248495031
40
0
40
0
40
0
40
0
10
-82.334546598241189
20
340.21063199452612
30
1.1102230246251565e-15
10
-81.894690710884262
20
340.22282808411717
30
1.1102230246251565e-15
10
-81.229865321653151
20
340.00553672910803
30
1.1102230246251565e-15
10
-80.704410510215752
20
339.82613471002281
30
1.1102230246251565e-15
10
-80.255528535411401
20
339.65656963398271
30
1.1102230246251565e-15
10
-78.779830258081972
20
338.88224789294776
30
1.1102230246251565e-15
10
-77.940176062701681
20
338.28911871505193
30
1.1102230246251565e-15
10
-77.178613346109557
20
337.63759885247271
30
1.1102230246251565e-15
0
LINE
5
103
100
AcDbEntity
8
0
100
AcDbLine
10
-82.334546598241189
20
340.21063199452612
30
1.1102230246251565e-15
11
-84.623133331798101
21
340.14717528144871
31
1.1102230246251565e-15
0
ARC
5
104
100
AcDbEntity
8
0
100
AcDbCircle
10
-84.650850146305899
20
341.14679109674654
30
1.1102230246251565e-15
40
1.0000000000000009
100
AcDbArc
50
184.57920609739793
51
271.58825989310503
0
ARC
5
105
100
AcDbEntity
8
0
100
AcDbCircle
10
-103.93477660623503
20
339.60228687577421
30
1.1102230246251565e-15
40
18.345679440137431
100
AcDbArc
50
4.579206097400399
51
12.063941020158241
0
ARC
5
106
100
AcDbEntity
8
0
100
AcDbCircle
10
-85.016347152012756
20
343.64559492564786
30
1.1102230246251565e-15
40
1.0000000000000155
100
AcDbArc
50
105.05488722445166
51
192.06394102015821
0
LINE
5
107
100
AcDbEntity
8
0
100
AcDbLine
10
-85.27609139920925
20
344.6112723697504
30
1.1102230246251565e-15
11
-83.065205423170895
21
345.20594807331003
31
1.1102230246251565e-15
0
SPLINE
5
108
100
AcDbEntity
8
0
100
AcDbSpline
70
1064
71
3
72
12
73
8
74
0
42
0.000000001
43
0.0000000001
44
0.0000000001
40
-0.11852023364733957
40
-0.11852023364733957
40
-0.11852023364733957
40
-0.11852023364733957
40
-0.086893822903470808
40
-0.086893822903470808
40
-0.037593366814751533
40
-0.037593366814751533
40
0
40
0
40
0
40
0
10
-78.862211164376092
20
349.1479001926387
30
1.1102230246251565e-15
10
-79.35963478472982
20
348.37633779383344
30
1.1102230246251565e-15
10
-79.933059278433319
20
347.63419520856041
30
1.1102230246251565e-15
10
-81.574669817230301
20
345.95637074649017
30
1.1102230246251565e-15
10
-82.361831017123819
20
345.5314200920659
30
1.1102230246251565e-15
10
-82.827527631148058
20
345.28966813604643
30
1.1102230246251565e-15
10
-82.944195201901309
20
345.23849694251965
30
1.1102230246251565e-15
10
-83.065205423170895
20
345.20594807331003
30
1.1102230246251565e-15
0
ARC
5
109
100
AcDbEntity
8
0
100
AcDbCircle
10
-103.93477660623503
20
339.60228687577421
30
1.1102230246251565e-15
40
26.82819918353448
100
AcDbArc
50
20.842802528852484
51
25.800344588706601
0
SPLINE
5
110
100
AcDbEntity
8
0
100
AcDbSpline
70
1064
71
3
72
12
73
8
74
0
42
0.000000001
43
0.0000000001
44
0.0000000001
40
-0.67625375615592442
40
-0.67625375615592442
40
-0.67625375615592442
40
-0.67625375615592442
40
-0.50043993558362843
40
-0.50043993558362843
40
-0.30066764250349454
40
-0.30066764250349454
40
0
40
0
40
0
40
0
10
-85.532601251101497
20
350.92924420687922
30
1.1102230246251565e-15
10
-85.157772923453393
20
351.15973427396329
30
1.1102230246251565e-15
10
-84.473371569807867
20
351.30396713512016
30
1.1102230246251565e-15
10
-83.928613345037135
20
351.41132783481748
30
1.1102230246251565e-15
10
-83.455087613514792
20
351.48892115878192
30
1.1102230246251565e-15
10
-81.789934546509798
20
351.55618799900765
30
1.1102230246251565e-15
10
-80.766208094006146
20
351.46235016092641
30
1.1102230246251565e-15
10
-79.780915503511849
20
351.27889876714755
30
1.1102230246251565e-15
0
LINE
5
111
100
AcDbEntity
8
0
100
AcDbLine
10
-85.532601251101497
20
350.92924420687922
30
1.1102230246251565e-15
11
-87.48284714458714
21
349.72999571453505
31
1.1102230246251565e-15
0
ARC
5
112
100
AcDbEntity
8
0
100
AcDbCircle
10
-88.006658517711784
20
350.58182999735385
30
1.1102230246251565e-15
40
1.0000000000000122
100
AcDbArc
50
214.5792060973983
51
301.58825989310225
0
ARC
5
113
100
AcDbEntity
8
0
100
AcDbCircle
10
-103.93477660623503
20
339.60228687577421
30
1.1102230246251565e-15
40
18.345679440137751
100
AcDbArc
50
34.579206097402512
51
42.063941020160058
0
ARC
5
114
100
AcDbEntity
8
0
100
AcDbCircle
10
-89.572590124111699
20
352.5631090894027
30
1.1102230246251565e-15
40
0.9999999999999909
100
AcDbArc
50
135.05488722445182
51
222.06394102015736
0
LINE
5
115
100
AcDbEntity
8
0
100
AcDbLine
10
-90.280373962721967
20
353.26953816425885
30
1.1102230246251565e-15
11
-88.66302839438184
21
354.88998541857421
31
1.1102230246251565e-15
0
SPLINE
5
116
100
AcDbEntity
8
0
100
AcDbSpline
70
1064
71
3
72
12
73
8
74
0
42
0.000000001
43
0.0000000001
44
0.0000000001
40
-0.11852023355788091
40
-0.11852023355788091
40
-0.11852023355788091
40
-0.11852023355788091
40
-0.086893822852601804
40
-0.086893822852601804
40
-0.037593366816195364
40
-0.037593366816195364
40
0
40
0
40
0
40
0
10
-86.994104653969771
20
360.40531322381207
30
1.1102230246251565e-15
10
-87.039104946240201
20
359.48840877557751
30
1.1102230246251565e-15
10
-87.164633832317477
20
358.55898219666335
30
1.1102230246251565e-15
10
-87.747398031008444
20
356.2851383199922
30
1.1102230246251565e-15
10
-88.216624299928043
20
355.52353965778468
30
1.1102230246251565e-15
10
-88.499053419939301
20
355.08132801572691
30
1.1102230246251565e-15
10
-88.574504903246208
20
354.97867867681231
30
1.1102230246251565e-15
10
-88.66302839438184
20
354.88998541857416
30
1.1102230246251565e-15
0
ARC
5
117
100
AcDbEntity
8
0
100
AcDbCircle
10
-103.93477660623503
20
339.60228687577421
30
1.1102230246251565e-15
40
26.828199183534934
100
AcDbArc
50
50.842802528853689
51
55.80034458870778
0
SPLINE
5
118
100
AcDbEntity
8
0
100
AcDbSpline
70
1064
71
3
72
12
73
8
74
0
42
0.000000001
43
0.0000000001
44
0.0000000001
40
-0.67625375624219997
40
-0.67625375624219997
40
-0.67625375624219997
40
-0.67625375624219997
40
-0.500439935645418
40
-0.500439935645418
40
-0.3006676425400942
40
-0.3006676425400942
40
0
40
0
40
0
40
0
10
-93.661503929346082
20
358.61280734966101
30
1.1102230246251565e-15
10
-93.452138109087684
20
358.99983176689807
30
1.1102230246251565e-15
10
-92.931545581027351
20
359.46694176554172
30
1.1102230246251565e-15
10
-92.513451469299298
20
359.83229797123727
30
1.1102230246251565e-15
10
-92.142162818415898
20
360.13625862672893
30
1.1102230246251565e-15
10
-90.733731381373673
20
361.02708995266113
30
1.1102230246251565e-15
10
-89.800239348015779
20
361.4576872272815
30
1.1102230246251565e-15
10
-88.855225237482713
20
361.79145995519724
30
1.1102230246251565e-15
0
LINE
5
119
100
AcDbEntity
8
0
100
AcDbLine
10
-93.661503929346082
20
358.61280734966101
30
1.1102230246251565e-15
11
-94.750842170558869
21
356.599104743098
31
1.1102230246251565e-15
0
ARC
5
120
100
AcDbEntity
8
0
100
AcDbCircle
10
-95.630393267885381
20
357.07490918527122
30
1.1102230246251565e-15
40
1.0000000000000324
100
AcDbArc
50
244.57920609740111
51
331.58825989310265
0
ARC
5
121
100
AcDbEntity
8
0
100
AcDbCircle
10
-103.93477660623503
20
339.60228687577421
30
1.1102230246251565e-15
40
18.345679440138333
100
AcDbArc
50
64.579206097403599
51
72.063941020161181
0
ARC
5
122
100
AcDbEntity
8
0
100
AcDbCircle
10
-97.977169365641146
20
358.00778140777254
30
1.1102230246251565e-15
40
1.0000000000000002
100
AcDbArc
50
165.05488722445347
51
252.06394102015696
0
LINE
5
123
100
AcDbEntity
8
0
100
AcDbLine
10
-98.943342687693786
20
358.26567501326474
30
1.1102230246251565e-15
11
-98.352903965970683
21
360.47769628516454
31
1.1102230246251565e-15
0
SPLINE
5
124
100
AcDbEntity
8
0
100
AcDbSpline
70
1064
71
3
72
12
73
8
74
0
42
0.000000001
43
0.0000000001
44
0.0000000001
40
-0.11852023357593632
40
-0.11852023357593632
40
-0.11852023357593632
40
-0.11852023357593632
40
-0.086893822862156953
40
-0.086893822862156953
40
-0.037593366814794818
40
-0.037593366814794818
40
0
40
0
40
0
40
0
10
-99.665237512413839
20
366.08857214490536
30
1.1102230246251565e-15
10
-99.245756684604572
20
365.27200945380309
30
1.1102230246251565e-15
10
-98.889754599381448
20
364.40433798244777
30
1.1102230246251565e-15
10
-98.257521261530044
20
362.14374932167209
30
1.1102230246251565e-15
10
-98.28308379942159
20
361.24957239831053
30
1.1102230246251565e-15
10
-98.306568771095314
20
360.72539132233857
30
1.1102230246251565e-15
10
-98.320587002935795
20
360.59876864550654
30
1.1102230246251565e-15
10
-98.352903965970668
20
360.47769628516454
30
1.1102230246251565e-15
0
ARC
5
125
100
AcDbEntity
8
0
100
AcDbCircle
10
-103.93477660623503
20
339.60228687577421
30
1.1102230246251565e-15
40
26.82819918353561
100
AcDbArc
50
80.842802528854165
51
85.800344588708171
0
SPLINE
5
126
100
AcDbEntity
8
0
100
AcDbSpline
70
1064
71
3
72
12
73
8
74
0
42
0.000000001
43
0.0000000001
44
0.0000000001
40
-0.67625375604570304
40
-0.67625375604570304
40
-0.67625375604570304
40
-0.67625375604570304
40
-0.50043993553848876
40
-0.50043993553848876
40
-0.30066764248298644
40
-0.30066764248298644
40
0
40
0
40
0
40
0
10
-104.54312172498817
20
361.20251688376953
30
1.1102230246251565e-15
10
-104.55531781457923
20
361.64237277112647
30
1.1102230246251565e-15
10
-104.33802645957002
20
362.30719816035759
30
1.1102230246251565e-15
10
-104.15862444048511
20
362.83265297179418
30
1.1102230246251565e-15
10
-103.98905936444703
20
363.281534946595
30
1.1102230246251565e-15
10
-103.21473762340705
20
364.75723322393378
30
1.1102230246251565e-15
10
-102.62160844550971
20
365.59688741931404
30
1.1102230246251565e-15
10
-101.97008858293474
20
366.35845013590114
30
1.1102230246251565e-15
0
LINE
5
127
100
AcDbEntity
8
0
100
AcDbLine
10
-104.54312172498817
20
361.20251688376953
30
1.1102230246251565e-15
11
-104.47966501191077
21
358.91393015021265
31
1.1102230246251565e-15
0
ARC
5
128
100
AcDbEntity
8
0
100
AcDbCircle
10
-105.4792808272086
20
358.88621333570484
30
1.1102230246251565e-15
40
1.0000000000000377
100
AcDbArc
50
-85.420793902600337
51
1.5882598931056391
0
ARC
5
129
100
AcDbEntity
8
0
100
AcDbCircle
10
-103.93477660623503
20
339.60228687577421
30
1.1102230246251565e-15
40
18.345679440139001
100
AcDbArc
50
94.57920609740377
51
102.06394102016094
0
ARC
5
130
100
AcDbEntity
8
0
100
AcDbCircle
10
-107.97808465610986
20
358.52071632999798
30
1.1102230246251565e-15
40
0.99999999999999822
100
AcDbArc
50
195.05488722445384
51
282.06394102015742
0
LINE
5
131
100
AcDbEntity
8
0
100
AcDbLine
10
-108.94376210021235
20
358.26097208280146
30
1.1102230246251565e-15
11
-109.53843780377206
21
360.47185805883987
31
1.1102230246251565e-15
0
SPLINE
5
132
100
AcDbEntity
8
0
100
AcDbSpline
70
1064
71
3
72
12
73
8
74
0
42
0.000000001
43
0.0000000001
44
0.0000000001
40
-0.11852023354661176
40
-0.11852023354661176
40
-0.11852023354661176
40
-0.11852023354661176
40
-0.086893822844623533
40
-0.086893822844623533
40
-0.037593366813654973
40
-0.037593366813654973
40
0
40
0
40
0
40
0
10
-113.48038992310077
20
364.67485231763465
30
1.1102230246251565e-15
10
-112.70882752422398
20
364.17742869723486
30
1.1102230246251565e-15
10
-111.96668493896964
20
363.60400420352585
30
1.1102230246251565e-15
10
-110.28886047688388
20
361.96239366471355
30
1.1102230246251565e-15
10
-109.86390982238214
20
361.1752324646057
30
1.1102230246251565e-15
10
-109.62215786650462
20
360.70953585085584
30
1.1102230246251565e-15
10
-109.57098667298071
20
360.5928682801059
30
1.1102230246251565e-15
10
-109.53843780377206
20
360.47185805883987
30
1.1102230246251565e-15
0
ARC
5
133
100
AcDbEntity
8
0
100
AcDbCircle
10
-103.93477660623503
20
339.60228687577421
30
1.1102230246251565e-15
40
26.828199183536299
100
AcDbArc
50
110.84280252885385
51
115.80034458870772
0
SPLINE
5
134
100
AcDbEntity
8
0
100
AcDbSpline
70
1064
71
3
72
12
73
8
74
0
42
0.000000001
43
0.0000000001
44
0.0000000001
40
-0.67625375608189098
40
-0.67625375608189098
40
-0.67625375608189098
40
-0.67625375608189098
40
-0.50043993556823874
40
-0.50043993556823874
40
-0.30066764250114092
40
-0.30066764250114092
40
0
40
0
40
0
40
0
10
-115.26173393734126
20
358.00446223090933
30
1.1102230246251565e-15
10
-115.49222400443279
20
358.37929055856955
30
1.1102230246251565e-15
10
-115.6364568655875
20
359.06369191222996
30
1.1102230246251565e-15
10
-115.74381756528874
20
359.60845013702067
30
1.1102230246251565e-15
10
-115.82141088924524
20
360.08197586852975
30
1.1102230246251565e-15
10
-115.88867772946995
20
361.74712893550753
30
1.1102230246251565e-15
10
-115.79483989138701
20
362.77085538801231
30
1.1102230246251565e-15
10
-115.61138849760951
20
363.75614797849892
30
1.1102230246251565e-15
0
LINE
5
135
100
AcDbEntity
8
0
100
AcDbLine
10
-115.26173393734126
20
358.00446223090933
30
1.1102230246251565e-15
11
-114.06248544499712
21
356.05421633742367
31
1.1102230246251565e-15
0
ARC
5
136
100
AcDbEntity
8
0
100
AcDbCircle
10
-114.91431972781585
20
355.53040496429901
30
1.1102230246251565e-15
40
0.99999999999996847
100
AcDbArc
50
-55.420793902600572
51
31.588259893105064
0
ARC
5
137
100
AcDbEntity
8
0
100
AcDbCircle
10
-103.93477660623503
20
339.60228687577421
30
1.1102230246251565e-15
40
18.345679440139733
100
AcDbArc
50
124.57920609740273
51
132.0639410201598
0
ARC
5
138
100
AcDbEntity
8
0
100
AcDbCircle
10
-116.89559881986474
20
353.96447335789901
30
1.1102230246251565e-15
40
0.9999999999999909
100
AcDbArc
50
225.05488722445003
51
312.06394102015793
0
LINE
5
139
100
AcDbEntity
8
0
100
AcDbLine
10
-117.60202789472089
20
353.25668951928878
30
1.1102230246251565e-15
11
-119.22247514903616
21
354.8740350876289
31
1.1102230246251565e-15
0
SPLINE
5
140
100
AcDbEntity
8
0
100
AcDbSpline
70
1064
71
3
72
12
73
8
74
0
42
0.000000001
43
0.0000000001
44
0.0000000001
40
-0.11852023355788091
40
-0.11852023355788091
40
-0.11852023355788091
40
-0.11852023355788091
40
-0.086893822852601804
40
-0.086893822852601804
40
-0.037593366816195364
40
-0.037593366816195364
40
0
40
0
40
0
40
0
10
-124.73780295427414
20
356.54295882804098
30
1.1102230246251565e-15
10
-123.82089850603954
20
356.49795853577052
30
1.1102230246251565e-15
10
-122.89147192712539
20
356.37242964969323
30
1.1102230246251565e-15
10
-120.61762805045426
20
355.78966545100235
30
1.1102230246251565e-15
10
-119.85602938824663
20
355.32043918208268
30
1.1102230246251565e-15
10
-119.41381774618895
20
355.03801006207146
30
1.1102230246251565e-15
10
-119.31116840727432
20
354.96255857876457
30
1.1102230246251565e-15
10
-119.22247514903616
20
354.8740350876289
30
1.1102230246251565e-15
0
ARC
5
141
100
AcDbEntity
8
0
100
AcDbCircle
10
-103.93477660623503
20
339.60228687577421
30
1.1102230246251565e-15
40
26.828199183536867
100
AcDbArc
50
140.8428025288529
51
145.80034458870674
0
SPLINE
5
142
100
AcDbEntity
8
0
100
AcDbSpline
70
1064
71
3
72
12
73
8
74
0
42
0.000000001
43
0.0000000001
44
0.0000000001
40
-0.67625375624219997
40
-0.67625375624219997
40
-0.67625375624219997
40
-0.67625375624219997
40
-0.500439935645418
40
-0.500439935645418
40
-0.3006676425400942
40
-0.3006676425400942
40
0
40
0
40
0
40
0
10
-122.94529708012305
20
349.87555955266464
30
1.1102230246251565e-15
10
-123.33232149736014
20
350.08492537292295
30
1.1102230246251565e-15
10
-123.79943149600381
20
350.60551790098344
30
1.1102230246251565e-15
10
-124.16478770169934
20
351.02361201271145
30
1.1102230246251565e-15
10
-124.46874835719102
20
351.39490066359485
30
1.1102230246251565e-15
10
-125.3595796831232
20
352.80333210063708
30
1.1102230246251565e-15
10
-125.79017695774354
20
353.73682413399501
30
1.1102230246251565e-15
10
-126.12394968565926
20
354.68183824452802
30
1.1102230246251565e-15
0
LINE
5
143
100
AcDbEntity
8
0
100
AcDbLine
10
-122.94529708012305
20
349.87555955266464
30
1.1102230246251565e-15
11
-120.93159447356001
21
348.78622131145187
31
1.1102230246251565e-15
0
ARC
5
144
100
AcDbEntity
8
0
100
AcDbCircle
10
-121.40739891573321
20
347.90667021412537
30
1.1102230246251565e-15
40
0.99999999999999267
100
AcDbArc
50
-25.420793902598422
51
61.588259893103675
0
ARC
5
145
100
AcDbEntity
8
0
100
AcDbCircle
10
-103.93477660623503
20
339.60228687577421
30
1.1102230246251565e-15
40
18.345679440140085
100
AcDbArc
50
154.57920609740088
51
162.06394102015801
0
ARC
5
146
100
AcDbEntity
8
0
100
AcDbCircle
10
-122.34027113823457
20
345.55989411636966
30
1.1102230246251565e-15
40
0.99999999999999212
100
AcDbArc
50
255.0548872244523
51
342.06394102015105
0
LINE
5
147
100
AcDbEntity
8
0
100
AcDbLine
10
-122.59816474372678
20
344.59372079431705
30
1.1102230246251565e-15
11
-124.81018601562661
21
345.18415951604004
31
1.1102230246251565e-15
0
SPLINE
5
148
100
AcDbEntity
8
0
100
AcDbSpline
70
1064
71
3
72
12
73
8
74
0
42
0.000000001
43
0.0000000001
44
0.0000000001
40
-0.11852023356885102
40
-0.11852023356885102
40
-0.11852023356885102
40
-0.11852023356885102
40
-0.086893822857837075
40
-0.086893822857837075
40
-0.037593366814382002
40
-0.037593366814382002
40
0
40
0
40
0
40
0
10
-130.42106187536743
20
343.8718259695969
30
1.1102230246251565e-15
10
-129.60449918426059
20
344.29130679740854
30
1.1102230246251565e-15
10
-128.73682771290549
20
344.64730888263057
30
1.1102230246251565e-15
10
-126.47623905212966
20
345.27954222048197
30
1.1102230246251565e-15
10
-125.58206212875503
20
345.25397968258835
30
1.1102230246251565e-15
10
-125.05788105279855
20
345.23049471091531
30
1.1102230246251565e-15
10
-124.93125837596727
20
345.21647647907457
30
1.1102230246251565e-15
10
-124.81018601562661
20
345.18415951604004
30
1.1102230246251565e-15
0
ARC
5
149
100
AcDbEntity
8
0
100
AcDbCircle
10
-103.93477660623503
20
339.60228687577421
30
1.1102230246251565e-15
40
26.82819918353708
100
AcDbArc
50
170.84280252885145
51
175.80034458870531
0
SPLINE
5
150
100
AcDbEntity
8
0
100
AcDbSpline
70
1064
71
3
72
12
73
8
74
0
42
0.000000001
43
0.0000000001
44
0.0000000001
40
-0.67625375604373272
40
-0.67625375604373272
40
-0.67625375604373272
40
-0.67625375604373272
40
-0.50043993553685973
40
-0.50043993553685973
40
-0.30066764248195138
40
-0.30066764248195138
40
0
40
0
40
0
40
0
10
-125.53500661423159
20
338.99394175702264
30
1.1102230246251565e-15
10
-125.97486250158852
20
338.98174566743148
30
1.1102230246251565e-15
10
-126.63968789081964
20
339.19903702244073
30
1.1102230246251565e-15
10
-127.16514270225595
20
339.37843904152555
30
1.1102230246251565e-15
10
-127.61402467705511
20
339.54800411756264
30
1.1102230246251565e-15
10
-129.08972295439847
20
340.32232585860504
30
1.1102230246251565e-15
10
-129.92937714977867
20
340.9154550365032
30
1.1102230246251565e-15
10
-130.69093986636321
20
341.566974899076
30
1.1102230246251565e-15
0
LINE
5
151
100
AcDbEntity
8
0
100
AcDbLine
10
-125.53500661423159
20
338.99394175702264
30
1.1102230246251565e-15
11
-123.24641988067468
21
339.05739847010005
31
1.1102230246251565e-15
0
ARC
5
152
100
AcDbEntity
8
0
100
AcDbCircle
10
-123.21870306616688
20
338.05778265480217
30
1.1102230246251565e-15
40
1.0000000000000009
100
AcDbArc
50
4.5792060973979289
51
91.588259893104933
0
ARC
5
153
100
AcDbEntity
8
0
100
AcDbCircle
10
-103.93477660623503
20
339.60228687577421
30
1.1102230246251565e-15
40
18.34567944014012
100
AcDbArc
50
184.57920609739878
51
192.06394102015574
0
ARC
5
154
100
AcDbEntity
8
0
100
AcDbCircle
10
-122.85320606046002
20
335.55897882590091
30
1.1102230246251565e-15
40
1.0000000000000109
100
AcDbArc
50
-74.945112775549887
51
12.063941020151667
0
LINE
5
155
100
AcDbEntity
8
0
100
AcDbLine
10
-122.59346181326356
20
334.59330138179837
30
1.1102230246251565e-15
11
-124.80434778930189
21
333.99862567823868
31
1.1102230246251565e-15
0
SPLINE
5
156
100
AcDbEntity
8
0
100
AcDbSpline
70
1064
71
3
72
12
73
8
74
0
42
0.000000001
43
0.0000000001
44
0.0000000001
40
-0.11852023357039804
40
-0.11852023357039804
40
-0.11852023357039804
40
-0.11852023357039804
40
-0.086893822859102354
40
-0.086893822859102354
40
-0.037593366815041836
40
-0.037593366815041836
40
0
40
0
40
0
40
0
10
-129.00734204809669
20
330.05667355890989
30
1.1102230246251565e-15
10
-128.50991842770699
20
330.82823595777108
30
1.1102230246251565e-15
10
-127.93649393399933
20
331.57037854302928
30
1.1102230246251565e-15
10
-126.29488339518733
20
333.24820300511499
30
1.1102230246251565e-15
10
-125.50772219512275
20
333.67315365960008
30
1.1102230246251565e-15
10
-125.0420255813236
20
333.91490561550313
30
1.1102230246251565e-15
10
-124.92535801057241
20
333.96607680902883
30
1.1102230246251565e-15
10
-124.80434778930189
20
333.99862567823868
30
1.1102230246251565e-15
0
ARC
5
157
100
AcDbEntity
8
0
100
AcDbCircle
10
-103.93477660623503
20
339.60228687577421
30
1.1102230246251565e-15
40
26.828199183536924
100
AcDbArc
50
200.84280252885006
51
205.80034458870378
0
SPLINE
5
158
100
AcDbEntity
8
0
100
AcDbSpline
70
1064
71
3
72
12
73
8
74
0
42
0.000000001
43
0.0000000001
44
0.0000000001
40
-0.67625375618599848
40
-0.67625375618599848
40
-0.67625375618599848
40
-0.67625375618599848
40
-0.50043993558598676
40
-0.50043993558598676
40
-0.30066764250115302
40
-0.30066764250115302
40
0
40
0
40
0
40
0
10
-122.33695196137127
20
328.27532954466955
30
1.1102230246251565e-15
10
-122.71178028901276
20
328.04483947758956
30
1.1102230246251565e-15
10
-123.39618164265346
20
327.90060661643088
30
1.1102230246251565e-15
10
-123.94093986740981
20
327.79324591673623
30
1.1102230246251565e-15
10
-124.41446559893281
20
327.71565259276792
30
1.1102230246251565e-15
10
-126.07961866596953
20
327.64838575254083
30
1.1102230246251565e-15
10
-127.10334511847432
20
327.74222359062372
30
1.1102230246251565e-15
10
-128.0886377089609
20
327.92567498440121
30
1.1102230246251565e-15
0
LINE
5
159
100
AcDbEntity
8
0
100
AcDbLine
10
-122.33695196137127
20
328.27532954466955
30
1.1102230246251565e-15
11
-120.38670606788563
21
329.47457803701366
31
1.1102230246251565e-15
0
ARC
5
160
100
AcDbEntity
8
0
100
AcDbCircle
10
-119.86289469476098
20
328.62274375419486
30
1.1102230246251565e-15
40
1.0000000000000122
100
AcDbArc
50
34.579206097398284
51
121.58825989310226
0
ARC
5
161
100
AcDbEntity
8
0
100
AcDbCircle
10
-103.93477660623503
20
339.60228687577421
30
1.1102230246251565e-15
40
18.345679440139769
100
AcDbArc
50
214.57920609739699
51
222.06394102015381
0
ARC
5
162
100
AcDbEntity
8
0
100
AcDbCircle
10
-118.29696308836107
20
326.64146466214606
30
1.1102230246251565e-15
40
0.9999999999999909
100
AcDbArc
50
-44.945112775548196
51
42.063941020153621
0
LINE
5
163
100
AcDbEntity
8
0
100
AcDbLine
10
-117.5891792497508
20
325.93503558728992
30
1.1102230246251565e-15
11
-119.20652481809091
21
324.31458833297455
31
1.1102230246251565e-15
0
SPLINE
5
164
100
AcDbEntity
8
0
100
AcDbSpline
70
1064
71
3
72
12
73
8
74
0
42
0.000000001
43
0.0000000001
44
0.0000000001
40
-0.11852023354399145
40
-0.11852023354399145
40
-0.11852023354399145
40
-0.11852023354399145
40
-0.086893822844793647
40
-0.086893822844793647
40
-0.037593366816555028
40
-0.037593366816555028
40
0
40
0
40
0
40
0
10
-120.87544855850302
20
318.79926052773658
30
1.1102230246251565e-15
10
-120.83044826623185
20
319.71616497598609
30
1.1102230246251565e-15
10
-120.70491938015211
20
320.64559155489792
30
1.1102230246251565e-15
10
-120.1221551814599
20
322.9194354315739
30
1.1102230246251565e-15
10
-119.65292891251534
20
323.68103409381013
30
1.1102230246251565e-15
10
-119.37049979253446
20
324.12324573582026
30
1.1102230246251565e-15
10
-119.29504830922741
20
324.2258950747356
30
1.1102230246251565e-15
10
-119.20652481809093
20
324.31458833297461
30
1.1102230246251565e-15
0
ARC
5
165
100
AcDbEntity
8
0
100
AcDbCircle
10
-103.93477660623503
20
339.60228687577421
30
1.1102230246251565e-15
40
26.828199183536459
100
AcDbArc
50
230.84280252884884
51
235.8003445887027
0
SPLINE
5
166
100
AcDbEntity
8
0
100
AcDbSpline
70
1064
71
3
72
12
73
8
74
0
42
0.000000001
43
0.0000000001
44
0.0000000001
40
-0.67625375606213589
40
-0.67625375606213589
40
-0.67625375606213589
40
-0.67625375606213589
40
-0.50043993552907351
40
-0.50043993552907351
40
-0.30066764247483868
40
-0.30066764247483868
40
0
40
0
40
0
40
0
10
-114.20804928312668
20
320.59176640188775
30
1.1102230246251565e-15
10
-114.41741510338808
20
320.20474198464507
30
1.1102230246251565e-15
10
-114.93800763145421
20
319.7376319859992
30
1.1102230246251565e-15
10
-115.35610174318718
20
319.37227578029939
30
1.1102230246251565e-15
10
-115.72739039404794
20
319.06831512482518
30
1.1102230246251565e-15
10
-117.13582183114524
20
318.17748379885859
30
1.1102230246251565e-15
10
-118.06931386466195
20
317.74688652419434
30
1.1102230246251565e-15
10
-119.01432797499005
20
317.41311379635147
30
1.1102230246251565e-15
0
LINE
5
167
100
AcDbEntity
8
0
100
AcDbLine
10
-114.20804928312668
20
320.59176640188775
30
1.1102230246251565e-15
11
-113.1187110419139
21
322.60546900845077
31
1.1102230246251565e-15
0
ARC
5
168
100
AcDbEntity
8
0
100
AcDbCircle
10
-112.23915994458737
20
322.12966456627754
30
1.1102230246251565e-15
40
1.0000000000000324
100
AcDbArc
50
64.579206097399705
51
151.58825989310304
0
ARC
5
169
100
AcDbEntity
8
0
100
AcDbCircle
10
-103.93477660623503
20
339.60228687577421
30
1.1102230246251565e-15
40
18.345679440139161
100
AcDbArc
50
244.57920609739563
51
252.0639410201529
0
ARC
5
170
100
AcDbEntity
8
0
100
AcDbCircle
10
-109.89238384683162
20
321.19679234377611
30
1.1102230246251565e-15
40
1.0000000000000002
100
AcDbArc
50
-14.945112775543398
51
72.063941020157955
0
LINE
5
171
100
AcDbEntity
8
0
100
AcDbLine
10
-108.92621052477898
20
320.93889873828397
30
1.1102230246251565e-15
11
-109.51664924650208
21
318.72687746638417
31
1.1102230246251565e-15
0
SPLINE
5
172
100
AcDbEntity
8
0
100
AcDbSpline
70
1064
71
3
72
12
73
8
74
0
42
0.000000001
43
0.0000000001
44
0.0000000001
40
-0.11852023356603709
40
-0.11852023356603709
40
-0.11852023356603709
40
-0.11852023356603709
40
-0.086893822856081382
40
-0.086893822856081382
40
-0.037593366814147128
40
-0.037593366814147128
40
0
40
0
40
0
40
0
10
-108.20431570005893
20
313.11600160664335
30
1.1102230246251565e-15
10
-108.62379652787133
20
313.93256429775175
30
1.1102230246251565e-15
10
-108.97979861309297
20
314.80023576910673
30
1.1102230246251565e-15
10
-109.61203195094433
20
317.06082442988242
30
1.1102230246251565e-15
10
-109.58646941305017
20
317.95500135326131
30
1.1102230246251565e-15
10
-109.5629844413773
20
318.47918242921355
30
1.1102230246251565e-15
10
-109.5489662095364
20
318.60580510604427
30
1.1102230246251565e-15
10
-109.5166492465021
20
318.72687746638411
30
1.1102230246251565e-15
0
ARC
5
173
100
AcDbEntity
8
0
100
AcDbCircle
10
-103.93477660623503
20
339.60228687577421
30
1.1102230246251565e-15
40
26.828199183535762
100
AcDbArc
50
260.84280252884838
51
265.80034458870233
0
SPLINE
5
174
100
AcDbEntity
8
0
100
AcDbSpline
70
1064
71
3
72
12
73
8
74
0
42
0.000000001
43
0.0000000001
44
0.0000000001
40
-0.67625375604005689
40
-0.67625375604005689
40
-0.67625375604005689
40
-0.67625375604005689
40
-0.50043993553747457
40
-0.50043993553747457
40
-0.30066764248298689
40
-0.30066764248298689
40
0
40
0
40
0
40
0
10
-103.3264314874846
20
318.00205686777917
30
1.1102230246251565e-15
10
-103.3142353978935
20
317.56220098042115
30
1.1102230246251565e-15
10
-103.53152675290333
20
316.89737559118942
30
1.1102230246251565e-15
10
-103.71092877198903
20
316.3719207797505
30
1.1102230246251565e-15
10
-103.88049384802733
20
315.92303880495064
30
1.1102230246251565e-15
10
-104.65481558906572
20
314.44734052761487
30
1.1102230246251565e-15
10
-105.24794476696303
20
313.60768633223466
30
1.1102230246251565e-15
10
-105.89946462953803
20
312.84612361564757
30
1.1102230246251565e-15
0
LINE
5
175
100
AcDbEntity
8
0
100
AcDbLine
10
-103.3264314874846
20
318.00205686777917
30
1.1102230246251565e-15
11
-103.389888200562
21
320.290643601336
31
1.1102230246251565e-15
0
ARC
5
176
100
AcDbEntity
8
0
100
AcDbCircle
10
-102.39027238526417
20
320.31836041584381
30
1.1102230246251565e-15
40
1.0000000000000377
100
AcDbArc
50
94.579206097399393
51
181.58825989310563
0
ARC
5
177
100
AcDbEntity
8
0
100
AcDbCircle
10
-103.93477660623503
20
339.60228687577421
30
1.1102230246251565e-15
40
18.3456794401385
100
AcDbArc
50
274.57920609739546
51
282.06394102015287
0
ARC
5
178
100
AcDbEntity
8
0
100
AcDbCircle
10
-99.891468556362909
20
320.68385742155073
30
1.1102230246251565e-15
40
0.99999999999999822
100
AcDbArc
50
15.054887224450693
51
102.06394102015813
0
LINE
5
179
100
AcDbEntity
8
0
100
AcDbLine
10
-98.925791112260413
20
320.94360166874719
30
1.1102230246251565e-15
11
-98.331115408700711
21
318.73271569270895
31
1.1102230246251565e-15
0
SPLINE
5
180
100
AcDbEntity
8
0
100
AcDbSpline
70
1064
71
3
72
12
73
8
74
0
42
0.000000001
43
0.0000000001
44
0.0000000001
40
-0.11852023364733957
40
-0.11852023364733957
40
-0.11852023364733957
40
-0.11852023364733957
40
-0.086893822903470808
40
-0.086893822903470808
40
-0.037593366814751533
40
-0.037593366814751533
40
0
40
0
40
0
40
0
10
-94.389163289371993
20
314.52972143391412
30
1.1102230246251565e-15
10
-95.16072568817728
20
315.02714505426775
30
1.1102230246251565e-15
10
-95.902868273450338
20
315.60056954797125
30
1.1102230246251565e-15
10
-97.5806927355205
20
317.24218008676826
30
1.1102230246251565e-15
10
-98.005643389944836
20
318.0293412866618
30
1.1102230246251565e-15
10
-98.247395345964435
20
318.49503790068604
30
1.1102230246251565e-15
10
-98.298566539491105
20
318.61170547143928
30
1.1102230246251565e-15
10
-98.331115408700711
20
318.73271569270889
30
1.1102230246251565e-15
0
ARC
5
181
100
AcDbEntity
8
0
100
AcDbCircle
10
-103.93477660623503
20
339.60228687577421
30
1.1102230246251565e-15
40
26.828199183535041
100
AcDbArc
50
290.84280252884872
51
295.80034458870279
0
SPLINE
5
182
100
AcDbEntity
8
0
100
AcDbSpline
70
1064
71
3
72
8
73
4
74
0
42
0.000000001
43
0.0000000001
44
0.0000000001
40
-0.22623284169278457
40
-0.22623284169278457
40
-0.22623284169278457
40
-0.22623284169278457
40
0
40
0
40
0
40
0
10
-92.015300361416536
20
317.71151610179294
30
1.1102230246251565e-15
10
-92.03282969810499
20
316.95292258142177
30
1.1102230246251565e-15
10
-92.120129475083061
20
316.18979435129239
30
1.1102230246251565e-15
10
-92.258164714863241
20
315.44842577304985
30
1.1102230246251565e-15
0
ARC
5
183
100
AcDbEntity
8
0
100
AcDbCircle
10
-89.950181133460632
20
315.53544565846278
30
1.1102230246251565e-15
40
3.0000000000000835
100
AcDbArc
50
52.32157361222874
51
133.50146131635935
0
LINE
5
184
100
AcDbEntity
8
0
100
AcDbLine
10
-88.116493902462679
20
317.90980686495084
30
1.1102230246251563e-15
11
71.53673014161501
21
194.61176884221595
31
1.1102230246251565e-15
0
ARC
5
185
100
AcDbEntity
8
0
100
AcDbCircle
10
74.592875526611451
20
198.56903751969605
30
1.1102230246251563e-15
40
5.0000000000000107
100
AcDbArc
50
232.32157361223011
51
322.32157361223017
0
LINE
5
186
100
AcDbEntity
8
0
100
AcDbLine
10
78.55014420409158
20
195.5128921346996
30
1.1102230246251565e-15
11
81.60628958908795
21
199.47016081217978
31
1.1102230246251565e-15
0
ARC
5
187
100
AcDbEntity
8
0
100
AcDbCircle
10
77.64902091160782
20
202.52630619717624
30
1.1102230246251563e-15
40
5.0000000000000533
100
AcDbArc
50
-37.678426387769854
51
52.321573612230267
0
LINE
5
188
100
AcDbEntity
8
0
100
AcDbLine
10
80.705166296604261
20
206.48357487465637
30
1.1102230246251565e-15
11
-78.948057747475517
21
329.7816128973908
31
1.1102230246251565e-15
0
ARC
5
189
100
AcDbEntity
8
0
100
AcDbCircle
10
-77.114370516477493
20
332.15597410387892
30
1.1102230246251565e-15
40
3.0000000000000497
100
AcDbArc
50
117.19034687778694
51
232.32157361222829
0
LINE
5
190
100
AcDbEntity
8
0
100
AcDbLine
10
-78.485214734875242
20
334.82445421976621
30
1.1102230246251565e-15
11
-78.186144983968816
21
334.97809150433386
31
1.1102230246251565e-15
0
CIRCLE
5
191
100
AcDbEntity
8
0
100
AcDbCircle
10
74.142313880369699
20
202.07574455093453
30
1.1102230246251565e-15
40
2.0499999999999972
0
CIRCLE
5
192
100
AcDbEntity
8
0
100
AcDbCircle
10
-103.93477660623503
20
339.60228687577421
30
1.1102230246251565e-15
40
2.0500000000000131
0
ENDSEC
0
SECTION
2
OBJECTS
0
DICTIONARY
5
C
100
AcDbDictionary
3
ACAD_GROUP
350
D
3
ACAD_MLINESTYLE
350
17
0
DICTIONARY
5
D
100
AcDbDictionary
0
DICTIONARY
5
1A
330
C
100
AcDbDictionary
0
DICTIONARY
5
17
100
AcDbDictionary
0
ENDSEC
0
EOF
