0
SECTION
2
HEADER
9
$INSUNITS
70
4
9
$ACADVER
1
AC1014
9
$HANDSEED
5
FFFF
0
ENDSEC
0
SECTION
2
TABLES
0
TABLE
2
VPORT
5
8
100
AcDbSymbolTable
0
ENDTAB
0
TABLE
2
LTYPE
5
5
100
AcDbSymbolTable
0
LTYPE
5
14
100
AcDbSymbolTableRecord
100
AcDbLinetypeTableRecord
2
BYBLOCK
70
0
0
LTYPE
5
15
100
AcDbSymbolTableRecord
100
AcDbLinetypeTableRecord
2
BYLAYER
70
0
0
ENDTAB
0
TABLE
2
LAYER
5
2
100
AcDbSymbolTable
70
2
0
LAYER
5
50
100
AcDbSymbolTableRecord
100
AcDbLayerTableRecord
2
0
70
0
6
CONTINUOUS
0
ENDTAB
0
TABLE
2
STYLE
5
3
100
AcDbSymbolTable
70
1
0
STYLE
5
11
100
AcDbSymbolTableRecord
100
AcDbTextStyleTableRecord
2
STANDARD
70
0
0
ENDTAB
0
TABLE
2
VIEW
5
6
100
AcDbSymbolTable
70
0
0
ENDTAB
0
TABLE
2
UCS
5
7
100
AcDbSymbolTable
70
0
0
ENDTAB
0
TABLE
2
APPID
5
9
100
AcDbSymbolTable
70
2
0
APPID
5
12
100
AcDbSymbolTableRecord
100
AcDbRegAppTableRecord
2
ACAD
70
0
0
ENDTAB
0
TABLE
2
DIMSTYLE
5
A
100
AcDbSymbolTable
70
1
0
ENDTAB
0
TABLE
2
BLOCK_RECORD
5
1
100
AcDbSymbolTable
70
1
0
BLOCK_RECORD
5
1F
100
AcDbSymbolTableRecord
100
AcDbBlockTableRecord
2
*MODEL_SPACE
0
BLOCK_RECORD
5
1B
100
AcDbSymbolTableRecord
100
AcDbBlockTableRecord
2
*PAPER_SPACE
0
ENDTAB
0
ENDSEC
0
SECTION
2
BLOCKS
0
BLOCK
5
20
100
AcDbEntity
100
AcDbBlockBegin
2
*MODEL_SPACE
0
ENDBLK
5
21
100
AcDbEntity
100
AcDbBlockEnd
0
BLOCK
5
1C
100
AcDbEntity
100
AcDbBlockBegin
2
*PAPER_SPACE
0
ENDBLK
5
1D
100
AcDbEntity
100
AcDbBlockEnd
0
ENDSEC
0
SECTION
2
ENTITIES
0
CIRCLE
5
100
100
AcDbEntity
8
0
100
AcDbCircle
10
1.4516646940782609
20
119.65056799365334
30
0
40
2.0500000000000007
0
CIRCLE
5
101
100
AcDbEntity
8
0
100
AcDbCircle
10
-156.25291992310784
20
280.13191890621601
30
0
40
2.0499999999999838
0
ARC
5
102
100
AcDbEntity
8
0
100
AcDbCircle
10
-159.78831920677163
20
280.16277186505363
30
-8.5528470722950261e-47
40
4.9999999999999805
100
AcDbArc
50
134.50000005345419
51
224.50000005345416
0
LINE
5
103
100
AcDbEntity
8
0
100
AcDbLine
10
-163.35457144927295
20
276.65822554022725
30
-3.0814879110195746e-32
11
-21.966112597740057
21
132.78028480047146
31
0
0
ARC
5
104
100
AcDbEntity
8
0
100
AcDbCircle
10
-24.105863943240941
20
130.67755700557564
30
0
40
2.9999999999999982
100
AcDbArc
50
-70.631226680989272
51
44.500000053452951
0
LINE
5
105
100
AcDbEntity
8
0
100
AcDbLine
10
-23.110922888316825
20
127.8473463601949
30
0
11
-24.17237317183838
21
127.4742008254055
31
0
0
ARC
5
106
100
AcDbEntity
8
0
100
AcDbCircle
10
1.4516646940782609
20
119.65056799365334
30
0
40
26.791800000000006
100
AcDbArc
50
163.02131359682434
51
167.97868640318012
0
SPLINE
5
107
100
AcDbEntity
8
0
100
AcDbSpline
70
1064
71
5
72
81
73
75
74
0
42
0.000000001
43
0.0000000001
44
0.0000000001
40
-1
40
-1
40
-1
40
-1
40
-1
40
-1
40
-0.9857142857142841
40
-0.97142857142856986
40
-0.95714285714285563
40
-0.94285714285714139
40
-0.92857142857142716
40
-0.91428571428571292
40
-0.89999999999999869
40
-0.88571428571428445
40
-0.87142857142857022
40
-0.85714285714285599
40
-0.84285714285714175
40
-0.82857142857142752
40
-0.81428571428571328
40
-0.79999999999999905
40
-0.78571428571428481
40
-0.77142857142857058
40
-0.75714285714285634
40
-0.74285714285714211
40
-0.72857142857142787
40
-0.71428571428571364
40
-0.6999999999999994
40
-0.68571428571428517
40
-0.67142857142857093
40
-0.6571428571428567
40
-0.64285714285714246
40
-0.62857142857142823
40
-0.61428571428571399
40
-0.59999999999999976
40
-0.58571428571428552
40
-0.57142857142857129
40
-0.55714285714285705
40
-0.54285714285714282
40
-0.52857142857142858
40
-0.51428571428571435
40
-0.50000000000000011
40
-0.48571428571428582
40
-0.47142857142857153
40
-0.45714285714285724
40
-0.44285714285714295
40
-0.42857142857142866
40
-0.41428571428571437
40
-0.40000000000000008
40
-0.38571428571428579
40
-0.3714285714285715
40
-0.35714285714285721
40
-0.34285714285714292
40
-0.32857142857142863
40
-0.31428571428571433
40
-0.30000000000000004
40
-0.28571428571428575
40
-0.27142857142857146
40
-0.25714285714285717
40
-0.24285714285714291
40
-0.22857142857142862
40
-0.21428571428571433
40
-0.20000000000000004
40
-0.18571428571428575
40
-0.17142857142857146
40
-0.15714285714285717
40
-0.14285714285714288
40
-0.12857142857142859
40
-0.1142857142857143
40
-0.10000000000000001
40
-0.085714285714285715
40
-0.071428571428571425
40
-0.057142857142857141
40
-0.042857142857142858
40
-0.028571428571428571
40
-0.014285714285714285
40
0
40
0
40
0
40
0
40
0
40
0
10
-24.752596262047511
20
125.23064460453091
30
0
10
-24.740768989241552
20
125.21733784098929
30
0
10
-24.717087587024764
20
125.19076951228719
30
0
10
-24.681484913900931
20
125.15105261438657
30
0
10
-24.633853489796451
20
125.09836803084362
30
0
10
-24.574045304302523
20
125.03296516261162
30
0
10
-24.513967998045743
20
124.96801643282224
30
0
10
-24.453621548739648
20
124.90352371956804
30
0
10
-24.393006271924239
20
124.83948953954598
30
0
10
-24.332123006852978
20
124.7759171130954
30
0
10
-24.270973008964582
20
124.71281021222836
30
0
10
-24.209557786293839
20
124.65017296691866
30
0
10
-24.147878952344634
20
124.58800967514044
30
0
10
-24.085938085862946
20
124.52632462612861
30
0
10
-24.023736560225149
20
124.46512186919833
30
0
10
-23.961275541064083
20
124.40440523832117
30
0
10
-23.898556065774315
20
124.34417849673595
30
0
10
-23.835579101030135
20
124.28444544531655
30
0
10
-23.77234560604963
20
124.22521003100213
30
0
10
-23.708856608057296
20
124.16647647982342
30
0
10
-23.64511322102096
20
124.1082492993292
30
0
10
-23.581116614333769
20
124.05053317140587
30
0
10
-23.516867997707514
20
123.99333286659532
30
0
10
-23.452368601056065
20
123.93665316048879
30
0
10
-23.387619659095314
20
123.88049871025075
30
0
10
-23.322622393536214
20
123.82487407334601
30
0
10
-23.257377994926806
20
123.76978390417901
30
0
10
-23.191887604481735
20
123.71523311282795
30
0
10
-23.126152301132695
20
123.66122701281802
30
0
10
-23.060173079782214
20
123.60777152474216
30
0
10
-22.993950863319384
20
123.55487316615017
30
0
10
-22.927486568478869
20
123.50253868432829
30
0
10
-22.860781165695784
20
123.45077474388269
30
0
10
-22.793835733298671
20
123.39958763729544
30
0
10
-22.726651539672609
20
123.34898286377468
30
0
10
-22.65923003769721
20
123.29896514533671
30
0
10
-22.591572679288436
20
123.24953934089349
30
0
10
-22.523680758525888
20
123.20071121999307
30
0
10
-22.455555267054468
20
123.15248818186637
30
0
10
-22.387196692936691
20
123.10488025117317
30
0
10
-22.318605015987405
20
123.05790012311627
30
0
10
-22.249780132350665
20
123.01156112617213
30
0
10
-22.180722220015085
20
122.96587547600593
30
0
10
-22.111432074234017
20
122.92085267493052
30
0
10
-22.041911590678176
20
122.87649720487877
30
0
10
-21.972163754233563
20
122.83280859839437
30
0
10
-21.902191611382179
20
122.78978639757753
30
0
10
-21.831997387248954
20
122.74743441944335
30
0
10
-21.761581689438216
20
122.70576460848547
30
0
10
-21.69094233062345
20
122.66480271952301
30
0
10
-21.620074477823881
20
122.62458764119955
30
0
10
-21.54897303943644
20
122.58515999298876
30
0
10
-21.477634731563406
20
122.54655225956091
30
0
10
-21.406059890057641
20
122.50878015306637
30
0
10
-21.334255330516847
20
122.47182893723638
30
0
10
-21.262233391205491
20
122.43565811003731
30
0
10
-21.190006245011656
20
122.40022884391436
30
0
10
-21.117580940593371
20
122.36552791389406
30
0
10
-21.044955134591593
20
122.33158832230835
30
0
10
-20.972110091705538
20
122.29852302060465
30
0
10
-20.899014725143861
20
122.26650572432854
30
0
10
-20.825638655026523
20
122.23570859762638
30
0
10
-20.751963768247911
20
122.2062469702304
30
0
10
-20.677994119213988
20
122.17813235146363
30
0
10
-20.603772310443567
20
122.15119354324881
30
0
10
-20.529363881819414
20
122.12515495843212
30
0
10
-20.454826370291094
20
122.09979007929653
30
0
10
-20.380181786271269
20
122.07505848208601
30
0
10
-20.305390766443399
20
122.05123386010287
30
0
10
-20.230317775172445
20
122.02907802134263
30
0
10
-20.154768219037386
20
122.00964693514669
30
0
10
-20.093786554068966
20
121.99714308592321
30
0
10
-20.047673378986957
20
121.98985887232334
30
0
10
-20.016754468647399
20
121.98598229969697
30
0
10
-20.001250814194226
20
121.98428891032455
30
0
0
LINE
5
108
100
AcDbEntity
8
0
100
AcDbLine
10
-20.001250814194229
20
121.98428891032452
30
0
11
-17.729619010334996
21
121.73616952877154
31
0
0
ARC
5
109
100
AcDbEntity
8
0
100
AcDbCircle
10
-17.838198422012276
20
120.74208175027317
30
0
40
0.99999999999999989
100
AcDbArc
50
-3.238618763203136
51
83.766568644517875
0
ARC
5
110
100
AcDbEntity
8
0
100
AcDbCircle
10
1.4516646940782609
20
119.65056799365334
30
0
40
18.320720000000009
100
AcDbArc
50
176.76138123679655
51
184.23861876320771
0
ARC
5
111
100
AcDbEntity
8
0
100
AcDbCircle
10
-17.816210940714615
20
118.22256594864245
30
0
40
0.99999999999999956
100
AcDbArc
50
-82.766568644513754
51
4.2386187632089483
0
LINE
5
112
100
AcDbEntity
8
0
100
AcDbLine
10
-17.690298842262891
20
117.23052454655105
30
-6.1629758220391499e-33
11
-19.957254385303646
21
116.94279751326468
31
0
0
SPLINE
5
113
100
AcDbEntity
8
0
100
AcDbSpline
70
1064
71
5
72
81
73
75
74
0
42
0.000000001
43
0.0000000001
44
0.0000000001
40
0
40
0
40
0
40
0
40
0
40
0
40
0.014285714285714285
40
0.028571428571428571
40
0.042857142857142858
40
0.057142857142857141
40
0.071428571428571425
40
0.085714285714285715
40
0.10000000000000001
40
0.1142857142857143
40
0.12857142857142859
40
0.14285714285714288
40
0.15714285714285717
40
0.17142857142857146
40
0.18571428571428575
40
0.20000000000000004
40
0.21428571428571433
40
0.22857142857142862
40
0.24285714285714291
40
0.25714285714285717
40
0.27142857142857146
40
0.28571428571428575
40
0.30000000000000004
40
0.31428571428571433
40
0.32857142857142863
40
0.34285714285714292
40
0.35714285714285721
40
0.3714285714285715
40
0.38571428571428579
40
0.40000000000000008
40
0.41428571428571437
40
0.42857142857142866
40
0.44285714285714295
40
0.45714285714285724
40
0.47142857142857153
40
0.48571428571428582
40
0.50000000000000011
40
0.51428571428571435
40
0.52857142857142858
40
0.54285714285714282
40
0.55714285714285705
40
0.57142857142857129
40
0.58571428571428552
40
0.59999999999999976
40
0.61428571428571399
40
0.62857142857142823
40
0.64285714285714246
40
0.6571428571428567
40
0.67142857142857093
40
0.68571428571428517
40
0.6999999999999994
40
0.71428571428571364
40
0.72857142857142787
40
0.74285714285714211
40
0.75714285714285634
40
0.77142857142857058
40
0.78571428571428481
40
0.79999999999999905
40
0.81428571428571328
40
0.82857142857142752
40
0.84285714285714175
40
0.85714285714285599
40
0.87142857142857022
40
0.88571428571428445
40
0.89999999999999869
40
0.91428571428571292
40
0.92857142857142716
40
0.94285714285714139
40
0.95714285714285563
40
0.97142857142856986
40
0.9857142857142841
40
1
40
1
40
1
40
1
40
1
40
1
10
-19.957254385303646
20
116.94279751326468
30
0
10
-19.972726124755567
20
116.94083380572486
30
0
10
-20.003572670474263
20
116.93641821412945
30
0
10
-20.049551695240023
20
116.92833032407692
30
0
10
-20.110305850146815
20
116.914764102448
30
0
10
-20.185504780504736
20
116.89401745414077
30
0
10
-20.260179665092494
20
116.87055478546596
30
0
10
-20.334543496899723
20
116.84542850881223
30
0
10
-20.408745086301487
20
116.81939795072512
30
0
10
-20.482828567225869
20
116.79273607583745
30
0
10
-20.556771227120656
20
116.76540285068464
30
0
10
-20.630511584520196
20
116.7371727962076
30
0
10
-20.703979299864738
20
116.70777151105447
30
0
10
-20.777128789305621
20
116.67702856673876
30
0
10
-20.84995619991977
20
116.64495554158972
30
0
10
-20.922481654835437
20
116.61166743165697
30
0
10
-20.994738533984322
20
116.57733584466349
30
0
10
-21.066760951177407
20
116.54213392715781
30
0
10
-21.138569610136557
20
116.50617428640814
30
0
10
-21.21016742983403
20
116.46948987882284
30
0
10
-21.281547131877723
20
116.43206760445869
30
0
10
-21.352695867599294
20
116.39386885412071
30
0
10
-21.423600593755477
20
116.35485334727628
30
0
10
-21.494254238603276
20
116.31500646884967
30
0
10
-21.564656740555819
20
116.27434393445965
30
0
10
-21.634811949946339
20
116.232898166517
30
0
10
-21.704725666509994
20
116.19070968944813
30
0
10
-21.774403401191886
20
116.14781730162653
30
0
10
-21.843847790468963
20
116.10424671577462
30
0
10
-21.913058435289589
20
116.06000988517101
30
0
10
-21.982033177483832
20
116.01511066508323
30
0
10
-22.050768963042234
20
115.96954865084967
30
0
10
-22.119262799375168
20
115.92332342717866
30
0
10
-22.187512869321147
20
115.87643950840447
30
0
10
-22.255518543586184
20
115.82890640927178
30
0
10
-22.323279857401509
20
115.7807363466916
30
0
10
-22.390797147221249
20
115.73194264529786
30
0
10
-22.45807065478931
20
115.68253799800755
30
0
10
-22.525100067071953
20
115.63253243647148
30
0
10
-22.591884521709709
20
115.58193337610024
30
0
10
-22.658422825512545
20
115.53074660814795
30
0
10
-22.724713611585351
20
115.47897701612598
30
0
10
-22.790755509680338
20
115.42662934668768
30
0
10
-22.856547347580019
20
115.37370912034001
30
0
10
-22.922088156939068
20
115.32022264742606
30
0
10
-22.987377083783556
20
115.26617660847339
30
0
10
-23.052413329274838
20
115.21157776573989
30
0
10
-23.117196084411312
20
115.15643265188925
30
0
10
-23.181724457770578
20
115.10074720397614
30
0
10
-23.24599746331905
20
115.04452675354645
30
0
10
-23.310014045708591
20
114.98777622984747
30
0
10
-23.373773095803042
20
114.9305003073527
30
0
10
-23.437273471616255
20
114.87270356415462
30
0
10
-23.500514019899104
20
114.81439067825713
30
0
10
-23.563493594270607
20
114.75556644598913
30
0
10
-23.626211068460655
20
114.69623565827831
30
0
10
-23.68866535496441
20
114.63640301670665
30
0
10
-23.750855418651252
20
114.57607304757789
30
0
10
-23.812780306207554
20
114.51524999420663
30
0
10
-23.874439127444901
20
114.45393781967157
30
0
10
-23.935830982170636
20
114.39214034113849
30
0
10
-23.996954898825766
20
114.32986133937808
30
0
10
-24.057809778867004
20
114.26710466812108
30
0
10
-24.118394319797453
20
114.20387440003464
30
0
10
-24.178707017969053
20
114.14017485125328
30
0
10
-24.238746335133648
20
114.07601034725613
30
0
10
-24.298510835564112
20
114.01138504370675
30
0
10
-24.357999329843636
20
113.94630273395316
30
0
10
-24.417211035049256
20
113.88076665249125
30
0
10
-24.47614567961142
20
113.81477932114153
30
0
10
-24.53480331859047
20
113.74834261732163
30
0
10
-24.581508015433364
20
113.69483477492327
30
0
10
-24.616412110653052
20
113.65450257377695
30
0
10
-24.639626224806698
20
113.62752499410351
30
0
10
-24.651219461216037
20
113.61401384287439
30
0
0
ARC
5
114
100
AcDbEntity
8
0
100
AcDbCircle
10
1.4516646940782609
20
119.65056799365334
30
0
40
26.791800000000016
100
AcDbArc
50
193.02131359682426
51
197.97868640318009
0
SPLINE
5
115
100
AcDbEntity
8
0
100
AcDbSpline
70
1064
71
5
72
81
73
75
74
0
42
0.000000001
43
0.0000000001
44
0.0000000001
40
-1
40
-1
40
-1
40
-1
40
-1
40
-1
40
-0.9857142857142841
40
-0.97142857142856986
40
-0.95714285714285563
40
-0.94285714285714139
40
-0.92857142857142716
40
-0.91428571428571292
40
-0.89999999999999869
40
-0.88571428571428445
40
-0.87142857142857022
40
-0.85714285714285599
40
-0.84285714285714175
40
-0.82857142857142752
40
-0.81428571428571328
40
-0.79999999999999905
40
-0.78571428571428481
40
-0.77142857142857058
40
-0.75714285714285634
40
-0.74285714285714211
40
-0.72857142857142787
40
-0.71428571428571364
40
-0.6999999999999994
40
-0.68571428571428517
40
-0.67142857142857093
40
-0.6571428571428567
40
-0.64285714285714246
40
-0.62857142857142823
40
-0.61428571428571399
40
-0.59999999999999976
40
-0.58571428571428552
40
-0.57142857142857129
40
-0.55714285714285705
40
-0.54285714285714282
40
-0.52857142857142858
40
-0.51428571428571435
40
-0.50000000000000011
40
-0.48571428571428582
40
-0.47142857142857153
40
-0.45714285714285724
40
-0.44285714285714295
40
-0.42857142857142866
40
-0.41428571428571437
40
-0.40000000000000008
40
-0.38571428571428579
40
-0.3714285714285715
40
-0.35714285714285721
40
-0.34285714285714292
40
-0.32857142857142863
40
-0.31428571428571433
40
-0.30000000000000004
40
-0.28571428571428575
40
-0.27142857142857146
40
-0.25714285714285717
40
-0.24285714285714291
40
-0.22857142857142862
40
-0.21428571428571433
40
-0.20000000000000004
40
-0.18571428571428575
40
-0.17142857142857146
40
-0.15714285714285717
40
-0.14285714285714288
40
-0.12857142857142859
40
-0.1142857142857143
40
-0.10000000000000001
40
-0.085714285714285715
40
-0.071428571428571425
40
-0.057142857142857141
40
-0.042857142857142858
40
-0.028571428571428571
40
-0.014285714285714285
40
0
40
0
40
0
40
0
40
0
40
0
10
-24.03192928676215
20
111.38092561567379
30
0
10
-24.015033186283887
20
111.3753152568076
30
0
10
-23.981240326015872
20
111.36414711032387
30
0
10
-23.930549057697675
20
111.34755260434433
30
0
10
-23.862956742633298
20
111.32574212866058
30
0
10
-23.778459900525295
20
111.29900567603826
30
0
10
-23.693957062221294
20
111.27279707922551
30
0
10
-23.609449147466929
20
111.24711797584143
30
0
10
-23.524937687876339
20
111.22197038763956
30
0
10
-23.440425020433992
20
111.19735668388873
30
0
10
-23.355914118387759
20
111.17327950352799
30
0
10
-23.271408352720961
20
111.14974166920207
30
0
10
-23.186911269756042
20
111.12674609631387
30
0
10
-23.102426381344575
20
111.10429571007678
30
0
10
-23.017956901522943
20
111.08239333061242
30
0
10
-22.933505756744616
20
111.06104169542114
30
0
10
-22.84907572703904
20
111.04024354486606
30
0
10
-22.764669550007635
20
111.02000168726337
30
0
10
-22.680290029827233
20
111.00031906115365
30
0
10
-22.595940169115686
20
110.98119881277455
30
0
10
-22.511623186371857
20
110.96264428879401
30
0
10
-22.427342435263093
20
110.94465895914794
30
0
10
-22.343101348701467
20
110.9272463503909
30
0
10
-22.258903379619266
20
110.91040998334933
30
0
10
-22.174751925894082
20
110.89415327388804
30
0
10
-22.090650324291005
20
110.87847955803177
30
0
10
-22.006601933057116
20
110.86339227133907
30
0
10
-21.922610195552394
20
110.84889509545505
30
0
10
-21.838678702921687
20
110.83499209256163
30
0
10
-21.754811277072335
20
110.82168789259151
30
0
10
-21.671011976024609
20
110.80898767846377
30
0
10
-21.587284967337155
20
110.79689683513237
30
0
10
-21.503634423734542
20
110.78542064909804
30
0
10
-21.42006442531769
20
110.77456403064582
30
0
10
-21.336578820144368
20
110.76433110803713
30
0
10
-21.253181227453361
20
110.75472524421819
30
0
10
-21.169875334096815
20
110.74574992117228
30
0
10
-21.08666514555452
20
110.73740948843472
30
0
10
-21.003555220231618
20
110.72970985810505
30
0
10
-20.920550993132544
20
110.72265946776201
30
0
10
-20.837658794377838
20
110.71626932186633
30
0
10
-20.754885198263832
20
110.71055101514519
30
0
10
-20.672236466765817
20
110.70551503768066
30
0
10
-20.589718039749773
20
110.70116922109034
30
0
10
-20.50733379988116
20
110.69751649900665
30
0
10
-20.425086098418937
20
110.69455497415753
30
0
10
-20.342977344743982
20
110.69228272674911
30
0
10
-20.261011374378569
20
110.690701949851
30
0
10
-20.179194685770319
20
110.68982268389595
30
0
10
-20.097538262048452
20
110.68966832687482
30
0
10
-20.016057362050645
20
110.69027497383134
30
0
10
-19.934767886056107
20
110.69168034806303
30
0
10
-19.853683232461144
20
110.69391422406849
30
0
10
-19.772811548198032
20
110.69699004104264
30
0
10
-19.692151367613153
20
110.70089162920355
30
0
10
-19.611693124940167
20
110.70557774362894
30
0
10
-19.531427948431986
20
110.71100867222596
30
0
10
-19.451355329918773
20
110.71716943750255
30
0
10
-19.371489741158069
20
110.72408979199615
30
0
10
-19.291871432627126
20
110.73187692217998
30
0
10
-19.212560340147714
20
110.7406968135252
30
0
10
-19.133616236045164
20
110.75071375449626
30
0
10
-19.055081098775943
20
110.76203668012381
30
0
10
-18.976964194220169
20
110.77467353057102
30
0
10
-18.899216818202742
20
110.78845474269454
30
0
10
-18.82175793635021
20
110.80310888107675
30
0
10
-18.744524118264
20
110.81841100714556
30
0
10
-18.667514213642654
20
110.83431510769501
30
0
10
-18.590830979505206
20
110.85107788973599
30
0
10
-18.514737942546343
20
110.86942686616295
30
0
10
-18.439594564590777
20
110.89037382996167
30
0
10
-18.380530968951312
20
110.91003601137325
30
0
10
-18.336953681081198
20
110.92678428489016
30
0
10
-18.308238832956633
20
110.9388865296859
30
0
10
-18.293965579662469
20
110.94517183869748
30
0
0
LINE
5
116
100
AcDbEntity
8
0
100
AcDbLine
10
-18.293965579662469
20
110.94517183869748
30
0
11
-16.202615038699207
21
111.86611005303091
31
0
0
ARC
5
117
100
AcDbEntity
8
0
100
AcDbCircle
10
-15.799603678290513
20
110.95091507742103
30
0
40
1.0000000000000004
100
AcDbArc
50
26.761381236796037
51
113.76656864451772
0
ARC
5
118
100
AcDbEntity
8
0
100
AcDbCircle
10
1.4516646940782609
20
119.65056799365334
30
0
40
18.320720000000012
100
AcDbArc
50
206.76138123679655
51
214.2386187632078
0
ARC
5
119
100
AcDbEntity
8
0
100
AcDbCircle
10
-14.520804060106151
20
108.77994412862135
30
0
40
0.99999999999999922
100
AcDbArc
50
-52.766568644514003
51
34.238618763207604
0
LINE
5
120
100
AcDbEntity
8
0
100
AcDbLine
10
-13.915740283157445
20
107.98376712203012
30
1.528934608675404e-47
11
-15.735117856037492
21
106.60111043032821
31
0
0
SPLINE
5
121
100
AcDbEntity
8
0
100
AcDbSpline
70
1064
71
5
72
81
73
75
74
0
42
0.000000001
43
0.0000000001
44
0.0000000001
40
0
40
0
40
0
40
0
40
0
40
0
40
0.014285714285714285
40
0.028571428571428571
40
0.042857142857142858
40
0.057142857142857141
40
0.071428571428571425
40
0.085714285714285715
40
0.10000000000000001
40
0.1142857142857143
40
0.12857142857142859
40
0.14285714285714288
40
0.15714285714285717
40
0.17142857142857146
40
0.18571428571428575
40
0.20000000000000004
40
0.21428571428571433
40
0.22857142857142862
40
0.24285714285714291
40
0.25714285714285717
40
0.27142857142857146
40
0.28571428571428575
40
0.30000000000000004
40
0.31428571428571433
40
0.32857142857142863
40
0.34285714285714292
40
0.35714285714285721
40
0.3714285714285715
40
0.38571428571428579
40
0.40000000000000008
40
0.41428571428571437
40
0.42857142857142866
40
0.44285714285714295
40
0.45714285714285724
40
0.47142857142857153
40
0.48571428571428582
40
0.50000000000000011
40
0.51428571428571435
40
0.52857142857142858
40
0.54285714285714282
40
0.55714285714285705
40
0.57142857142857129
40
0.58571428571428552
40
0.59999999999999976
40
0.61428571428571399
40
0.62857142857142823
40
0.64285714285714246
40
0.6571428571428567
40
0.67142857142857093
40
0.68571428571428517
40
0.6999999999999994
40
0.71428571428571364
40
0.72857142857142787
40
0.74285714285714211
40
0.75714285714285634
40
0.77142857142857058
40
0.78571428571428481
40
0.79999999999999905
40
0.81428571428571328
40
0.82857142857142752
40
0.84285714285714175
40
0.85714285714285599
40
0.87142857142857022
40
0.88571428571428445
40
0.89999999999999869
40
0.91428571428571292
40
0.92857142857142716
40
0.94285714285714139
40
0.95714285714285563
40
0.97142857142856986
40
0.9857142857142841
40
1
40
1
40
1
40
1
40
1
40
1
10
-15.73511785603749
20
106.60111043032821
30
0
10
-15.747534921673685
20
106.59167393998716
30
0
10
-15.772041018087364
20
106.57242665263345
30
0
10
-15.807816076549488
20
106.54243282200207
30
0
10
-15.853647607269764
20
106.50030705198463
30
0
10
-15.908398467143526
20
106.44474046232824
30
0
10
-15.961337479883788
20
106.3870837529214
30
0
10
-16.013175309024742
20
106.32814184313317
30
0
10
-16.064420491404292
20
106.26849792385414
30
0
10
-16.115247730441745
20
106.2083663224267
30
0
10
-16.165617339757617
20
106.14772372512961
30
0
10
-16.215363335311253
20
106.0864056021025
30
0
10
-16.264287600581071
20
106.02420948458374
30
0
10
-16.312265444552871
20
105.96101056909873
30
0
10
-16.359299319662039
20
105.89682080923637
30
0
10
-16.405464151073666
20
105.83172973293284
30
0
10
-16.450874650518038
20
105.76586926686979
30
0
10
-16.49564693469636
20
105.6993723034514
30
0
10
-16.539855237191851
20
105.63232601157166
30
0
10
-16.583518564112797
20
105.56475747283127
30
0
10
-16.626624062215122
20
105.49665898154268
30
0
10
-16.669141299628155
20
105.42800352549637
30
0
10
-16.711038840305569
20
105.35876274234948
30
0
10
-16.752303252400431
20
105.28892751094662
30
0
10
-16.792942340386301
20
105.21851147220633
30
0
10
-16.832975649954992
20
105.1475407795934
30
0
10
-16.872428466037661
20
105.07604762842294
30
0
10
-16.911324960439529
20
105.00406286359953
30
0
10
-16.949680272777819
20
104.93160743475548
30
0
10
-16.987500034102979
20
104.85869189325952
30
0
10
-17.024784303018784
20
104.78532065695629
30
0
10
-17.061530232344658
20
104.71149490240322
30
0
10
-17.097735022776131
20
104.63721576624204
30
0
10
-17.133399357772323
20
104.56248806658165
30
0
10
-17.16852744972099
20
104.48732035807961
30
0
10
-17.203125437588774
20
104.41172320327561
30
0
10
-17.237200275070478
20
104.33570797341409
30
0
10
-17.270758517980941
20
104.25928554001162
30
0
10
-17.30380491105042
20
104.18246474724955
30
0
10
-17.336342415158988
20
104.10525244824159
30
0
10
-17.368372892600831
20
104.02765425495586
30
0
10
-17.39989760136573
20
103.94967508008489
30
0
10
-17.430917728110977
20
103.87131971947491
30
0
10
-17.461435017919943
20
103.79259354013396
30
0
10
-17.491451787352496
20
103.71350249115213
30
0
10
-17.520970637109311
20
103.63405278502296
30
0
10
-17.549994256504775
20
103.55425067745287
30
0
10
-17.578525211254775
20
103.47410223039537
30
0
10
-17.606565697892236
20
103.39361303120188
30
0
10
-17.634117528259946
20
103.31278819014332
30
0
10
-17.661182253023259
20
103.23163250374718
30
0
10
-17.687761248878836
20
103.1501505747943
30
0
10
-17.713855815883889
20
103.06834693902215
30
0
10
-17.739467294297356
20
102.98622622432552
30
0
10
-17.76459708948861
20
102.90379315763757
30
0
10
-17.789246621542979
20
102.82105245115842
30
0
10
-17.813417299444623
20
102.73800872032994
30
0
10
-17.837110489896023
20
102.6546664026115
30
0
10
-17.860327488960642
20
102.57102964947808
30
0
10
-17.88306950725206
20
102.48710233815078
30
0
10
-17.905337673763452
20
102.40288822448846
30
0
10
-17.92713303748539
20
102.31839106851403
30
0
10
-17.948456573916857
20
102.23361475692791
30
0
10
-17.969309191396025
20
102.14856346801172
30
0
10
-17.989691745792729
20
102.06324169147166
30
0
10
-18.009605067684575
20
101.9776539424066
30
0
10
-18.029049991527149
20
101.89180453759033
30
0
10
-18.048027383929309
20
101.805697356867
30
0
10
-18.066538184107813
20
101.71933559285367
30
0
10
-18.084583417786792
20
101.6327215652958
30
0
10
-18.102164071358715
20
101.54585687255454
30
0
10
-18.115857604101539
20
101.47616537331442
30
0
10
-18.125919336684738
20
101.42378461492132
30
0
10
-18.132534559431427
20
101.38881428851468
30
0
10
-18.135819021059426
20
101.37131667011121
30
0
0
ARC
5
122
100
AcDbEntity
8
0
100
AcDbCircle
10
1.4516646940782609
20
119.65056799365334
30
0
40
26.791800000000006
100
AcDbArc
50
223.02131359682429
51
227.97868640318006
0
SPLINE
5
123
100
AcDbEntity
8
0
100
AcDbSpline
70
1064
71
5
72
81
73
75
74
0
42
0.000000001
43
0.0000000001
44
0.0000000001
40
-1
40
-1
40
-1
40
-1
40
-1
40
-1
40
-0.9857142857142841
40
-0.97142857142856986
40
-0.95714285714285563
40
-0.94285714285714139
40
-0.92857142857142716
40
-0.91428571428571292
40
-0.89999999999999869
40
-0.88571428571428445
40
-0.87142857142857022
40
-0.85714285714285599
40
-0.84285714285714175
40
-0.82857142857142752
40
-0.81428571428571328
40
-0.79999999999999905
40
-0.78571428571428481
40
-0.77142857142857058
40
-0.75714285714285634
40
-0.74285714285714211
40
-0.72857142857142787
40
-0.71428571428571364
40
-0.6999999999999994
40
-0.68571428571428517
40
-0.67142857142857093
40
-0.6571428571428567
40
-0.64285714285714246
40
-0.62857142857142823
40
-0.61428571428571399
40
-0.59999999999999976
40
-0.58571428571428552
40
-0.57142857142857129
40
-0.55714285714285705
40
-0.54285714285714282
40
-0.52857142857142858
40
-0.51428571428571435
40
-0.50000000000000011
40
-0.48571428571428582
40
-0.47142857142857153
40
-0.45714285714285724
40
-0.44285714285714295
40
-0.42857142857142866
40
-0.41428571428571437
40
-0.40000000000000008
40
-0.38571428571428579
40
-0.3714285714285715
40
-0.35714285714285721
40
-0.34285714285714292
40
-0.32857142857142863
40
-0.31428571428571433
40
-0.30000000000000004
40
-0.28571428571428575
40
-0.27142857142857146
40
-0.25714285714285717
40
-0.24285714285714291
40
-0.22857142857142862
40
-0.21428571428571433
40
-0.20000000000000004
40
-0.18571428571428575
40
-0.17142857142857146
40
-0.15714285714285717
40
-0.14285714285714288
40
-0.12857142857142859
40
-0.1142857142857143
40
-0.10000000000000001
40
-0.085714285714285715
40
-0.071428571428571425
40
-0.057142857142857141
40
-0.042857142857142858
40
-0.028571428571428571
40
-0.014285714285714285
40
0
40
0
40
0
40
0
40
0
40
0
10
-16.482953884067971
20
99.747050623690484
30
0
10
-16.465516252395801
20
99.75063996062714
30
0
10
-16.430666703695302
20
99.757864492193065
30
0
10
-16.378469524591925
20
99.768838862610636
30
0
10
-16.30902762480369
20
99.783746594132054
30
0
10
-16.222482986687446
20
99.802840568008065
30
0
10
-16.136197083617912
20
99.822394676522663
30
0
10
-16.050171530927749
20
99.842409878022835
30
0
10
-15.96440866591044
20
99.862887157591388
30
0
10
-15.878911697088379
20
99.883827398583122
30
0
10
-15.79368451883923
20
99.905231399762343
30
0
10
-15.708731461842566
20
99.927099920119417
30
0
10
-15.624057055005167
20
99.949433711306142
30
0
10
-15.5396658022864
20
99.972233550705795
30
0
10
-15.455561897184227
20
99.995500273597116
30
0
10
-15.371749242831882
20
100.01923478749829
30
0
10
-15.288231616987034
20
100.04343807561865
30
0
10
-15.205012794640167
20
100.06811120123064
30
0
10
-15.122096673549937
20
100.09325530709663
30
0
10
-15.039487427178511
20
100.11887161662943
30
0
10
-14.957189516161634
20
100.14496141887906
30
0
10
-14.875207579828373
20
100.17152604206453
30
0
10
-14.793546354445084
20
100.19856682381558
30
0
10
-14.712210590752052
20
100.22608508679126
30
0
10
-14.631204939329997
20
100.25408209027842
30
0
10
-14.55053395791465
20
100.28255905497673
30
0
10
-14.470202272612537
20
100.31151727704362
30
0
10
-14.390214706283452
20
100.34095822319729
30
0
10
-14.310576400040997
20
100.37088361581806
30
0
10
-14.231292978720393
20
100.40129555359158
30
0
10
-14.152370548129801
20
100.4321964960473
30
0
10
-14.073815409957888
20
100.46358902291286
30
0
10
-13.995633821140492
20
100.49547562606989
30
0
10
-13.917831770291166
20
100.5278585178995
30
0
10
-13.840414654056392
20
100.56073934955207
30
0
10
-13.763387288262054
20
100.59411922380507
30
0
10
-13.686754606807362
20
100.62799931271842
30
0
10
-13.610522253307273
20
100.66238138036029
30
0
10
-13.534697131506167
20
100.69726826755648
30
0
10
-13.45928816704536
20
100.73266456396237
30
0
10
-13.384306344200398
20
100.76857663466016
30
0
10
-13.309763153842507
20
100.80501123383003
30
0
10
-13.235669264042397
20
100.84197431516186
30
0
10
-13.162033301671013
20
100.87946994110249
30
0
10
-13.088860096031476
20
100.91749871091935
30
0
10
-13.016150734737748
20
100.95605780589719
30
0
10
-12.943906344477945
20
100.99514435875528
30
0
10
-12.872131343446604
20
101.03475835098651
30
0
10
-12.800836379680822
20
101.07490522863688
30
0
10
-12.730042663844944
20
101.11559976339629
30
0
10
-12.659781458001881
20
101.15686558507065
30
0
10
-12.590085393846124
20
101.19872741285437
30
0
10
-12.520980961978559
20
101.2412043330215
30
0
10
-12.45248193744694
20
101.28430391079006
30
0
10
-12.384578966067055
20
101.32801287554497
30
0
10
-12.317243141181089
20
101.37230029101887
30
0
10
-12.250446923584267
20
101.41713620140411
30
0
10
-12.184182384442581
20
101.46250788989701
30
0
10
-12.118476932934412
20
101.50843388707202
30
0
10
-12.05341902023218
20
101.55498689389927
30
0
10
-11.989143545015732
20
101.60228069010256
30
0
10
-11.925784415869442
20
101.65042766750297
30
0
10
-11.863432454718371
20
101.69950117737619
30
0
10
-11.802099656131679
20
101.7495034631652
30
0
10
-11.74165905948475
20
101.8003120309678
30
0
10
-11.681904769242838
20
101.85173232800366
30
0
10
-11.62266938378332
20
101.90360126695425
30
0
10
-11.563928900312938
20
101.95587957436508
30
0
10
-11.505900662526047
20
102.00873818651941
30
0
10
-11.449176647682043
20
102.06267538471803
30
0
10
-11.394574055345712
20
102.11838767647765
30
0
10
-11.353254571788877
20
102.16494742289363
30
0
10
-11.323889670223783
20
102.20124049716388
30
0
10
-11.305073004679969
20
102.22607877266208
30
0
10
-11.295854659238353
20
102.23865863658382
30
0
0
LINE
5
124
100
AcDbEntity
8
0
100
AcDbLine
10
-11.295854659238353
20
102.23865863658382
30
0
11
-9.9451610697125545
21
104.08188979599407
31
0
0
ARC
5
125
100
AcDbEntity
8
0
100
AcDbCircle
10
-9.138545505779966
20
103.49081337790439
30
0
40
0.99999999999999634
100
AcDbArc
50
56.76138123679619
51
143.76656864451763
0
ARC
5
126
100
AcDbEntity
8
0
100
AcDbCircle
10
1.4516646940782609
20
119.65056799365334
30
0
40
18.320720000000019
100
AcDbArc
50
236.76138123679661
51
244.2386187632078
0
ARC
5
127
100
AcDbEntity
8
0
100
AcDbCircle
10
-6.9455870756826279
20
102.25009719445805
30
0
40
1.0000000000000007
100
AcDbArc
50
-22.766568644513885
51
64.238618763208081
0
LINE
5
128
100
AcDbEntity
8
0
100
AcDbLine
10
-6.0234979706396707
20
101.86311956931534
30
1.232595164407834e-32
11
-6.9077968219785113
21
99.756014963148928
31
0
0
SPLINE
5
129
100
AcDbEntity
8
0
100
AcDbSpline
70
1064
71
5
72
81
73
75
74
0
42
0.000000001
43
0.0000000001
44
0.0000000001
40
0
40
0
40
0
40
0
40
0
40
0
40
0.014285714285714285
40
0.028571428571428571
40
0.042857142857142858
40
0.057142857142857141
40
0.071428571428571425
40
0.085714285714285715
40
0.10000000000000001
40
0.1142857142857143
40
0.12857142857142859
40
0.14285714285714288
40
0.15714285714285717
40
0.17142857142857146
40
0.18571428571428575
40
0.20000000000000004
40
0.21428571428571433
40
0.22857142857142862
40
0.24285714285714291
40
0.25714285714285717
40
0.27142857142857146
40
0.28571428571428575
40
0.30000000000000004
40
0.31428571428571433
40
0.32857142857142863
40
0.34285714285714292
40
0.35714285714285721
40
0.3714285714285715
40
0.38571428571428579
40
0.40000000000000008
40
0.41428571428571437
40
0.42857142857142866
40
0.44285714285714295
40
0.45714285714285724
40
0.47142857142857153
40
0.48571428571428582
40
0.50000000000000011
40
0.51428571428571435
40
0.52857142857142858
40
0.54285714285714282
40
0.55714285714285705
40
0.57142857142857129
40
0.58571428571428552
40
0.59999999999999976
40
0.61428571428571399
40
0.62857142857142823
40
0.64285714285714246
40
0.6571428571428567
40
0.67142857142857093
40
0.68571428571428517
40
0.6999999999999994
40
0.71428571428571364
40
0.72857142857142787
40
0.74285714285714211
40
0.75714285714285634
40
0.77142857142857058
40
0.78571428571428481
40
0.79999999999999905
40
0.81428571428571328
40
0.82857142857142752
40
0.84285714285714175
40
0.85714285714285599
40
0.87142857142857022
40
0.88571428571428445
40
0.89999999999999869
40
0.91428571428571292
40
0.92857142857142716
40
0.94285714285714139
40
0.95714285714285563
40
0.97142857142856986
40
0.9857142857142841
40
1
40
1
40
1
40
1
40
1
40
1
10
-6.9077968219785113
20
99.756014963148914
30
0
10
-6.9138320710893932
20
99.741634189972913
30
0
10
-6.9254313294543728
20
99.712712501963807
30
0
10
-6.9414165235887628
20
99.668849553449164
30
0
10
-6.9600449084781264
20
99.609451801099965
30
0
10
-6.979677249179657
20
99.533954292918992
30
0
10
-6.9966954243605661
20
99.4575526115039
30
0
10
-7.0121173463795516
20
99.380588505709241
30
0
10
-7.0266750165022938
20
99.303312765242566
30
0
10
-7.0406268959992371
20
99.225823651317441
30
0
10
-7.0539269585969357
20
99.148120816848746
30
0
10
-7.0663491929693798
20
99.070144766818089
30
0
10
-7.0776207907951409
20
98.991819216395129
30
0
10
-7.0875713647510272
20
98.913098428107617
30
0
10
-7.0962090155028168
20
98.833991527849392
30
0
10
-7.1036433941149344
20
98.754538586505035
30
0
10
-7.1100398072007787
20
98.674796500067174
30
0
10
-7.1155652609754672
20
98.594822298383178
30
0
10
-7.120327628054878
20
98.51465435513802
30
0
10
-7.1243569090119694
20
98.434306620631773
30
0
10
-7.1276381197670649
20
98.353778848165305
30
0
10
-7.1301313994423321
20
98.273062860414271
30
0
10
-7.1317953424516167
20
98.192149812892424
30
0
10
-7.132613755896573
20
98.111038522370976
30
0
10
-7.1326002191088218
20
98.029736899995072
30
0
10
-7.1317847358864137
20
97.94825782248374
30
0
10
-7.1302053012796076
20
97.866616529332191
30
0
10
-7.1278982711380774
20
97.784827647108727
30
0
10
-7.124887231571094
20
97.702901748918549
30
0
10
-7.1211823348957681
20
97.620845156989759
30
0
10
-7.1167858407867612
20
97.53866166798619
30
0
10
-7.1116958717921142
20
97.456353724426748
30
0
10
-7.1059105719638662
20
97.373923710324263
30
0
10
-7.0994329422494555
20
97.291375456553894
30
0
10
-7.0922709080124555
20
97.208714265472537
30
0
10
-7.0844350670237866
20
97.125946215024555
30
0
10
-7.0759371269820068
20
97.043077676149124
30
0
10
-7.0667882011476024
20
96.960114785948335
30
0
10
-7.0569968206681919
20
96.877062831342784
30
0
10
-7.0465689762979604
20
96.793926266862996
30
0
10
-7.0355090868150763
20
96.710709021468872
30
0
10
-7.0238206980168902
20
96.627414720681983
30
0
10
-7.0115072355019095
20
96.544046924498431
30
0
10
-6.9985728940606506
20
96.46060940834181
30
0
10
-6.9850226544378646
20
96.377106165995315
30
0
10
-6.9708618751531741
20
96.293541277285826
30
0
10
-6.9560960130743696
20
96.209918815156854
30
0
10
-6.9407303211533495
20
96.126242746556187
30
0
10
-6.9247694953191354
20
96.042516812005644
30
0
10
-6.908217659809047
20
95.958744531208254
30
0
10
-6.891078555802431
20
95.874929282745939
30
0
10
-6.8733556769440085
20
95.791074364395598
30
0
10
-6.8550524169850622
20
95.707183054192456
30
0
10
-6.8361722505712805
20
95.62325868988151
30
0
10
-6.816718758254833
20
95.539304662422268
30
0
10
-6.7966955259657418
20
95.455324342657065
30
0
10
-6.7761060816410188
20
95.371321023183754
30
0
10
-6.754953827609409
20
95.287297863603598
30
0
10
-6.733241962032313
20
95.203257811167703
30
0
10
-6.7109734719423573
20
95.119203618341231
30
0
10
-6.6881512130057583
20
95.03513797329677
30
0
10
-6.6647779736864674
20
94.951063607814419
30
0
10
-6.6408565421415764
20
94.866983400125946
30
0
10
-6.6163897941558423
20
94.782900514560339
30
0
10
-6.5913807157873769
20
94.698818411382291
30
0
10
-6.5658322838869232
20
94.61474058549328
30
0
10
-6.5397473795011027
20
94.530670358101332
30
0
10
-6.5131286930572969
20
94.446610655945591
30
0
10
-6.4859786342495998
20
94.362563774305173
30
0
10
-6.4582992512538873
20
94.278531209276451
30
0
10
-6.4300921974916694
20
94.194513851884651
30
0
10
-6.4071053950944501
20
94.127312476743469
30
0
10
-6.3896287319210385
20
94.076918543013932
30
0
10
-6.3778725196680428
20
94.043325740593815
30
0
10
-6.3719681376739157
20
94.026530127736692
30
0
0
ARC
5
130
100
AcDbEntity
8
0
100
AcDbCircle
10
1.4516646940782609
20
119.65056799365334
30
0
40
26.791800000000009
100
AcDbArc
50
253.02131359682429
51
257.97868640318006
0
SPLINE
5
131
100
AcDbEntity
8
0
100
AcDbSpline
70
1064
71
5
72
81
73
75
74
0
42
0.000000001
43
0.0000000001
44
0.0000000001
40
-1
40
-1
40
-1
40
-1
40
-1
40
-1
40
-0.9857142857142841
40
-0.97142857142856986
40
-0.95714285714285563
40
-0.94285714285714139
40
-0.92857142857142716
40
-0.91428571428571292
40
-0.89999999999999869
40
-0.88571428571428445
40
-0.87142857142857022
40
-0.85714285714285599
40
-0.84285714285714175
40
-0.82857142857142752
40
-0.81428571428571328
40
-0.79999999999999905
40
-0.78571428571428481
40
-0.77142857142857058
40
-0.75714285714285634
40
-0.74285714285714211
40
-0.72857142857142787
40
-0.71428571428571364
40
-0.6999999999999994
40
-0.68571428571428517
40
-0.67142857142857093
40
-0.6571428571428567
40
-0.64285714285714246
40
-0.62857142857142823
40
-0.61428571428571399
40
-0.59999999999999976
40
-0.58571428571428552
40
-0.57142857142857129
40
-0.55714285714285705
40
-0.54285714285714282
40
-0.52857142857142858
40
-0.51428571428571435
40
-0.50000000000000011
40
-0.48571428571428582
40
-0.47142857142857153
40
-0.45714285714285724
40
-0.44285714285714295
40
-0.42857142857142866
40
-0.41428571428571437
40
-0.40000000000000008
40
-0.38571428571428579
40
-0.3714285714285715
40
-0.35714285714285721
40
-0.34285714285714292
40
-0.32857142857142863
40
-0.31428571428571433
40
-0.30000000000000004
40
-0.28571428571428575
40
-0.27142857142857146
40
-0.25714285714285717
40
-0.24285714285714291
40
-0.22857142857142862
40
-0.21428571428571433
40
-0.20000000000000004
40
-0.18571428571428575
40
-0.17142857142857146
40
-0.15714285714285717
40
-0.14285714285714288
40
-0.12857142857142859
40
-0.1142857142857143
40
-0.10000000000000001
40
-0.085714285714285715
40
-0.071428571428571425
40
-0.057142857142857141
40
-0.042857142857142858
40
-0.028571428571428571
40
-0.014285714285714285
40
0
40
0
40
0
40
0
40
0
40
0
10
-4.1284119167993056
20
93.446307037527561
30
0
10
-4.1151051532577005
20
93.45813431033352
30
0
10
-4.0885368245556002
20
93.481815712550315
30
0
10
-4.0488199266549723
20
93.517418385674134
30
0
10
-3.9961353431120257
20
93.565049809778628
30
0
10
-3.9307324748800228
20
93.624857995272563
30
0
10
-3.8657837450906314
20
93.684935301529322
30
0
10
-3.8012910318364486
20
93.745281750835431
30
0
10
-3.7372568518143963
20
93.805897027650815
30
0
10
-3.6736844253637884
20
93.866780292722098
30
0
10
-3.6105775244967746
20
93.927930290610504
30
0
10
-3.5479402791870567
20
93.989345513281236
30
0
10
-3.4857769874088431
20
94.051024347230452
30
0
10
-3.4240919383970176
20
94.11296521371213
30
0
10
-3.3628891814667341
20
94.175166739349919
30
0
10
-3.3021725505895816
20
94.237627758510996
30
0
10
-3.2419458090043607
20
94.30034723380075
30
0
10
-3.1822127575849453
20
94.363324198544944
30
0
10
-3.1229773432705348
20
94.426557693525439
30
0
10
-3.0642437920918026
20
94.490046691517776
30
0
10
-3.006016611597607
20
94.553790078554115
30
0
10
-2.9483004836742914
20
94.617786685241299
30
0
10
-2.8911001788637254
20
94.682035301867558
30
0
10
-2.8344204727571838
20
94.746534698519014
30
0
10
-2.7782660225191562
20
94.811283640479758
30
0
10
-2.7226413856144065
20
94.876280906038858
30
0
10
-2.6675512164473973
20
94.94152530464828
30
0
10
-2.6130004250963528
20
95.00701569509333
30
0
10
-2.5589943250864082
20
95.072750998442373
30
0
10
-2.5055388370105804
20
95.138730219792862
30
0
10
-2.4526404784185716
20
95.204952436255681
30
0
10
-2.400305996596682
20
95.271416731096224
30
0
10
-2.3485420561511008
20
95.338122133879295
30
0
10
-2.2973549495638586
20
95.405067566276387
30
0
10
-2.2467501760430899
20
95.472251759902463
30
0
10
-2.1967324576051079
20
95.539673261877866
30
0
10
-2.1473066531618965
20
95.607330620286632
30
0
10
-2.0984785322614776
20
95.67522254104918
30
0
10
-2.0502554941347748
20
95.743348032520601
30
0
10
-2.002647563441577
20
95.811706606638381
30
0
10
-1.9556674353846728
20
95.880298283587678
30
0
10
-1.909328438440526
20
95.949123167224414
30
0
10
-1.863642788274338
20
96.018181079559994
30
0
10
-1.8186199871989248
20
96.087471225341048
30
0
10
-1.7742645171471736
20
96.156991708896911
30
0
10
-1.7305759106627763
20
96.226739545341502
30
0
10
-1.687553709845929
20
96.296711688192886
30
0
10
-1.645201731711746
20
96.366905912326104
30
0
10
-1.6035319207538714
20
96.437321610136863
30
0
10
-1.562570031791408
20
96.507960968951622
30
0
10
-1.5223549534679623
20
96.578828821751188
30
0
10
-1.4829273052571581
20
96.649930260138632
30
0
10
-1.4443195718293125
20
96.721268568011681
30
0
10
-1.4065474653347545
20
96.792843409517417
30
0
10
-1.3695962495047795
20
96.86464796905824
30
0
10
-1.3334254223057105
20
96.936669908369581
30
0
10
-1.2979961561827704
20
97.00889705456342
30
0
10
-1.2632952261624495
20
97.081322358981694
30
0
10
-1.2293556345767551
20
97.153948164983476
30
0
10
-1.1962903328730521
20
97.226793207869534
30
0
10
-1.1642730365969387
20
97.299888574431208
30
0
10
-1.1334759098947964
20
97.373264644548541
30
0
10
-1.1040142824988013
20
97.44693953132716
30
0
10
-1.0758996637320348
20
97.520909180361087
30
0
10
-1.0489608555172101
20
97.595130989131491
30
0
10
-1.0229222707005257
20
97.669539417755658
30
0
10
-0.99755739156492285
20
97.744076929283978
30
0
10
-0.97282579435441263
20
97.818721513303785
30
0
10
-0.94900117237127812
20
97.893512533131684
30
0
10
-0.92684533361103316
20
97.968585524402627
30
0
10
-0.90741424741509913
20
98.044135080537686
30
0
10
-0.89491039819162077
20
98.105116745506109
30
0
10
-0.88762618459173925
20
98.151229920588108
30
0
10
-0.8837496119653786
20
98.182148830927673
30
0
10
-0.88205622259294858
20
98.197652485380843
30
0
0
LINE
5
132
100
AcDbEntity
8
0
100
AcDbLine
10
-0.88205622259294847
20
98.197652485380843
30
0
11
-0.63393684103994474
21
100.46928428924006
31
0
0
ARC
5
133
100
AcDbEntity
8
0
100
AcDbCircle
10
0.36015093745842131
20
100.3607048775628
30
0
40
1.0000000000000024
100
AcDbArc
50
86.761381236796623
51
173.76656864451849
0
ARC
5
134
100
AcDbEntity
8
0
100
AcDbCircle
10
1.4516646940782609
20
119.65056799365334
30
0
40
18.320720000000005
100
AcDbArc
50
266.76138123679652
51
274.2386187632078
0
ARC
5
135
100
AcDbEntity
8
0
100
AcDbCircle
10
2.8796667390891346
20
100.38269235886045
30
0
40
1.0000000000000007
100
AcDbArc
50
7.2334313554859468
51
94.238618763207882
0
LINE
5
136
100
AcDbEntity
8
0
100
AcDbLine
10
3.871708141180541
20
100.50860445731217
30
1.2325951644078334e-32
11
4.1594351744669256
21
98.241648914271423
31
0
0
SPLINE
5
137
100
AcDbEntity
8
0
100
AcDbSpline
70
1064
71
5
72
16
73
10
74
0
42
0.000000001
43
0.0000000001
44
0.0000000001
40
0
40
0
40
0
40
0
40
0
40
0
40
0.014285714285714285
40
0.028571428571428571
40
0.042857142857142858
40
0.057142857142857141
40
0.068900658240795595
40
0.068900658240795595
40
0.068900658240795595
40
0.068900658240795595
40
0.068900658240795595
40
0.068900658240795595
10
4.1594351744669256
20
98.241648914271437
30
0
10
4.1613988820067345
20
98.226177174819497
30
0
10
4.1658144736021514
20
98.195330629100823
30
0
10
4.1739023636546673
20
98.149351604335052
30
0
10
4.1874685852836038
20
98.088597449428249
30
0
10
4.207480993428808
20
98.01605986821896
30
0
10
4.225328896318211
20
97.95894503737955
30
0
10
4.2391959456780617
20
97.916898774421682
30
0
10
4.2483583763413364
20
97.889784622145712
30
0
10
4.25253163525087
20
97.877550181810761
30
0
0
SPLINE
5
138
100
AcDbEntity
8
0
100
AcDbSpline
70
1064
71
3
72
10
73
6
74
0
42
0.000000001
43
0.0000000001
44
0.0000000001
40
0.36183114970720509
40
0.36183114970720509
40
0.36183114970720509
40
0.36183114970720509
40
0.4845681361499789
40
0.4845681361499789
40
0.58191508864936414
40
0.58191508864936414
40
0.58191508864936414
40
0.58191508864936414
10
4.25253163525087
20
97.877550181810761
30
0
10
4.3991400213608864
20
97.597591081764165
30
0
10
4.4923017760802741
20
97.377868646312677
30
0
10
4.5921537307582287
20
97.126388933371231
30
0
10
4.628100436806613
20
97.027526798225509
30
0
10
4.656897042543199
20
96.942891993579835
30
0
0
SPLINE
5
139
100
AcDbEntity
8
0
100
AcDbSpline
70
1064
71
5
72
64
73
58
74
0
42
0.000000001
43
0.0000000001
44
0.0000000001
40
0.25203834801954156
40
0.25203834801954156
40
0.25203834801954156
40
0.25203834801954156
40
0.25203834801954156
40
0.25203834801954156
40
0.25714285714285717
40
0.27142857142857146
40
0.28571428571428575
40
0.30000000000000004
40
0.31428571428571433
40
0.32857142857142863
40
0.34285714285714292
40
0.35714285714285721
40
0.3714285714285715
40
0.38571428571428579
40
0.40000000000000008
40
0.41428571428571437
40
0.42857142857142866
40
0.44285714285714295
40
0.45714285714285724
40
0.47142857142857153
40
0.48571428571428582
40
0.50000000000000011
40
0.51428571428571435
40
0.52857142857142858
40
0.54285714285714282
40
0.55714285714285705
40
0.57142857142857129
40
0.58571428571428552
40
0.59999999999999976
40
0.61428571428571399
40
0.62857142857142823
40
0.64285714285714246
40
0.6571428571428567
40
0.67142857142857093
40
0.68571428571428517
40
0.6999999999999994
40
0.71428571428571364
40
0.72857142857142787
40
0.74285714285714211
40
0.75714285714285634
40
0.77142857142857058
40
0.78571428571428481
40
0.79999999999999905
40
0.81428571428571328
40
0.82857142857142752
40
0.84285714285714175
40
0.85714285714285599
40
0.87142857142857022
40
0.88571428571428445
40
0.89999999999999869
40
0.91428571428571292
40
0.92857142857142716
40
0.94285714285714139
40
0.95714285714285563
40
0.97142857142856986
40
0.9857142857142841
40
1
40
1
40
1
40
1
40
1
40
1
10
4.656897042543199
20
96.942891993579835
30
0
10
4.6595796784599059
20
96.937793466864548
30
0
10
4.6697885638999983
20
96.918431459230661
30
0
10
4.6876415969124832
20
96.884840987965731
30
0
10
4.713378764830841
20
96.837093560246245
30
0
10
4.7473793404553248
20
96.775302705819598
30
0
10
4.7872262188819183
20
96.704649060971789
30
0
10
4.8278887532719486
20
96.63424655901926
30
0
10
4.8693345212145758
20
96.564091349628725
30
0
10
4.9115229982834583
20
96.494177633065078
30
0
10
4.9544153861050546
20
96.424499898383189
30
0
10
4.9979859719569619
20
96.355055509106109
30
0
10
5.0422228025605822
20
96.285844864285494
30
0
10
5.087122022648356
20
96.216870122091237
30
0
10
5.1326840368819155
20
96.148134336532834
30
0
10
5.1789092605529286
20
96.079640500199901
30
0
10
5.2257931793271055
20
96.011390430253925
30
0
10
5.2733262784598018
20
95.943384755988887
30
0
10
5.3214963410399863
20
95.875623442173577
30
0
10
5.3702900424337274
20
95.808106152353815
30
0
10
5.4196946897240572
20
95.740832644785769
30
0
10
5.4697002512601163
20
95.673803232503118
30
0
10
5.5202993116313426
20
95.607018777865363
30
0
10
5.5714860795836358
20
95.540480474062534
30
0
10
5.6232556716056141
20
95.474189687989721
30
0
10
5.6756033410439102
20
95.408147789894727
30
0
10
5.7285235673915764
20
95.342355951995046
30
0
10
5.7820100403055275
20
95.276815142635996
30
0
10
5.8360560792581895
20
95.211526215791508
30
0
10
5.8906549219916986
20
95.146489970300223
30
0
10
5.9458000358423551
20
95.08170721516376
30
0
10
6.0014854837554408
20
95.017178841804508
30
0
10
6.0577059341851447
20
94.952905836256022
30
0
10
6.1144564578841241
20
94.888889253866481
30
0
10
6.1717323803788755
20
94.825130203772048
30
0
10
6.2295291235769739
20
94.761629827958814
30
0
10
6.2878420094744598
20
94.698389279675979
30
0
10
6.3466662417424535
20
94.635409705304454
30
0
10
6.4059970294532773
20
94.572692231114416
30
0
10
6.4658296710249505
20
94.510237944610665
30
0
10
6.5261596401537023
20
94.448047880923824
30
0
10
6.5869826935249698
20
94.386122993367522
30
0
10
6.6482948680600318
20
94.324464172130163
30
0
10
6.7100923465931022
20
94.26307231740445
30
0
10
6.7723713483535155
20
94.201948400749302
30
0
10
6.8351280196105186
20
94.141093520708083
30
0
10
6.8983582876969614
20
94.080508979777619
30
0
10
6.9620578364783174
20
94.020196281606019
30
0
10
7.0262223404754653
20
93.96015696444141
30
0
10
7.0908476440248549
20
93.900392464010949
30
0
10
7.1559299537784273
20
93.840903969731428
30
0
10
7.2214660352403479
20
93.781692264525816
30
0
10
7.2874533665900652
20
93.722757619963659
30
0
10
7.3538900704099683
20
93.664099980984616
30
0
10
7.4073979128083201
20
93.617395284141708
30
0
10
7.4477301139546377
20
93.58249118892202
30
0
10
7.4747076936280834
20
93.559277074768374
30
0
10
7.4882188448572053
20
93.547683838359035
30
0
0
ARC
5
140
100
AcDbEntity
8
0
100
AcDbCircle
10
1.4516646940782609
20
119.65056799365334
30
0
40
26.791800000000016
100
AcDbArc
50
283.02131359682431
51
287.85210186885746
0
LINE
5
141
100
AcDbEntity
8
0
100
AcDbLine
10
9.6649856004616144
20
94.148765960683832
30
1.6453067808729937e-31
11
9.8509101384645366
21
94.575937585809811
31
0
0
SPLINE
5
142
100
AcDbEntity
8
0
100
AcDbSpline
70
1064
71
5
72
77
73
71
74
0
42
0.000000001
43
0.0000000001
44
0.0000000001
40
-0.93085646103481379
40
-0.93085646103481379
40
-0.93085646103481379
40
-0.93085646103481379
40
-0.93085646103481379
40
-0.93085646103481379
40
-0.92857142857142716
40
-0.91428571428571292
40
-0.89999999999999869
40
-0.88571428571428445
40
-0.87142857142857022
40
-0.85714285714285599
40
-0.84285714285714175
40
-0.82857142857142752
40
-0.81428571428571328
40
-0.79999999999999905
40
-0.78571428571428481
40
-0.77142857142857058
40
-0.75714285714285634
40
-0.74285714285714211
40
-0.72857142857142787
40
-0.71428571428571364
40
-0.6999999999999994
40
-0.68571428571428517
40
-0.67142857142857093
40
-0.6571428571428567
40
-0.64285714285714246
40
-0.62857142857142823
40
-0.61428571428571399
40
-0.59999999999999976
40
-0.58571428571428552
40
-0.57142857142857129
40
-0.55714285714285705
40
-0.54285714285714282
40
-0.52857142857142858
40
-0.51428571428571435
40
-0.50000000000000011
40
-0.48571428571428582
40
-0.47142857142857153
40
-0.45714285714285724
40
-0.44285714285714295
40
-0.42857142857142866
40
-0.41428571428571437
40
-0.40000000000000008
40
-0.38571428571428579
40
-0.3714285714285715
40
-0.35714285714285721
40
-0.34285714285714292
40
-0.32857142857142863
40
-0.31428571428571433
40
-0.30000000000000004
40
-0.28571428571428575
40
-0.27142857142857146
40
-0.25714285714285717
40
-0.24285714285714291
40
-0.22857142857142862
40
-0.21428571428571433
40
-0.20000000000000004
40
-0.18571428571428575
40
-0.17142857142857146
40
-0.15714285714285717
40
-0.14285714285714288
40
-0.12857142857142859
40
-0.1142857142857143
40
-0.10000000000000001
40
-0.085714285714285715
40
-0.071428571428571425
40
-0.057142857142857141
40
-0.042857142857142858
40
-0.028571428571428571
40
-0.014285714285714285
40
0
40
0
40
0
40
0
40
0
40
0
10
9.8509101384645366
20
94.575937585809811
30
0
10
9.8517258362334861
20
94.578641065728391
30
0
10
9.8576362381571023
20
94.598246371311745
30
0
10
9.868575461675702
20
94.634753950476949
30
0
10
9.8843976372726026
20
94.688164546545792
30
0
10
9.9048760038428583
20
94.758478279141087
30
0
10
9.9289531842036034
20
94.84298918118732
30
0
10
9.952491018529523
20
94.927494946854125
30
0
10
9.9754865914177167
20
95.011992029819027
30
0
10
9.9979369776548008
20
95.096476918230508
30
0
10
10.019839357119174
20
95.180946398052129
30
0
10
10.041190992310458
20
95.265397542830442
30
0
10
10.061989142865539
20
95.349827572536029
30
0
10
10.082231000468223
20
95.43423374956744
30
0
10
10.101913626577943
20
95.518613269747846
30
0
10
10.121033874957032
20
95.602963130459386
30
0
10
10.139588398937578
20
95.687280113203201
30
0
10
10.15757372858365
20
95.771560864311965
30
0
10
10.174986337340686
20
95.855801950873598
30
0
10
10.191822704382261
20
95.93999991995581
30
0
10
10.208079413843567
20
96.024151373680994
30
0
10
10.223753129699817
20
96.108252975284074
30
0
10
10.238840416392526
20
96.192301366517952
30
0
10
10.253337592276534
20
96.276293104022685
30
0
10
10.267240595169952
20
96.360224596653396
30
0
10
10.280544795140077
20
96.44409202250273
30
0
10
10.293245009267839
20
96.527891323550463
30
0
10
10.305335852599228
20
96.611618332237896
30
0
10
10.316812038633543
20
96.69526887584054
30
0
10
10.327668657085765
20
96.778838874257374
30
0
10
10.337901579694474
20
96.862324479430697
30
0
10
10.347507443513408
20
96.945722072121697
30
0
10
10.356482766559321
20
97.029027965478249
30
0
10
10.364823199296866
20
97.112238154020559
30
0
10
10.372522829626547
20
97.195348079343447
30
0
10
10.379573219969576
20
97.278352306442528
30
0
10
10.385963365865258
20
97.361244505197234
30
0
10
10.391681672586405
20
97.444018101311229
30
0
10
10.396717650050945
20
97.526666832809241
30
0
10
10.401063466641256
20
97.609185259825296
30
0
10
10.404716188724949
20
97.691569499693912
30
0
10
10.407677713574074
20
97.773817201156135
30
0
10
10.409949960982487
20
97.855925954831093
30
0
10
10.4115307378806
20
97.93789192519651
30
0
10
10.412410003835642
20
98.019708613804752
30
0
10
10.412564360856752
20
98.10136503752662
30
0
10
10.41195771390025
20
98.182845937524434
30
0
10
10.410552339668566
20
98.264135413518957
30
0
10
10.4083184636631
20
98.345220067113928
30
0
10
10.405242646688958
20
98.426091751377029
30
0
10
10.401341058528036
20
98.506751931961929
30
0
10
10.396654944102652
20
98.587210174634919
30
0
10
10.391224015505642
20
98.667475351143082
30
0
10
10.385063250229043
20
98.74754796965631
30
0
10
10.378142895735436
20
98.827413558417007
30
0
10
10.370355765551613
20
98.907031866947946
30
0
10
10.36153587420638
20
98.986342959427347
30
0
10
10.351518933235331
20
99.065287063529894
30
0
10
10.340196007607787
20
99.143822200799136
30
0
10
10.327559157160566
20
99.221939105354906
30
0
10
10.313777945037067
20
99.299686481372333
30
0
10
10.299123806654841
20
99.377145363224869
30
0
10
10.283821680586032
20
99.454379181311069
30
0
10
10.267917580036588
20
99.531389085932432
30
0
10
10.251154797995607
20
99.608072320069866
30
0
10
10.23280582156865
20
99.684165357028732
30
0
10
10.211858857769922
20
99.759308734984288
30
0
10
10.192196676358339
20
99.81837233062376
30
0
10
10.175448402841422
20
99.861949618493867
30
0
10
10.163346158045687
20
99.890664466618446
30
0
10
10.157060849034128
20
99.90493771991261
30
0
0
LINE
5
143
100
AcDbEntity
8
0
100
AcDbLine
10
10.157060849034124
20
99.904937719912624
30
0
11
9.2361226347007026
21
101.99628826087587
31
0
0
ARC
5
144
100
AcDbEntity
8
0
100
AcDbCircle
10
10.151317610310562
20
102.39929962128457
30
0
40
1.0000000000000051
100
AcDbArc
50
116.76138123679632
51
203.76656864451834
0
ARC
5
145
100
AcDbEntity
8
0
100
AcDbCircle
10
1.4516646940782609
20
119.65056799365334
30
0
40
18.320719999999998
100
AcDbArc
50
296.76138123679658
51
304.2386187632078
0
ARC
5
146
100
AcDbEntity
8
0
100
AcDbCircle
10
12.32228855911025
20
103.67809923946893
30
0
40
1.0000000000000018
100
AcDbArc
50
37.233431355486601
51
124.23861876320828
0
LINE
5
147
100
AcDbEntity
8
0
100
AcDbLine
10
13.118465565701475
20
104.28316301641765
30
-3.7184634591829311e-47
11
14.501122257403395
21
102.46378544353759
31
0
0
SPLINE
5
148
100
AcDbEntity
8
0
100
AcDbSpline
70
1064
71
5
72
81
73
75
74
0
42
0.000000001
43
0.0000000001
44
0.0000000001
40
0
40
0
40
0
40
0
40
0
40
0
40
0.014285714285714285
40
0.028571428571428571
40
0.042857142857142858
40
0.057142857142857141
40
0.071428571428571425
40
0.085714285714285715
40
0.10000000000000001
40
0.1142857142857143
40
0.12857142857142859
40
0.14285714285714288
40
0.15714285714285717
40
0.17142857142857146
40
0.18571428571428575
40
0.20000000000000004
40
0.21428571428571433
40
0.22857142857142862
40
0.24285714285714291
40
0.25714285714285717
40
0.27142857142857146
40
0.28571428571428575
40
0.30000000000000004
40
0.31428571428571433
40
0.32857142857142863
40
0.34285714285714292
40
0.35714285714285721
40
0.3714285714285715
40
0.38571428571428579
40
0.40000000000000008
40
0.41428571428571437
40
0.42857142857142866
40
0.44285714285714295
40
0.45714285714285724
40
0.47142857142857153
40
0.48571428571428582
40
0.50000000000000011
40
0.51428571428571435
40
0.52857142857142858
40
0.54285714285714282
40
0.55714285714285705
40
0.57142857142857129
40
0.58571428571428552
40
0.59999999999999976
40
0.61428571428571399
40
0.62857142857142823
40
0.64285714285714246
40
0.6571428571428567
40
0.67142857142857093
40
0.68571428571428517
40
0.6999999999999994
40
0.71428571428571364
40
0.72857142857142787
40
0.74285714285714211
40
0.75714285714285634
40
0.77142857142857058
40
0.78571428571428481
40
0.79999999999999905
40
0.81428571428571328
40
0.82857142857142752
40
0.84285714285714175
40
0.85714285714285599
40
0.87142857142857022
40
0.88571428571428445
40
0.89999999999999869
40
0.91428571428571292
40
0.92857142857142716
40
0.94285714285714139
40
0.95714285714285563
40
0.97142857142856986
40
0.9857142857142841
40
1
40
1
40
1
40
1
40
1
40
1
10
14.501122257403399
20
102.46378544353759
30
0
10
14.510558747744435
20
102.45136837790139
30
0
10
14.529806035098149
20
102.4268622814877
30
0
10
14.559799865729527
20
102.39108722302559
30
0
10
14.601925635746952
20
102.3452556923053
30
0
10
14.657492225403344
20
102.29050483243155
30
0
10
14.715148934810189
20
102.23756581969128
30
0
10
14.774090844598433
20
102.18572799055033
30
0
10
14.833734763877455
20
102.13448280817077
30
0
10
14.893866365304893
20
102.08365556913333
30
0
10
14.954508962601981
20
102.03328595981745
30
0
10
15.015827085629079
20
101.98353996426383
30
0
10
15.078023203147859
20
101.93461569899399
30
0
10
15.141222118632855
20
101.8866378550222
30
0
10
15.205411878495214
20
101.83960397991302
30
0
10
15.270502954798763
20
101.79343914850139
30
0
10
15.336363420861808
20
101.74802864905703
30
0
10
15.402860384280199
20
101.70325636487871
30
0
10
15.469906676159939
20
101.65904806238322
30
0
10
15.537475214900319
20
101.61538473546229
30
0
10
15.605573706188917
20
101.57227923735995
30
0
10
15.674229162235225
20
101.52976199994691
30
0
10
15.743469945382119
20
101.4878644592695
30
0
10
15.813305176784962
20
101.44660004717464
30
0
10
15.883721215525258
20
101.40596095918877
30
0
10
15.954691908138187
20
101.36592764962009
30
0
10
16.026185059308645
20
101.32647483353742
30
0
10
16.098169824132068
20
101.28757833913554
30
0
10
16.170625252976127
20
101.24922302679724
30
0
10
16.243540794472086
20
101.21140326547209
30
0
10
16.31691203077532
20
101.17411899655629
30
0
10
16.390737785328376
20
101.13737306723041
30
0
10
16.465016921489564
20
101.10116827679894
30
0
10
16.539744621149953
20
101.06550394180275
30
0
10
16.614912329651993
20
101.03037584985408
30
0
10
16.69050948445598
20
100.9957778619863
30
0
10
16.766524714317502
20
100.9617030245046
30
0
10
16.842947147719968
20
100.92814478159413
30
0
10
16.919767940482025
20
100.89509838852464
30
0
10
16.996980239490004
20
100.86256088441608
30
0
10
17.074578432775731
20
100.83053040697423
30
0
10
17.152557607646717
20
100.79900569820934
30
0
10
17.230912968256686
20
100.7679855714641
30
0
10
17.309639147597633
20
100.73746828165513
30
0
10
17.388730196579459
20
100.70745151222258
30
0
10
17.468179902708634
20
100.67793266246576
30
0
10
17.54798201027873
20
100.64890904307029
30
0
10
17.628130457336219
20
100.62037808832029
30
0
10
17.708619656529699
20
100.59233760168283
30
0
10
17.789444497588264
20
100.56478577131513
30
0
10
17.870600183984418
20
100.53772104655181
30
0
10
17.952082112937291
20
100.51114205069624
30
0
10
18.033885748709451
20
100.48504748369119
30
0
10
18.116006463406084
20
100.45943600527771
30
0
10
18.198439530094038
20
100.43430621008646
30
0
10
18.281180236573181
20
100.40965667803209
30
0
10
18.364223967401649
20
100.38548600013044
30
0
10
18.447566285120097
20
100.36179280967906
30
0
10
18.531203038253505
20
100.33857581061443
30
0
10
18.615130349580806
20
100.31583379232302
30
0
10
18.699344463243136
20
100.29356562581162
30
0
10
18.783841619217561
20
100.27177026208967
30
0
10
18.868617930803687
20
100.25044672565821
30
0
10
18.953669219719874
20
100.22959410817904
30
0
10
19.038990996259933
20
100.20921155378234
30
0
10
19.124578745324989
20
100.18929823189049
30
0
10
19.210428150141276
20
100.16985330804793
30
0
10
19.2965353308646
20
100.15087591564577
30
0
10
19.382897094877919
20
100.13236511546725
30
0
10
19.469511122435794
20
100.11431988178828
30
0
10
19.556375815177056
20
100.09673922821635
30
0
10
19.626067314417174
20
100.08304569547354
30
0
10
19.678448072810273
20
100.07298396289033
30
0
10
19.713418399216916
20
100.06636874014364
30
0
10
19.73091601762038
20
100.06308427851565
30
0
0
ARC
5
149
100
AcDbEntity
8
0
100
AcDbCircle
10
1.4516646940782609
20
119.65056799365334
30
0
40
26.791800000000009
100
AcDbArc
50
313.02131359682431
51
317.97868640318006
0
SPLINE
5
150
100
AcDbEntity
8
0
100
AcDbSpline
70
1064
71
5
72
61
73
55
74
0
42
0.000000001
43
0.0000000001
44
0.0000000001
40
-1
40
-1
40
-1
40
-1
40
-1
40
-1
40
-0.9857142857142841
40
-0.97142857142856986
40
-0.95714285714285563
40
-0.94285714285714139
40
-0.92857142857142716
40
-0.91428571428571292
40
-0.89999999999999869
40
-0.88571428571428445
40
-0.87142857142857022
40
-0.85714285714285599
40
-0.84285714285714175
40
-0.82857142857142752
40
-0.81428571428571328
40
-0.79999999999999905
40
-0.78571428571428481
40
-0.77142857142857058
40
-0.75714285714285634
40
-0.74285714285714211
40
-0.72857142857142787
40
-0.71428571428571364
40
-0.6999999999999994
40
-0.68571428571428517
40
-0.67142857142857093
40
-0.6571428571428567
40
-0.64285714285714246
40
-0.62857142857142823
40
-0.61428571428571399
40
-0.59999999999999976
40
-0.58571428571428552
40
-0.57142857142857129
40
-0.55714285714285705
40
-0.54285714285714282
40
-0.52857142857142858
40
-0.51428571428571435
40
-0.50000000000000011
40
-0.48571428571428582
40
-0.47142857142857153
40
-0.45714285714285724
40
-0.44285714285714295
40
-0.42857142857142866
40
-0.41428571428571437
40
-0.40000000000000008
40
-0.38571428571428579
40
-0.3714285714285715
40
-0.35714285714285721
40
-0.34285714285714292
40
-0.32857142857142863
40
-0.31428571428571433
40
-0.30000000000000004
40
-0.29903288975545705
40
-0.29903288975545705
40
-0.29903288975545705
40
-0.29903288975545705
40
-0.29903288975545705
40
-0.29903288975545705
10
21.355182064041102
20
101.7159494155071
30
0
10
21.351592727104453
20
101.73338704717928
30
0
10
21.344368195538532
20
101.76823659587978
30
0
10
21.333393825120972
20
101.82043377498316
30
0
10
21.318486093599532
20
101.88987567477139
30
0
10
21.299392119723532
20
101.97642031288763
30
0
10
21.27983801120893
20
102.06270621595718
30
0
10
21.259822809708744
20
102.14873176864731
30
0
10
21.239345530140206
20
102.23449463366464
30
0
10
21.218405289148457
20
102.3199916024867
30
0
10
21.19700128796925
20
102.40521878073585
30
0
10
21.175132767612169
20
102.4901718377325
30
0
10
21.152798976425458
20
102.57484624456991
30
0
10
21.129999137025806
20
102.65923749728867
30
0
10
21.10673241413447
20
102.74334140239084
30
0
10
21.082997900233302
20
102.82715405674318
30
0
10
21.058794612112941
20
102.91067168258805
30
0
10
21.03412148650095
20
102.9938905049349
30
0
10
21.00897738063496
20
103.07680662602513
30
0
10
20.983361071102145
20
103.15941587239656
30
0
10
20.957271268852512
20
103.24171378341345
30
0
10
20.930706645667065
20
103.32369571974669
30
0
10
20.903665863916004
20
103.40535694512999
30
0
10
20.876147600940342
20
103.48669270882303
30
0
10
20.848150597453188
20
103.56769836024509
30
0
10
20.819673632754863
20
103.64836934166043
30
0
10
20.790715410687977
20
103.72870102696254
30
0
10
20.761274464534303
20
103.80868859329162
30
0
10
20.731349071913534
20
103.88832689953406
30
0
10
20.700937134140013
20
103.96761032085467
30
0
10
20.6700361916843
20
104.04653275144527
30
0
10
20.638643664818733
20
104.12508788961718
30
0
10
20.606757061661703
20
104.20326947843458
30
0
10
20.57437416983209
20
104.28107152928391
30
0
10
20.541493338179535
20
104.35848864551869
30
0
10
20.50811346392652
20
104.43551601131303
30
0
10
20.474233375013178
20
104.51214869276771
30
0
10
20.439851307371303
20
104.5883810462678
30
0
10
20.404964420175105
20
104.66420616806889
30
0
10
20.36956812376922
20
104.73961513252972
30
0
10
20.333656053071426
20
104.81459695537467
30
0
10
20.297221453901567
20
104.88914014573257
30
0
10
20.260258372569737
20
104.96323403553268
30
0
10
20.222762746629108
20
105.03686999790405
30
0
10
20.184733976812247
20
105.1100432035436
30
0
10
20.146174881834416
20
105.18275256483733
30
0
10
20.107088328976303
20
105.25499695509711
30
0
10
20.067474336745079
20
105.32677195612847
30
0
10
20.02732745909471
20
105.39806691989425
30
0
10
19.986632924335307
20
105.46886063573012
30
0
10
19.953061546611352
20
105.52602090505209
30
0
10
19.927462889422916
20
105.56886301230385
30
0
10
19.910078595349837
20
105.59761484995229
30
0
10
19.90106687804775
20
105.61242779251073
30
0
10
19.900495346505718
20
105.61336687650552
30
0
0
SPLINE
5
151
100
AcDbEntity
8
0
100
AcDbSpline
70
1064
71
3
72
12
73
8
74
0
42
0.000000001
43
0.0000000001
44
0.0000000001
40
0
40
0
40
0
40
0
40
0.11719334201607849
40
0.11719334201607849
40
0.21825652622350031
40
0.21825652622350031
40
0.31931971043092133
40
0.31931971043092133
40
0.31931971043092133
40
0.31931971043092133
10
19.852126702720952
20
108.65030953673362
30
0
10
19.659764160401028
20
108.31030989423384
30
0
10
19.535650199479427
20
107.93598815160854
30
0
10
19.444619064033812
20
107.21418399878263
30
0
10
19.459064021501344
20
106.8752291302264
30
0
10
19.599932960092115
20
106.21636560025647
30
0
10
19.725355994721156
20
105.90113850418341
30
0
10
19.900495346510453
20
105.61336687649774
30
0
0
LINE
5
152
100
AcDbEntity
8
0
100
AcDbLine
10
19.852126702720952
20
108.65030953673362
30
0
11
21.346217724582676
21
111.29110647759654
31
0
0
LINE
5
153
100
AcDbEntity
8
0
100
AcDbLine
10
21.346217724582676
20
111.29110647759654
30
0
11
18.137975585489126
21
114.55583739678249
31
-2.4651903288156619e-31
0
LINE
5
154
100
AcDbEntity
8
0
100
AcDbLine
10
18.137975585489126
20
114.55583739678249
30
-2.4651903288156619e-31
11
14.806807355623274
21
117.94565881472749
31
0
0
ARC
5
155
100
AcDbEntity
8
0
100
AcDbCircle
10
16.946558703085699
20
120.04838660762717
30
0
40
3.0000000000000027
100
AcDbArc
50
181.47069875950277
51
224.50000000000321
0
ARC
5
156
100
AcDbEntity
8
0
100
AcDbCircle
10
1.4516646940782609
20
119.65056799365334
30
0
40
12.499999999999957
100
AcDbArc
50
1.4706987595027419
51
91.857690073513638
0
ARC
5
157
100
AcDbEntity
8
0
100
AcDbCircle
10
0.94919921195412382
20
135.14242160899823
30
0
40
3.0000000000000044
100
AcDbArc
50
224.50000005345373
51
271.85769007351342
0
LINE
5
158
100
AcDbEntity
8
0
100
AcDbLine
10
-1.1905521335467002
20
133.03969381410241
30
1.8488927466117475e-32
11
-152.65581472176888
21
287.17186451470633
31
0
0
ARC
5
159
100
AcDbEntity
8
0
100
AcDbCircle
10
-156.22206696427023
20
283.66731818988006
30
2.2408459329412968e-46
40
4.9999999999999307
100
AcDbArc
50
44.500000053453014
51
134.50000005345396
0
LINE
5
160
100
AcDbEntity
8
0
100
AcDbLine
10
-159.72661328909658
20
287.23357043238138
30
-4.9554105044132869e-48
11
-163.29286553159801
21
283.72902410755495
31
-2.0715519688850143e-46
0
ENDSEC
0
SECTION
2
OBJECTS
0
DICTIONARY
5
C
100
AcDbDictionary
3
ACAD_GROUP
350
D
3
ACAD_MLINESTYLE
350
17
0
DICTIONARY
5
D
100
AcDbDictionary
0
DICTIONARY
5
1A
330
C
100
AcDbDictionary
0
DICTIONARY
5
17
100
AcDbDictionary
0
ENDSEC
0
EOF
