0
SECTION
2
HEADER
9
$INSUNITS
70
4
9
$ACADVER
1
AC1014
9
$HANDSEED
5
FFFF
0
ENDSEC
0
SECTION
2
TABLES
0
TABLE
2
VPORT
5
8
100
AcDbSymbolTable
0
ENDTAB
0
TABLE
2
LTYPE
5
5
100
AcDbSymbolTable
0
LTYPE
5
14
100
AcDbSymbolTableRecord
100
AcDbLinetypeTableRecord
2
BYBLOCK
70
0
0
LTYPE
5
15
100
AcDbSymbolTableRecord
100
AcDbLinetypeTableRecord
2
BYLAYER
70
0
0
ENDTAB
0
TABLE
2
LAYER
5
2
100
AcDbSymbolTable
70
2
0
LAYER
5
50
100
AcDbSymbolTableRecord
100
AcDbLayerTableRecord
2
0
70
0
6
CONTINUOUS
0
ENDTAB
0
TABLE
2
STYLE
5
3
100
AcDbSymbolTable
70
1
0
STYLE
5
11
100
AcDbSymbolTableRecord
100
AcDbTextStyleTableRecord
2
STANDARD
70
0
0
ENDTAB
0
TABLE
2
VIEW
5
6
100
AcDbSymbolTable
70
0
0
ENDTAB
0
TABLE
2
UCS
5
7
100
AcDbSymbolTable
70
0
0
ENDTAB
0
TABLE
2
APPID
5
9
100
AcDbSymbolTable
70
2
0
APPID
5
12
100
AcDbSymbolTableRecord
100
AcDbRegAppTableRecord
2
ACAD
70
0
0
ENDTAB
0
TABLE
2
DIMSTYLE
5
A
100
AcDbSymbolTable
70
1
0
ENDTAB
0
TABLE
2
BLOCK_RECORD
5
1
100
AcDbSymbolTable
70
1
0
BLOCK_RECORD
5
1F
100
AcDbSymbolTableRecord
100
AcDbBlockTableRecord
2
*MODEL_SPACE
0
BLOCK_RECORD
5
1B
100
AcDbSymbolTableRecord
100
AcDbBlockTableRecord
2
*PAPER_SPACE
0
ENDTAB
0
ENDSEC
0
SECTION
2
BLOCKS
0
BLOCK
5
20
100
AcDbEntity
100
AcDbBlockBegin
2
*MODEL_SPACE
0
ENDBLK
5
21
100
AcDbEntity
100
AcDbBlockEnd
0
BLOCK
5
1C
100
AcDbEntity
100
AcDbBlockBegin
2
*PAPER_SPACE
0
ENDBLK
5
1D
100
AcDbEntity
100
AcDbBlockEnd
0
ENDSEC
0
SECTION
2
ENTITIES
0
CIRCLE
5
100
100
AcDbEntity
8
0
100
AcDbCircle
10
44.000000596047528
20
105.00000104308128
30
0
40
2.0500000000000007
0
CIRCLE
5
101
100
AcDbEntity
8
0
100
AcDbCircle
10
1.4516646940782607
20
119.65056799365331
30
0
40
2.0499999999999989
0
CIRCLE
5
102
100
AcDbEntity
8
0
100
AcDbCircle
10
44.000000596047528
20
140.00000104308128
30
0
40
2.0500000000000007
0
LWPOLYLINE
5
103
100
AcDbEntity
8
0
100
AcDbPolyline
90
32
70
1
43
0.0
10
4
20
80.100001043081278
10
2.0499999999999998
20
80.100001043081278
10
2.0499999999999998
20
85.000001043081284
42
0.99999999999999989
10
-2.0500000000000007
20
85.000001043081284
10
-2.0499999999999998
20
80.100001043081278
10
-4
20
80.100001043081278
42
0.99999999999999989
10
-4
20
76.000001043081284
10
-2.0499999999999994
20
76.000001043081284
10
-2.0499999999999998
20
70.000001043081284
10
-6.9499999999999957
20
70.000001043081554
42
0.99999999999999989
10
-11.049999999999995
20
70.000001043081554
10
-11.049999999999995
20
64.299870144777543
10
-39.999999902850469
20
64.299870144778424
10
-39.999999902850291
20
69.999870144778427
42
0.99999999999999989
10
-44.099999902850293
20
69.999870144778498
10
-48.999999902850277
20
69.999870144778697
10
-48.99999990284951
20
94.999870144778782
42
-0.41421356237309687
10
-18.999999902848607
20
124.99987014477779
10
0.093642144143578326
20
124.99987014477719
42
0.11187670218798704
10
1.8178332572526923
20
125.39055372674513
10
41.844761704661295
20
144.51164656562139
42
-0.55165451962371537
10
49.000000596047173
20
139.99999915908174
10
49.000000596046448
20
70.000001043081284
10
44.100000596046449
20
70.000001043081227
42
0.99999999999999989
10
40.000000596046448
20
70.000001043081284
10
40.00000059604627
20
64.300001043081281
10
11.049999999999827
20
64.300001043081281
10
11.050000000000001
20
70.000001043081284
42
0.99999999999999989
10
6.9500000000000011
20
70.00000104308134
10
2.0500000000000007
20
70.000001043081284
10
2.0500000000000003
20
76.000001043081284
10
4
20
76.000001043081284
42
0.99999999999999989
0
ENDSEC
0
SECTION
2
OBJECTS
0
DICTIONARY
5
C
100
AcDbDictionary
3
ACAD_GROUP
350
D
3
ACAD_MLINESTYLE
350
17
0
DICTIONARY
5
D
100
AcDbDictionary
0
DICTIONARY
5
1A
330
C
100
AcDbDictionary
0
DICTIONARY
5
17
100
AcDbDictionary
0
ENDSEC
0
EOF
